<?xml version="1.0" encoding="UTF-8" standalone="no"?>
<svg
   xmlns:dc="http://purl.org/dc/elements/1.1/"
   xmlns:cc="http://creativecommons.org/ns#"
   xmlns:rdf="http://www.w3.org/1999/02/22-rdf-syntax-ns#"
   xmlns:svg="http://www.w3.org/2000/svg"
   xmlns="http://www.w3.org/2000/svg"
   xmlns:xlink="http://www.w3.org/1999/xlink"
   xmlns:sodipodi="http://sodipodi.sourceforge.net/DTD/sodipodi-0.dtd"
   xmlns:inkscape="http://www.inkscape.org/namespaces/inkscape"
   width="210mm"
   height="297mm"
   viewBox="0 0 210 297"
   version="1.1"
   id="svg1142"
   inkscape:version="1.0.2 (1.0.2+r75+1)"
   sodipodi:docname="dibujo.svg">
  <defs
     id="defs1136">
    <linearGradient
       inkscape:collect="always"
       xlink:href="#linearGradient-1"
       id="linearGradient1007"
       x1="280.27829"
       y1="-63.382984"
       x2="-28.381657"
       y2="-416.98856"
       gradientUnits="userSpaceOnUse"
       gradientTransform="matrix(0.26458333,0,0,0.26458333,71.097547,181.72444)" />
    <linearGradient
       x1="0"
       y1="0"
       x2="1.02"
       y2="1.01"
       id="linearGradient-1">
      <stop
         stop-color="#FFCF55"
         offset="0%"
         id="stop6" />
      <stop
         stop-color="#4CF2FF"
         offset="100%"
         id="stop8" />
    </linearGradient>
  </defs>
  <sodipodi:namedview
     id="base"
     pagecolor="#ffffff"
     bordercolor="#666666"
     borderopacity="1.0"
     inkscape:pageopacity="0.0"
     inkscape:pageshadow="2"
     inkscape:zoom="0.98994949"
     inkscape:cx="369.04123"
     inkscape:cy="412.58143"
     inkscape:document-units="mm"
     inkscape:current-layer="layer1"
     inkscape:document-rotation="0"
     showgrid="false"
     inkscape:window-width="1202"
     inkscape:window-height="547"
     inkscape:window-x="79"
     inkscape:window-y="94"
     inkscape:window-maximized="0" />
  <metadata
     id="metadata1139">
    <rdf:RDF>
      <cc:Work
         rdf:about="">
        <dc:format>image/svg+xml</dc:format>
        <dc:type
           rdf:resource="http://purl.org/dc/dcmitype/StillImage" />
        <dc:title></dc:title>
      </cc:Work>
    </rdf:RDF>
  </metadata>
  <g
     inkscape:label="Capa 1"
     inkscape:groupmode="layer"
     id="layer1">
    <path
       id="path999"
       style="display:inline;opacity:0.99;mix-blend-mode:normal;fill:url(#linearGradient1007);fill-opacity:1;stroke:none;stroke-width:0.311253;stroke-miterlimit:4;stroke-dasharray:none;stroke-opacity:1;filter:url(#filter989);stop-color:#000000"
       d="m 89.423047,67.809947 c -0.21594,-0.002 -0.39482,5e-5 -0.524,0.002 -0.8594,0.0131 -2.17577,0.0579 -3.78168,0.11938 l -3.79357,0.14521 a 5.1757794,5.1757794 0 0 0 -0.001,0 c -1.42601,0.0549 -2.83057,0.36805 -4.14445,0.92501 a 5.1757794,5.1757794 0 0 0 -1.65313,1.11931 l -1.0387,1.04644 a 5.1757794,5.1757794 0 0 0 -0.48937,0.57103 l -9.62164,13.02608 a 5.1757794,5.1757794 0 0 0 -0.11627,0.1633 l -0.678,0.99632 a 5.1757794,5.1757794 0 0 0 -5.2e-4,5.3e-4 l -2.93418,4.31337 a 5.1757794,5.1757794 0 0 0 -0.0248,0.0372 l -1.15031,1.72289 a 5.1757794,5.1757794 0 0 0 -5.3e-4,5.3e-4 c -1.50453,2.25393 -2.18127,4.95803 -1.9265,7.64967 0.003,0.0546 0.002,0.0364 0.006,0.10438 a 5.1757794,5.1757794 0 0 0 0,5.3e-4 c 0.0156,0.249053 0.045,0.533873 0.0408,0.493513 0.0147,0.14205 0.0298,0.26808 0.0367,0.32298 0.0183,0.14717 0.0356,0.27351 0.0537,0.40721 0.0387,0.28522 0.0897,0.64881 0.15245,1.09296 0.12567,0.8898 0.29796,2.0935 0.48989,3.42718 0.42312,2.94017 0.97004,6.69881 1.41852,9.75237 0.22419,1.52649 0.42319,2.87446 0.57205,3.86695 0.0728,0.4855 0.13211,0.8792 0.18087,1.19321 0.0118,0.65393 0.0913,0.85727 0.12919,1.02009 0.0473,0.20301 0.0838,0.32816 0.12299,0.46096 0.0667,0.22559 0.15311,0.4878 0.2558,0.79581 a 5.1757794,5.1757794 0 0 0 0.0455,0.14108 5.1757794,5.1757794 0 0 0 0,5.3e-4 c 0.62287,1.85209 1.61301,3.17868 2.64066,4.27519 0.35016,0.39998 0.72981,0.79975 0.81236,0.87953 0.3871,0.37418 0.73706,0.66957 0.93586,0.83561 0.49732,0.41537 1.00438,0.80739 1.53789,1.20303 0.4172,0.3094 0.79782,0.58968 1.11104,0.817 0.15035,0.10912 0.2903,0.2106 0.44235,0.31781 0.005,0.003 0.0213,0.0147 0.0269,0.0186 0.045,0.0396 0.0858,0.0767 0.10284,0.0904 0.10818,0.0876 0.13468,0.10537 0.16174,0.12557 0.0541,0.0404 0.0688,0.0504 0.0842,0.0615 0.0617,0.0442 0.0749,0.0533 0.10645,0.0754 0.12638,0.0887 0.367,0.25934 0.38189,0.27027 0.25319,0.18588 0.61849,0.45463 1.06092,0.78083 0.8852,0.65266 2.08377,1.53767 3.37602,2.49391 1.31718,0.97469 2.52309,1.86117 3.43131,2.52232 0.45312,0.32986 0.82924,0.60205 1.13895,0.82269 0.1512,0.10771 0.29911,0.21209 0.46612,0.3266 0.0597,0.0409 0.21866,0.14918 0.39843,0.26406 -0.002,-0.001 0.11031,0.0655 0.14004,0.0842 3.8347,3.36669 9.50003,3.93858 13.91078,1.23403 l 0.51263,-0.31419 a 5.1757794,5.1757794 0 0 0 0.003,-0.002 c 0.008,-0.005 0.0266,-0.0168 0.0346,-0.0217 a 5.1757794,5.1757794 0 0 0 0.046,-0.0284 c 0.56831,-0.34924 1.60943,-0.99732 2.36781,-1.46709 0.005,-0.003 0.01,-0.006 0.0145,-0.009 0.0598,-0.0355 0.12013,-0.0699 0.17932,-0.10645 a 5.1757794,5.1757794 0 0 0 0.006,-0.004 c 0.75881,-0.4697 1.52631,-0.95009 2.32544,-1.44591 2.867763,-1.77905 5.636843,-3.4979 7.662583,-4.76457 0.0267,-0.0162 0.0276,-0.0171 0.0326,-0.0202 0.016,-0.01 0.0217,-0.0134 0.03,-0.0186 a 5.1757794,5.1757794 0 0 0 0.007,-0.005 c 10e-4,-7.9e-4 0.004,-0.002 0.005,-0.003 0.0246,-0.0153 0.0568,-0.0351 0.0956,-0.0594 a 5.1757794,5.1757794 0 0 0 0.0481,-0.0305 c 0.0152,-0.01 0.0343,-0.0218 0.0517,-0.0331 0.34199,-0.21405 0.6331,-0.39694 0.89607,-0.56224 1.27354,-0.38691 1.08429,-0.60917 1.25419,-0.73794 0.19986,-0.15149 0.30847,-0.24658 0.42684,-0.34985 0.23676,-0.20654 0.47809,-0.43012 0.83148,-0.76481 0.81459,-0.77161 1.37823,-1.60215 1.84381,-2.41536 0.013,-0.0169 0.0269,-0.0345 0.0362,-0.0465 0.013,-0.0169 0.0207,-0.0274 0.0207,-0.0274 a 5.1757794,5.1757794 0 0 0 0.39739,-0.59893 c 3e-5,-5e-5 0.17545,-0.32939 0.28009,-0.53589 0.10463,-0.20649 0.17377,-0.30178 0.39377,-0.83354 0.26477,-0.63996 0.45123,-1.297 0.49558,-1.46296 0.14505,-0.5428 0.24593,-1.14412 0.24753,-1.15393 0.0608,-0.37374 0.10307,-0.80789 0.0977,-0.75293 a 5.1757794,5.1757794 0 0 0 0,-5.3e-4 c 0.0223,-0.22714 0.0363,-0.45621 0.0372,-0.47025 0.0107,-0.17182 0.0167,-0.31206 0.0212,-0.41548 0.01,-0.23215 0.0201,-0.50121 0.031,-0.82992 0.0215,-0.65101 0.0474,-1.52927 0.0765,-2.57297 a 5.1757794,5.1757794 0 0 0 0,-0.003 v -0.004 c 0.009,-0.3157 0.0175,-0.68036 0.0248,-0.95188 0.0342,-1.26473 0.0703,-2.61171 0.10955,-4.16822 a 5.1757794,5.1757794 0 0 0 5.3e-4,-0.0238 c 7.9e-4,-0.0445 5.3e-4,-0.0865 0.001,-0.12971 1.5e-4,-0.006 2.6e-4,-0.012 5.3e-4,-0.0181 0.085,-3.36767 0.17349,-7.08109 0.23926,-10.04848 0.0334,-1.50862 0.061,-2.822873 0.0791,-3.815273 0.0149,-0.81783 0.0647,-1.1017 0.0129,-2.40606 a 5.1757794,5.1757794 0 0 0 -0.0568,-0.58704 l 0.0434,0.2589 -0.0207,-0.51315 a 5.1757794,5.1757794 0 0 0 0,-5.3e-4 c -0.0466,-1.15681 -0.26662,-2.29814 -0.64544,-3.38894 0.0624,0.002 0.14488,-0.0393 -0.44648,-1.34927 -0.24773,-0.54876 -0.55891,-1.0847 -0.60049,-1.15497 -0.22461,-0.37963 -0.50224,-0.77876 -0.49609,-0.76997 -0.16329,-0.23313 -0.34393,-0.46688 -0.34933,-0.47388 h 5.3e-4 c -0.12702,-0.16465 -0.23501,-0.29696 -0.29353,-0.36897 -0.15826,-0.19475 -0.31998,-0.38891 -0.51004,-0.6165 -0.3862,-0.46244 -0.90102,-1.07324 -1.51671,-1.79989 -1.23055,-1.45233 -2.85393,-3.3569 -4.48293,-5.26169 -1.62907,-1.90489 -3.26045,-3.80591 -4.50721,-5.25033 -0.62246,-0.72113 -1.146093,-1.32575 -1.547203,-1.78387 -0.19998,-0.2284 -0.36934,-0.42034 -0.53175,-0.60099 -0.0732,-0.0815 -0.18159,-0.20117 -0.31316,-0.34055 -0.009,-0.009 -0.19453,-0.20585 -0.38447,-0.39067 -0.005,-0.005 -0.1273,-0.1146 -0.17105,-0.15607 -0.0862,-0.10659 -0.15545,-0.21733 -0.24753,-0.31264 -0.80649,-0.83482 -1.53011,-1.20318 -2.2841,-1.53841 -0.16817,-0.10912 -0.31226,-0.22921 -0.9772,-0.53072 -0.80247,-0.36387 -1.63701,-0.60273 -1.85105,-0.65939 -0.68757,-0.18204 -1.45877,-0.28914 -1.45676,-0.28887 -0.45905,-0.0614 -0.98608,-0.091 -0.93741,-0.0884 a 5.1757794,5.1757794 0 0 0 -5.3e-4,0 c -0.28519,-0.0155 -0.57424,-0.018 -0.58394,-0.0181 z m 8.80049,4.04368 c 0.19924,0.28878 0.29226,0.47883 0.25787,0.41393 -0.0264,-0.0498 -0.14137,-0.23383 -0.25787,-0.41393 z m -8.85114,1.13119 c 0.0782,8e-4 0.15424,-7e-5 0.35502,0.0109 0.10039,0.005 0.21169,0.007 0.53278,0.0501 0.16055,0.0215 0.35646,0.0399 0.81856,0.16226 0.23105,0.0612 0.52716,0.13829 1.03818,0.37 0.18115,0.0821 0.46619,0.25452 0.69246,0.38758 1.20879,0.51742 1.02204,0.70561 1.18081,0.84077 0.19271,0.16406 0.2694,0.2412 0.33486,0.30489 0.13093,0.1274 0.18084,0.18206 0.22996,0.2341 0.0982,0.10408 0.15835,0.17068 0.2279,0.24805 0.13909,0.15472 0.29441,0.33063 0.48679,0.55035 0.38475,0.43944 0.90429,1.0392 1.52342,1.75648 1.23826,1.43457 2.86649,3.33186 4.491713,5.23224 1.62523,1.90038 3.24543,3.80137 4.46743,5.24361 0.611,0.72112 1.12061,1.32564 1.49293,1.77147 0.18617,0.22291 0.33524,0.40221 0.46612,0.56327 0.0654,0.0805 0.12157,0.14907 0.21188,0.26613 0.0452,0.0585 0.0924,0.1175 0.20774,0.28216 0.0577,0.0823 0.12697,0.17562 0.28112,0.43615 0.0771,0.13026 0.17607,0.29158 0.33744,0.64905 0.0272,0.0601 0.06,0.30458 0.0987,0.45734 0.32349,0.74659 0.50622,1.54654 0.53898,2.35954 l 0.0336,0.83613 5.3e-4,0.003 c 0.0468,1.17889 0.002,1.12659 -0.016,2.10632 -0.0178,0.97975 -0.0452,2.289743 -0.0786,3.794613 -0.0657,2.96505 -0.15472,6.68307 -0.23977,10.05055 0,0.0512 -5.3e-4,0.10232 -0.002,0.15347 -0.0392,1.55252 -0.0749,2.89603 -0.10904,4.15892 -0.008,0.28668 -0.0165,0.65209 -0.0248,0.9524 v 0.002 5.3e-4 c -0.0289,1.03939 -0.0545,1.91286 -0.0754,2.5461 -0.0105,0.31661 -0.0199,0.56935 -0.0289,0.77824 -0.004,0.10445 -0.008,0.19088 -0.016,0.31678 -0.004,0.063 -0.007,0.12429 -0.0227,0.28629 -0.008,0.081 -0.0136,0.17171 -0.0553,0.42788 -0.0208,0.12808 -0.0417,0.28428 -0.13901,0.64854 -0.0487,0.18213 -0.1095,0.41328 -0.27802,0.82062 -0.0843,0.20367 -0.39269,0.79365 -0.39274,0.79375 -1e-5,2e-5 -0.12858,0.16734 -0.18035,0.23461 -0.29594,0.60649 -0.67602,1.17729 -1.17564,1.65054 -1.30726,1.23813 -0.78219,0.63562 -0.84698,0.67955 -0.0648,0.0439 -0.0948,0.0633 -0.12454,0.0827 -0.0594,0.0388 -0.10373,0.0674 -0.15606,0.10077 -0.10467,0.0668 -0.23068,0.14602 -0.38448,0.24288 -0.29396,0.18515 -0.69227,0.43477 -1.12964,0.70848 -0.0175,0.0115 -0.0351,0.0228 -0.0527,0.0341 -0.0724,0.0453 -0.12627,0.0787 -0.10542,0.0656 l -0.002,0.001 c -2.01609,1.26083 -4.818653,3.00038 -7.709093,4.7935 -0.8101,0.50263 -1.57738,0.98284 -2.32131,1.44333 -0.0611,0.0377 -0.12274,0.0744 -0.185,0.11007 l -0.001,5.3e-4 c -0.79346,0.49146 -1.93107,1.19929 -2.4443,1.51411 l -0.001,0.001 -0.51263,0.3142 c -2.65117,1.62635 -6.07783,1.18231 -8.22689,-1.06609 -4.2e-4,-2.6e-4 -0.002,-7.9e-4 -0.002,-0.001 -0.19237,-0.10866 -0.26474,-0.1573 -0.33073,-0.19947 -0.13197,-0.0843 -0.19319,-0.12651 -0.2589,-0.17157 -0.13142,-0.0901 -0.24759,-0.17216 -0.38964,-0.27336 -0.2841,-0.20241 -0.65026,-0.46717 -1.09605,-0.79169 -0.89159,-0.64904 -2.09017,-1.5297 -3.39876,-2.49804 -1.29441,-0.95783 -2.4947,-1.84446 -3.38326,-2.49959 -0.44428,-0.32756 -0.81108,-0.59754 -1.06919,-0.78703 -0.2581,-0.18948 -0.91505,-0.63916 -0.25941,-0.19327 -0.10743,-0.0731 -0.20308,-0.17211 -0.30696,-0.25476 -0.0491,-0.0316 -0.12706,-0.0795 -0.15658,-0.0992 -0.1092,-0.073 -0.16144,-0.10996 -0.22169,-0.15245 -0.1205,-0.085 -0.24039,-0.17152 -0.38499,-0.27646 -0.28919,-0.20989 -0.66001,-0.48282 -1.06815,-0.78549 -0.47906,-0.35526 -0.90399,-0.68497 -1.30276,-1.01802 -0.19939,-0.16653 -0.37912,-0.31656 -0.65681,-0.58498 -0.134,-0.12952 -0.29184,-0.27849 -0.58291,-0.63149 -0.66939,-0.70561 -1.26139,-1.55868 -1.56166,-2.45153 v -5.2e-4 c -0.49105,-1.4604 -0.22987,-0.87311 -0.24547,-0.9586 -0.0156,-0.0855 -0.0245,-0.1389 -0.0341,-0.19689 -0.0192,-0.11598 -0.0383,-0.23656 -0.0615,-0.38551 -0.0463,-0.29789 -0.10666,-0.69677 -0.18035,-1.18804 -0.14737,-0.98253 -0.3462,-2.32773 -0.56999,-3.85144 -0.44758,-3.04743 -0.99372,-6.80404 -1.41593,-9.73791 -0.19172,-1.33222 -0.36408,-2.53394 -0.48835,-3.41374 -0.0621,-0.43991 -0.11205,-0.7973 -0.14831,-1.06454 -0.0181,-0.13362 -0.0326,-0.24014 -0.0465,-0.351913 -0.007,-0.0559 -0.0131,-0.10513 -0.0243,-0.21343 -0.006,-0.0542 -0.0128,-0.10946 -0.0238,-0.28525 -10e-4,-0.0166 -10e-4,-0.0729 -0.003,-0.0915 -0.19167,-1.56829 0.18529,-3.15333 1.06247,-4.46743 l 1.15032,-1.72289 2.93418,-4.31343 0.678,-0.99632 9.62163,-13.02608 1.0387,-1.04645 c 0.73663,-0.31226 1.52388,-0.48806 2.32337,-0.51883 l 3.79357,-0.14521 c 1.59103,-0.0609 2.91139,-0.10427 3.66437,-0.11576 0.1286,-0.002 0.2363,-0.004 0.39275,-0.002 z m 19.272213,57.700363 c -0.12682,0.086 -0.27908,0.22667 -0.59324,0.38447 0.0626,-0.0396 0.13216,-0.0833 0.1912,-0.12092 0.0668,-0.0426 0.13189,-0.0851 0.20102,-0.13023 a 5.1757794,5.1757794 0 0 0 0.002,-5.3e-4 c 0.0125,-0.008 0.10423,-0.0682 0.19947,-0.13281 z m -29.008053,8.44703 c 0.0372,0.0225 0.0433,0.0268 0.0837,0.0506 -0.1136,-0.0638 -0.0787,-0.0466 -0.0785,-0.0465 z" />
    <path
       id="path1094-6-0"
       style="display:inline;opacity:0.99;mix-blend-mode:normal;fill:#00122d;fill-opacity:0.581532;stroke:none;stroke-width:0.311253;stroke-miterlimit:4;stroke-dasharray:none;stroke-opacity:1;filter:url(#filter989);stop-color:#000000"
       d="m 89.372397,72.984817 c -0.15644,-0.002 -0.26414,1.1e-4 -0.39274,0.002 -0.75298,0.0115 -2.07335,0.0549 -3.66437,0.11576 l -3.79357,0.14521 c -0.79949,0.0308 -1.58674,0.20657 -2.32337,0.51883 l -1.03859,1.04662 -9.62174,13.0259 -0.678,0.99633 -2.93419,4.31343 -1.15031,1.72289 c -0.87718,1.31409 -1.25414,2.89913 -1.06247,4.46743 10e-4,0.0185 0.002,0.0749 0.003,0.0915 0.011,0.1758 0.0182,0.2311 0.0238,0.28526 0.0112,0.1083 0.0173,0.15753 0.0243,0.21342 0.0139,0.111783 0.0284,0.218303 0.0465,0.351923 0.0363,0.26724 0.0862,0.62463 0.14831,1.06453 0.12427,0.87981 0.29662,2.08153 0.48834,3.41375 0.42222,2.93387 0.96836,6.69047 1.41594,9.7379 0.22379,1.52372 0.42262,2.86892 0.56999,3.85145 0.0737,0.49126 0.13403,0.89015 0.18035,1.18804 0.0232,0.14894 0.0423,0.26953 0.0615,0.38551 0.01,0.058 0.0185,0.11139 0.0341,0.19688 0.0156,0.0855 -0.24559,-0.50179 0.24546,0.9586 v 5.3e-4 c 0.30028,0.89285 0.89227,1.74592 1.56167,2.45153 0.29107,0.353 0.4489,0.50196 0.58291,0.63149 0.27769,0.26842 0.45742,0.41845 0.6568,0.58497 0.39877,0.33306 0.8237,0.66277 1.30277,1.01803 0.40813,0.30267 0.77896,0.5756 1.06815,0.78548 0.14459,0.10494 0.26449,0.19151 0.38499,0.27647 0.0602,0.0425 0.11249,0.0794 0.22169,0.15245 0.0295,0.0197 0.1075,0.0676 0.15658,0.0992 0.10388,0.0827 0.19953,0.18171 0.30696,0.25477 -0.65564,-0.4459 10e-4,0.004 0.25941,0.19327 0.25811,0.18948 0.62491,0.45947 1.06919,0.78703 0.88856,0.65513 2.08884,1.54176 3.38325,2.49959 1.3086,0.96834 2.50718,1.849 3.39876,2.49804 0.4458,0.32452 0.81195,0.58928 1.09606,0.79168 0.14205,0.1012 0.25822,0.18326 0.38964,0.27337 0.0657,0.0451 0.12693,0.0872 0.2589,0.17157 0.066,0.0422 0.13835,0.0908 0.33073,0.19947 4.2e-4,2.3e-4 0.002,7.9e-4 0.002,0.001 2.14906,2.2484 5.57572,2.69244 8.22689,1.06608 l 0.51263,-0.31419 0.001,-0.001 c 0.51323,-0.31482 1.65083,-1.02265 2.4443,-1.51412 l 10e-4,-5.3e-4 c 0.0623,-0.0357 0.12394,-0.0724 0.185,-0.11007 0.74393,-0.46049 1.51121,-0.94069 2.32131,-1.44332 2.89044,-1.79312 5.693003,-3.53267 7.709093,-4.7935 l 0.002,-0.001 c -0.0208,0.013 0.033,-0.0203 0.10542,-0.0656 0.0176,-0.0113 0.0352,-0.0226 0.0527,-0.0341 0.43736,-0.27371 0.83567,-0.52333 1.12964,-0.70848 0.1538,-0.0969 0.27981,-0.17613 0.38448,-0.24288 0.0523,-0.0334 0.0966,-0.062 0.15606,-0.10077 0.0297,-0.0194 0.0598,-0.0388 0.12454,-0.0827 0.0648,-0.0439 -0.46028,0.55858 0.84698,-0.67955 0.49962,-0.47326 0.87969,-1.04406 1.17563,-1.65054 0.0518,-0.0673 0.18035,-0.2346 0.18036,-0.23462 5e-5,-9e-5 0.30847,-0.59008 0.39274,-0.79375 0.16852,-0.40733 0.22934,-0.63849 0.27801,-0.82062 0.0974,-0.36426 0.11818,-0.52045 0.13901,-0.64854 0.0417,-0.25617 0.0473,-0.34688 0.0553,-0.42788 0.0159,-0.16199 0.0188,-0.22333 0.0227,-0.28628 0.008,-0.12591 0.0115,-0.21233 0.016,-0.31678 0.009,-0.20889 0.0185,-0.46163 0.0289,-0.77825 0.0209,-0.63323 0.0465,-1.5067 0.0755,-2.5461 v -5.2e-4 -0.002 c 0.008,-0.30031 0.017,-0.66572 0.0248,-0.9524 0.0342,-1.26289 0.0699,-2.6064 0.10904,-4.15892 0.001,-0.0511 0.002,-0.10231 0.002,-0.15348 0.0851,-3.36747 0.17406,-7.08549 0.23978,-10.05055 0.0334,-1.50486 0.0608,-2.814863 0.0786,-3.794603 0.0178,-0.97974 0.0628,-0.92743 0.016,-2.10633 l -5.3e-4,-0.003 -0.0336,-0.83613 c -0.0328,-0.813 -0.21549,-1.61295 -0.53898,-2.35955 -0.0387,-0.15276 -0.0716,-0.39719 -0.0987,-0.45733 -0.16137,-0.35747 -0.26037,-0.51879 -0.33744,-0.64906 -0.15415,-0.26053 -0.22346,-0.35382 -0.28112,-0.43615 -0.11534,-0.16465 -0.16259,-0.22362 -0.20774,-0.28215 -0.0903,-0.11706 -0.14643,-0.1856 -0.21188,-0.26613 -0.13089,-0.16107 -0.27995,-0.34036 -0.46612,-0.56328 -0.37233,-0.44583 -0.88193,-1.05035 -1.49293,-1.77146 -1.222,-1.44224 -2.84221,-3.34323 -4.46743,-5.24361 -1.625223,-1.90038 -3.253453,-3.79768 -4.491713,-5.23224 -0.61913,-0.71728 -1.13867,-1.31704 -1.52342,-1.75648 -0.19238,-0.21972 -0.3477,-0.39563 -0.4868,-0.55036 -0.0695,-0.0774 -0.12964,-0.14396 -0.22789,-0.24804 -0.0491,-0.052 -0.099,-0.1067 -0.22996,-0.2341 -0.0655,-0.0637 -0.14216,-0.14083 -0.33486,-0.30489 -0.15878,-0.13517 0.028,-0.32336 -1.18081,-0.84077 -0.22628,-0.13306 -0.51132,-0.30544 -0.69246,-0.38758 -0.51102,-0.23172 -0.80714,-0.30884 -1.03818,-0.37 -0.4621,-0.12235 -0.65801,-0.14079 -0.81856,-0.16227 -0.32109,-0.0429 -0.43239,-0.0446 -0.53278,-0.0501 -0.20078,-0.0109 -0.2768,-0.0101 -0.35502,-0.0109 z"
       sodipodi:nodetypes="sssccccccccssssssssssscccssssssccssssssssccccccccccccssssccssssssssscccccssccccsssssssssssssscssssss" />
    <g
       id="g1038"
       transform="matrix(0.27672882,0,0,0.27672882,52.554217,-22.452492)"
       style="display:inline;opacity:0.99;mix-blend-mode:normal;filter:url(#filter989)">
      <path
         style="display:inline;fill:#00ffff;fill-opacity:1;stroke:none;stroke-width:1.17639;stroke-miterlimit:4;stroke-dasharray:none;stroke-opacity:1;stop-color:#000000"
         d="M 69.650134,515.31248 C 69.391382,514.54294 58.53575,439.99546 58.6638,439.8674 c 0.07032,-0.0703 1.727646,1.38202 3.682852,3.22748 9.735297,9.18891 18.933805,16.05824 25.209741,18.82638 l 1.734613,0.76507 1.645003,6.49749 c 0.904766,3.5736 2.610328,9.96591 3.790134,14.20514 1.179823,4.2392 2.145131,7.85555 2.145131,8.03634 0,0.31988 -15.336677,17.84786 -16.212803,18.5293 -0.24159,0.18788 -2.786402,1.56213 -5.655152,3.05385 -3.641662,1.89364 -5.257333,2.58903 -5.353185,2.30403 z"
         id="path1012" />
      <path
         style="display:inline;fill:#00ccff;fill-opacity:1;stroke:none;stroke-width:1.66366;stroke-miterlimit:4;stroke-dasharray:none;stroke-opacity:1;stop-color:#000000"
         d="m 121.28159,400.16636 c -0.5027,-0.6367 -4.88106,-8.3114 -7.47312,-13.09945 -3.24789,-5.99948 -6.81361,-14.51116 -7.75397,-18.50932 l -0.26584,-1.1303 14.33885,-0.54896 c 7.88637,-0.30192 14.38772,-0.48656 14.44745,-0.41032 0.0598,0.0763 -1.00837,5.18967 -2.37356,11.36319 l -2.48218,11.22454 -2.81451,4.1817 c -4.73053,7.02839 -5.14315,7.53684 -5.62312,6.92892 z"
         id="path1014" />
      <path
         style="display:inline;fill:#00aad4;fill-opacity:1;stroke:none;stroke-width:1.66366;stroke-miterlimit:4;stroke-dasharray:none;stroke-opacity:1;stop-color:#000000"
         d="m 148.47213,444.64685 c -5.415,-14.16772 -12.80954,-29.91602 -17.11897,-36.45855 -2.48452,-3.77198 -6.19751,-7.46783 -7.50247,-7.46783 -0.72617,0 -0.2104,-0.98565 2.95235,-5.64202 l 3.83223,-5.64205 2.39525,-11.09332 c 1.3174,-6.10134 2.54651,-11.03996 2.73138,-10.9747 0.48979,0.17284 49.23543,57.17367 49.23543,57.57355 0,0.35065 -32.9826,24.04509 -34.03039,24.44716 -0.42076,0.1614 -1.15141,-1.22739 -2.49481,-4.74224 z"
         id="path1016" />
      <path
         style="display:inline;fill:#006680;fill-opacity:1;stroke:none;stroke-width:1.66366;stroke-miterlimit:4;stroke-dasharray:none;stroke-opacity:1;stop-color:#000000"
         d="m 76.373627,520.93354 c -2.970992,-2.20326 -5.366228,-4.204 -5.322732,-4.4461 0.06802,-0.37839 9.591864,-5.70797 9.642656,-5.39604 0.08926,0.54843 1.177649,13.77002 1.136278,13.80375 -0.02998,0.0244 -2.485193,-1.75835 -5.456202,-3.96161 z"
         id="path1018" />
      <path
         style="display:inline;fill:#006680;fill-opacity:1;stroke:none;stroke-width:1.66366;stroke-miterlimit:4;stroke-dasharray:none;stroke-opacity:1;stop-color:#000000"
         d="m 102.24376,539.99882 c -9.804978,-7.25549 -18.183159,-13.43386 -18.618183,-13.72972 -0.662962,-0.45087 -0.894457,-1.7709 -1.430703,-8.15808 l -0.639789,-7.62016 7.738177,-8.77648 c 4.256006,-4.82707 7.809523,-8.77649 7.896713,-8.77649 0.08729,0 0.681226,1.73319 1.32006,3.85158 4.323055,14.3352 9.433065,29.12267 13.195515,38.18547 1.90455,4.58757 6.27439,13.45138 7.90483,16.03416 1.18926,1.88391 1.32,2.24884 0.79073,2.20738 -0.18157,-0.0148 -8.35237,-5.96216 -18.15735,-13.21766 z"
         id="path1020" />
      <path
         style="display:inline;fill:#80e5ff;fill-opacity:1;stroke:none;stroke-width:1.66366;stroke-miterlimit:4;stroke-dasharray:none;stroke-opacity:1;stop-color:#000000"
         d="M 85.531719,459.88147 C 78.986705,456.3141 70.96863,450.08927 62.943966,442.34546 l -4.425888,-4.27098 23.269737,-34.85992 23.269755,-34.85991 0.56698,2.21542 c 1.31204,5.12678 6.19093,15.37886 12.25361,25.74862 3.8417,6.57092 3.79522,6.07594 1.21893,12.98527 -3.67209,9.84815 -13.47631,27.38193 -27.135923,48.52968 -1.368283,2.11837 -2.63518,3.84878 -2.815323,3.84537 -0.180143,-0.003 -1.806502,-0.81229 -3.614125,-1.79754 z"
         id="path1022" />
      <path
         style="display:inline;fill:#0088aa;fill-opacity:1;stroke:none;stroke-width:1.66366;stroke-miterlimit:4;stroke-dasharray:none;stroke-opacity:1;stop-color:#000000"
         d="m 164.71994,506.67668 -18.25681,-14.61915 2.07931,-20.24822 c 1.14362,-11.13652 2.23724,-20.49114 2.43026,-20.78807 0.19302,-0.29693 7.97705,-5.97752 17.29783,-12.62358 l 16.94688,-12.08373 0.1255,3.15975 c 0.13768,3.46648 -1.99806,91.45398 -2.22546,91.68137 -0.0774,0.0774 -8.3563,-6.43786 -18.39756,-14.47837 z"
         id="path1024" />
      <path
         style="display:inline;fill:#008080;fill-opacity:1;stroke:none;stroke-width:1.17639;stroke-miterlimit:4;stroke-dasharray:none;stroke-opacity:1;stop-color:#000000"
         d="m 125.50714,556.45767 c -3.31557,-6.49906 -1.49459,-23.23684 4.52841,-41.62344 2.68546,-8.19797 8.34037,-16.07024 15.46433,-21.52805 0.48057,-0.36818 2.56313,1.20469 18.92879,14.29597 14.91876,11.93387 18.31158,14.78279 17.97958,15.09727 -0.31159,0.29515 -42.70932,26.67166 -54.33032,33.80002 l -1.94182,1.1911 z"
         id="path1026" />
      <path
         id="path1028"
         style="display:inline;fill:#00ffff;fill-opacity:1;stroke:none;stroke-width:1.17639;stroke-miterlimit:4;stroke-dasharray:none;stroke-opacity:1;stop-color:#000000"
         d="m 123.51172,401.69141 c -0.14113,-0.0133 -0.27577,-0.01 -0.4082,0.01 -0.54574,0.0808 -0.76703,0.55935 -1.33985,2.89844 -2.39501,9.77993 -12.72795,29.0259 -29.212889,54.41016 l -2.388672,3.67578 1.742188,6.75195 c 2.350208,9.10633 5.751791,21.308 6.046875,21.69141 0.131722,0.17118 0.237675,0.52055 0.234375,0.77734 -0.01459,1.30318 6.540563,21.81126 10.078123,31.5293 5.09686,14.00157 10.74073,25.84506 14.69922,30.8457 1.07129,1.35331 1.3601,1.12876 0.83789,-0.65039 -0.19142,-0.65215 -0.42769,-2.86565 -0.52539,-4.91992 -0.35027,-7.37044 1.38485,-17.74705 5.07422,-30.34766 3.15787,-10.78529 7.33928,-17.38912 15.58398,-24.61328 l 1.92579,-1.6875 2.0996,-20.60742 2.10157,-20.60742 -2.28321,-5.84961 c -7.95756,-20.39455 -15.221,-34.86622 -20.24414,-40.33203 -1.80784,-1.96714 -3.03359,-2.88172 -4.02148,-2.97461 z m -0.38477,49.55664 h 0.82422 1.64844 7.69531 c 0,0 1.17687,0.32029 1.09961,1.87109 -0.0772,1.55081 -1.13867,1.60547 -1.13867,1.60547 h -1.92383 -1.92383 -1.92382 -1.92383 l -0.0176,1.64844 -0.0195,1.64843 -0.0195,1.64844 -0.0195,1.64844 -0.0176,1.65039 -0.0195,1.64844 -0.0195,1.64843 -0.0176,1.64844 -0.0195,1.64844 -0.0195,1.64844 -0.0195,1.65039 -0.0176,1.64844 -0.0195,1.64843 -0.0195,1.64844 -0.0195,1.64844 -0.0176,1.65039 c 0,0 -0.50933,0.81641 -1.61719,0.81641 -1.22338,0 -1.68164,-0.81641 -1.68164,-0.81641 l 0.30274,-26.38086 0.0215,-1.73828 0.01,-0.86914 c 0.003,-0.28971 0.0142,-0.45725 0.21094,-0.66211 0.1967,-0.20474 0.34819,-0.20703 0.62304,-0.20703 z m -14.61133,0.0508 h 8.10547 1.73633 0.86914 c 0.28955,0 0.44761,0.002 0.65235,0.20703 0.20482,0.20486 0.21679,0.3724 0.21679,0.66211 v 0.86914 1.73828 26.38086 c 0,0 -0.49247,0.81641 -1.78125,0.81641 -1.16707,0 -1.69336,-0.81641 -1.69336,-0.81641 v -1.64844 -1.64843 -1.6504 -1.64843 -1.64844 -1.64844 -1.64844 -1.65039 -1.64843 -1.64844 -1.64844 -1.64844 -1.64843 -1.65039 -1.64844 -1.64844 h -2.02734 -2.02539 -2.02734 -2.0254 c 0,0 -1.11904,-0.0547 -1.18164,-1.60547 -0.0626,-1.5508 1.18164,-1.87109 1.18164,-1.87109 z" />
      <path
         id="path1030"
         style="display:inline;opacity:0.357629;fill:#ffffff;fill-opacity:1;stroke:none;stroke-width:3.93913;stroke-miterlimit:4;stroke-dasharray:none;stroke-opacity:1;stop-color:#000000"
         d="m 79.496353,362.82127 a 91.783719,127.36499 0 0 0 -0.17787,0.14049 91.783719,127.36499 0 0 1 0.17787,-0.1395 z m -0.17787,0.14049 a 91.783719,127.36499 0 0 0 -0.190651,0.14987 91.783719,127.36499 0 0 0 -0.107216,0.0851 91.783719,127.36499 0 0 0 -0.319145,0.25532 91.783719,127.36499 0 0 0 -0.09964,0.08 91.783719,127.36499 0 0 0 -0.12171,0.0987 91.783719,127.36499 0 0 0 -0.303845,0.24597 91.783719,127.36499 0 0 0 -0.300419,0.24681 91.783719,127.36499 0 0 0 -0.215339,0.17787 91.783719,127.36499 0 0 0 -0.05105,0.0425 91.783719,127.36499 0 0 0 -0.346419,0.28853 91.783719,127.36499 0 0 0 -0.117427,0.0986 91.783719,127.36499 0 0 0 -0.259592,0.21788 91.783719,127.36499 0 0 0 -0.206807,0.17617 91.783719,127.36499 0 0 0 -0.225549,0.19235 91.783719,127.36499 0 0 0 -0.143778,0.12418 91.783719,127.36499 0 0 0 -0.194027,0.1668 91.783719,127.36499 0 0 0 -0.119074,0.10376 91.783719,127.36499 0 0 0 -0.371914,0.3251 91.783719,127.36499 0 0 0 -0.176174,0.15482 91.783719,127.36499 0 0 0 -0.200021,0.17617 91.783719,127.36499 0 0 0 -0.178743,0.1591 91.783719,127.36499 0 0 0 -0.249331,0.22298 91.783719,127.36499 0 0 0 -0.277462,0.25022 91.783719,127.36499 0 0 0 -0.07658,0.0698 91.783719,127.36499 0 0 0 -0.248507,0.22637 91.783719,127.36499 0 0 0 -0.22555,0.20682 91.783719,127.36499 0 0 0 -0.110674,0.10211 91.783719,127.36499 0 0 0 -0.25447,0.23405 91.783719,127.36499 0 0 0 -0.199149,0.18639 91.783719,127.36499 0 0 0 -0.210249,0.19659 91.783719,127.36499 0 0 0 -0.335318,0.31747 91.783719,127.36499 0 0 0 -0.0066,0.007 91.783719,127.36499 0 0 1 0.0066,-0.005 91.783719,127.36499 0 0 1 0.335318,-0.31744 91.783719,127.36499 0 0 1 0.210249,-0.1966 91.783719,127.36499 0 0 1 0.199149,-0.18639 91.783719,127.36499 0 0 1 0.25447,-0.23404 91.783719,127.36499 0 0 1 0.110674,-0.10211 91.783719,127.36499 0 0 1 0.22555,-0.20681 91.783719,127.36499 0 0 1 0.248507,-0.22639 91.783719,127.36499 0 0 1 0.07658,-0.0698 91.783719,127.36499 0 0 1 0.277462,-0.25022 91.783719,127.36499 0 0 1 0.249331,-0.22298 91.783719,127.36499 0 0 1 0.178743,-0.1591 91.783719,127.36499 0 0 1 0.200021,-0.17617 91.783719,127.36499 0 0 1 0.176174,-0.15481 91.783719,127.36499 0 0 1 0.371914,-0.32511 91.783719,127.36499 0 0 1 0.119074,-0.10376 91.783719,127.36499 0 0 1 0.194027,-0.16682 91.783719,127.36499 0 0 1 0.143778,-0.12418 91.783719,127.36499 0 0 1 0.225549,-0.19234 91.783719,127.36499 0 0 1 0.206807,-0.17618 91.783719,127.36499 0 0 1 0.259592,-0.21787 91.783719,127.36499 0 0 1 0.117427,-0.0988 91.783719,127.36499 0 0 1 0.346419,-0.28851 91.783719,127.36499 0 0 1 0.05105,-0.0425 91.783719,127.36499 0 0 1 0.215339,-0.17787 91.783719,127.36499 0 0 1 0.300419,-0.24683 91.783719,127.36499 0 0 1 0.303845,-0.24596 91.783719,127.36499 0 0 1 0.12171,-0.0988 91.783719,127.36499 0 0 1 0.09964,-0.08 91.783719,127.36499 0 0 1 0.319145,-0.25533 91.783719,127.36499 0 0 1 0.107216,-0.0851 91.783719,127.36499 0 0 1 0.190651,-0.15069 z m 16.396964,19.38851 -7.353368,11.01473 24.451631,29.44066 c 2.61435,-4.98047 4.62614,-9.25497 5.96356,-12.68794 z m 23.869493,28.73938 c -1.44139,3.58561 -3.46016,7.84289 -5.98483,12.66327 l 34.9344,42.06307 1.52601,-14.96885 -2.25537,-5.778 z m 29.83981,35.92847 c 0.75791,1.76637 1.23437,2.48918 1.54219,2.37111 0.0336,-0.0132 0.18703,-0.11314 0.28342,-0.1719 z m 2.61624,3.14986 c -0.6091,0.46335 -1.02907,0.79363 -1.06812,0.85364 -0.16058,0.24708 -0.95204,6.88068 -1.86983,15.47864 l 34.45524,41.4852 c 0.15069,-5.41416 0.32329,-12.07004 0.5047,-19.26087 z" />
      <path
         id="path1032"
         style="opacity:1;fill:#006680;fill-opacity:0.992157;stroke:none;stroke-width:3.789;stroke-miterlimit:4;stroke-dasharray:none;stroke-opacity:0.984314;paint-order:stroke fill markers;stop-color:#000000"
         d="m 108.51488,451.29958 c 0,0 -1.24411,0.3211 -1.1815,1.8719 0.0626,1.55081 1.1815,1.60466 1.1815,1.60466 h 2.02637 2.02636 2.02637 2.02637 v 1.6488 1.64881 1.6488 1.6488 1.64881 1.6488 1.64881 1.6488 1.6488 1.64881 1.6488 1.6488 1.64881 1.6488 1.64881 1.6488 c 0,0 0.52564,0.81688 1.69271,0.81688 1.28878,0 1.7819,-0.81688 1.7819,-0.81688 v -26.38086 -1.73828 -0.86914 c 0,-0.28971 -0.011,-0.45725 -0.21582,-0.66211 -0.20474,-0.20474 -0.36328,-0.20703 -0.65283,-0.20703 h -0.86865 -1.73731 z"
         sodipodi:nodetypes="czcccccccccccccccccccccsccssssscc" />
      <path
         id="path1034"
         style="display:inline;opacity:0.357629;fill:#ffffff;fill-opacity:1;stroke:none;stroke-width:3.93913;stroke-miterlimit:4;stroke-dasharray:none;stroke-opacity:1;stop-color:#000000"
         d="m 78.155936,408.65465 -19.637891,29.42024 4.425608,4.27073 c 8.02468,7.74381 16.04274,13.96835 22.587721,17.53572 1.807638,0.98525 3.434443,1.7942 3.614586,1.79749 0.180143,0.003 1.447105,-1.72682 2.815372,-3.84519 4.259975,-6.59531 8.144808,-12.83844 11.585788,-18.60723 z m -19.4924,31.21262 c -0.04002,0.04 1.110174,8.11695 2.556654,18.16807 l 31.676492,38.14044 c 2.254538,-2.61273 3.974559,-4.64564 3.974559,-4.75075 0,-0.18078 -0.964946,-3.79672 -2.144752,-8.03592 -1.17979,-4.23923 -2.885944,-10.63187 -3.790711,-14.20543 l -1.645151,-6.49717 -1.734514,-0.76512 c -6.27592,-2.76814 -15.473769,-9.63791 -25.20905,-18.82682 -1.955238,-1.84545 -3.613186,-3.29763 -3.683527,-3.2273 z m 45.666594,0.30214 c -3.47583,5.81147 -7.404342,12.10236 -11.780707,18.84127 l -2.387281,3.67583 1.743013,6.75079 c 2.350208,9.10632 5.751004,21.3073 6.046104,21.69071 0.131756,0.17118 0.237358,0.52195 0.234048,0.77874 -0.0082,0.78414 2.369063,8.53541 5.029033,16.69144 l 21.30348,25.65163 c 0.8573,-4.77723 2.13523,-10.09365 3.83159,-15.88715 3.15787,-10.78529 7.33863,-17.38833 15.58332,-24.61248 l 1.92686,-1.68769 0.17191,-1.68344 z m 42.23839,50.85647 -0.10557,1.0315 2.87328,2.30134 z m -49.378134,1.91238 c -0.05369,0 -1.621352,1.73183 -3.655413,4.00605 l 8.046997,9.68958 c -1.04729,-3.25738 -2.081165,-6.56031 -3.071556,-9.84447 -0.638818,-2.11839 -1.232756,-3.85116 -1.320028,-3.85116 z m 48.421524,0.32426 c -0.0456,0.005 -0.0823,0.0204 -0.11232,0.0435 -7.12398,5.45779 -12.77873,13.33016 -15.46419,21.52814 -2.31774,7.07538 -4.01072,13.90362 -5.03074,20.0013 l 12.93306,15.57226 c 11.96256,-7.40482 28.9307,-17.95498 38.21445,-23.76224 l -23.78268,-28.63561 c -4.95543,-3.8882 -6.31743,-4.80045 -6.75758,-4.74733 z m 51.5135,58.63451 a 91.783719,127.36499 0 0 1 -8.59255,13.28541 91.783719,127.36499 0 0 0 0.21705,-0.29107 91.783719,127.36499 0 0 0 0.68936,-0.94215 91.783719,127.36499 0 0 0 0.30983,-0.42979 91.783719,127.36499 0 0 0 0.0323,-0.0443 91.783719,127.36499 0 0 0 0.027,-0.0382 91.783719,127.36499 0 0 0 0.31234,-0.43916 91.783719,127.36499 0 0 0 0.28682,-0.40597 91.783719,127.36499 0 0 0 0.0519,-0.0731 91.783719,127.36499 0 0 0 0.0366,-0.0519 91.783719,127.36499 0 0 0 0.29958,-0.43066 91.783719,127.36499 0 0 0 0.33448,-0.48425 91.783719,127.36499 0 0 0 0.33279,-0.48682 91.783719,127.36499 0 0 0 0.33104,-0.48938 91.783719,127.36499 0 0 0 0.32852,-0.49192 91.783719,127.36499 0 0 0 0.6528,-0.99068 91.783719,127.36499 0 0 0 0.12253,-0.18808 91.783719,127.36499 0 0 0 0.20089,-0.31064 91.783719,127.36499 0 0 0 0.0323,-0.0511 91.783719,127.36499 0 0 0 0.28853,-0.45021 91.783719,127.36499 0 0 0 0.32002,-0.50385 91.783719,127.36499 0 0 0 0.31743,-0.50555 91.783719,127.36499 0 0 0 0.31576,-0.50894 91.783719,127.36499 0 0 0 0.31405,-0.50979 91.783719,127.36499 0 0 0 0.92937,-1.54558 91.783719,127.36499 0 0 0 0.61023,-1.04172 91.783719,127.36499 0 0 0 0.60175,-1.05023 91.783719,127.36499 0 0 0 0.29783,-0.52852 z m -8.59255,13.28541 a 91.783719,127.36499 0 0 1 -0.69873,0.92853 91.783719,127.36499 0 0 0 0.56852,-0.75234 91.783719,127.36499 0 0 0 0.13028,-0.17619 z m -0.69873,0.92853 a 91.783719,127.36499 0 0 1 -0.35148,0.46044 91.783719,127.36499 0 0 0 0.35148,-0.46044 z m -0.35148,0.46044 a 91.783719,127.36499 0 0 1 -1.4247,1.81536 91.783719,127.36499 0 0 0 0.22467,-0.28 91.783719,127.36499 0 0 0 0.31915,-0.40256 91.783719,127.36499 0 0 0 0.0392,-0.0494 91.783719,127.36499 0 0 0 0.1344,-0.17107 91.783719,127.36499 0 0 0 0.22131,-0.28256 91.783719,127.36499 0 0 0 0.13439,-0.17277 91.783719,127.36499 0 0 0 0.21957,-0.28426 91.783719,127.36499 0 0 0 0.13192,-0.17278 z m -1.4247,1.81536 a 91.783719,127.36499 0 0 1 -2.93032,3.50391 91.783719,127.36499 0 0 0 0.23321,-0.26638 91.783719,127.36499 0 0 0 0.37109,-0.43066 91.783719,127.36499 0 0 0 0.36934,-0.43319 91.783719,127.36499 0 0 0 0.3677,-0.43577 91.783719,127.36499 0 0 0 0.36594,-0.4383 91.783719,127.36499 0 0 0 0.33192,-0.40087 91.783719,127.36499 0 0 0 0.0331,-0.04 91.783719,127.36499 0 0 0 0.13702,-0.16682 91.783719,127.36499 0 0 0 0.2255,-0.2766 91.783719,127.36499 0 0 0 0.027,-0.0341 91.783719,127.36499 0 0 0 0.33366,-0.41278 91.783719,127.36499 0 0 0 0.13455,-0.16851 z m -2.93032,3.50391 a 91.783719,127.36499 0 0 1 -8.1721,8.35254 91.783719,127.36499 0 0 0 0.25278,-0.2298 91.783719,127.36499 0 0 0 0.31745,-0.29107 91.783719,127.36499 0 0 0 0.086,-0.0792 91.783719,127.36499 0 0 0 0.15234,-0.14131 91.783719,127.36499 0 0 0 0.24938,-0.23234 91.783719,127.36499 0 0 0 0.15152,-0.14213 91.783719,127.36499 0 0 0 0.24851,-0.2349 91.783719,127.36499 0 0 0 0.3992,-0.37959 91.783719,127.36499 0 0 0 0.39659,-0.38212 91.783719,127.36499 0 0 0 0.29277,-0.28512 91.783719,127.36499 0 0 0 0.10376,-0.10047 91.783719,127.36499 0 0 0 0.14888,-0.14641 91.783719,127.36499 0 0 0 0.24512,-0.24171 91.783719,127.36499 0 0 0 0.0265,-0.0263 91.783719,127.36499 0 0 0 0.36682,-0.36511 91.783719,127.36499 0 0 0 0.39066,-0.39405 91.783719,127.36499 0 0 0 0.14806,-0.14987 91.783719,127.36499 0 0 0 0.24259,-0.24683 91.783719,127.36499 0 0 0 0.046,-0.0476 91.783719,127.36499 0 0 0 0.3421,-0.35235 91.783719,127.36499 0 0 0 0.14642,-0.15152 91.783719,127.36499 0 0 0 0.24088,-0.25106 91.783719,127.36499 0 0 0 0.0443,-0.0459 91.783719,127.36499 0 0 0 0.30895,-0.32597 91.783719,127.36499 0 0 0 0.0313,-0.0333 91.783719,127.36499 0 0 0 0.14559,-0.15399 91.783719,127.36499 0 0 0 0.23831,-0.25447 91.783719,127.36499 0 0 0 0.38211,-0.41106 91.783719,127.36499 0 0 0 0.38128,-0.41363 91.783719,127.36499 0 0 0 0.35235,-0.38725 91.783719,127.36499 0 0 0 0.0265,-0.029 91.783719,127.36499 0 0 0 0.14295,-0.15827 91.783719,127.36499 0 0 0 0.23487,-0.26127 91.783719,127.36499 0 0 0 0.14213,-0.1591 91.783719,127.36499 0 0 0 0.23323,-0.26298 91.783719,127.36499 0 0 0 0.37445,-0.42468 91.783719,127.36499 0 0 0 0.13949,-0.16091 z m -8.1721,8.35254 a 91.783719,127.36499 0 0 1 -4.53285,3.86051 91.783719,127.36499 0 0 0 0.25109,-0.19915 91.783719,127.36499 0 0 0 0.0115,-0.01 91.783719,127.36499 0 0 0 0.005,-0.003 91.783719,127.36499 0 0 0 0.41279,-0.33448 91.783719,127.36499 0 0 0 0.15827,-0.12846 91.783719,127.36499 0 0 0 0.2587,-0.21191 91.783719,127.36499 0 0 0 0.0315,-0.0263 91.783719,127.36499 0 0 0 0.29532,-0.24426 91.783719,127.36499 0 0 0 0.0886,-0.0731 91.783719,127.36499 0 0 0 0.15663,-0.13109 91.783719,127.36499 0 0 0 0.25703,-0.21618 91.783719,127.36499 0 0 0 0.0222,-0.0188 91.783719,127.36499 0 0 0 0.34128,-0.28851 91.783719,127.36499 0 0 0 0.0492,-0.0425 91.783719,127.36499 0 0 0 0.0239,-0.0204 91.783719,127.36499 0 0 0 0.38727,-0.33278 91.783719,127.36499 0 0 0 0.39831,-0.34553 91.783719,127.36499 0 0 0 0.0115,-0.01 91.783719,127.36499 0 0 0 0.15481,-0.13538 91.783719,127.36499 0 0 0 0.0894,-0.0792 91.783719,127.36499 0 0 0 0.28598,-0.25192 91.783719,127.36499 0 0 0 0.0323,-0.029 91.783719,127.36499 0 0 0 0.25274,-0.22554 91.783719,127.36499 0 0 0 0.35065,-0.31491 91.783719,127.36499 0 0 0 0.0553,-0.0494 91.783719,127.36499 0 0 0 0.041,-0.0374 91.783719,127.36499 0 0 0 0.11068,-0.10129 z m -4.53285,3.86051 a 91.783719,127.36499 0 0 1 -0.41872,0.33276 91.783719,127.36499 0 0 0 0.26129,-0.20681 91.783719,127.36499 0 0 0 0.15744,-0.12599 z m -0.41958,0.33276 a 91.783719,127.36499 0 0 1 -2.33025,1.77366 v 8.8e-4 a 91.783719,127.36499 0 0 0 0.21279,-0.15663 91.783719,127.36499 0 0 0 0.10804,-0.0809 91.783719,127.36499 0 0 0 0.29958,-0.22298 91.783719,127.36499 0 0 0 0.0178,-0.0132 91.783719,127.36499 0 0 0 0.26474,-0.19916 91.783719,127.36499 0 0 0 0.15991,-0.12089 91.783719,127.36499 0 0 0 0.26381,-0.20086 91.783719,127.36499 0 0 0 0.15992,-0.12253 91.783719,127.36499 0 0 0 0.26298,-0.20342 91.783719,127.36499 0 0 0 0.4026,-0.31404 91.783719,127.36499 0 0 0 0.0188,-0.0148 91.783719,127.36499 0 0 0 0.15827,-0.12599 z" />
      <path
         id="path1036"
         style="opacity:1;fill:#006680;fill-opacity:0.992157;stroke:none;stroke-width:3.69162;stroke-miterlimit:4;stroke-dasharray:none;stroke-opacity:0.984314;paint-order:stroke fill markers;stop-color:#000000"
         d="m 133.29471,451.24805 c 0,0 1.17729,0.3211 1.10003,1.8719 -0.0772,1.55081 -1.14,1.60466 -1.14,1.60466 h -1.92355 -1.92354 -1.92355 -1.92355 l -0.019,1.6488 -0.019,1.64881 -0.019,1.6488 -0.019,1.6488 -0.019,1.64881 -0.019,1.6488 -0.019,1.64881 -0.019,1.6488 -0.019,1.6488 -0.019,1.64881 -0.019,1.6488 -0.019,1.6488 -0.019,1.64881 -0.019,1.6488 -0.019,1.64881 -0.019,1.6488 c 0,0 -0.50835,0.81688 -1.61621,0.81688 -1.22338,0 -1.68209,-0.81688 -1.68209,-0.81688 l 0.30329,-26.38086 0.02,-1.73828 0.01,-0.86914 c 0.003,-0.28971 0.0157,-0.45725 0.21248,-0.66211 0.1967,-0.20474 0.34723,-0.20703 0.62208,-0.20703 h 0.82458 1.64915 z"
         sodipodi:nodetypes="czcccccccccccccccccccccsccssssscc" />
    </g>
  </g>
</svg>
