<?xml version="1.0" encoding="UTF-8" standalone="no"?>
<svg
   xmlns:sketch="http://www.bohemiancoding.com/sketch/ns"
   xmlns:osb="http://www.openswatchbook.org/uri/2009/osb"
   xmlns:dc="http://purl.org/dc/elements/1.1/"
   xmlns:cc="http://creativecommons.org/ns#"
   xmlns:rdf="http://www.w3.org/1999/02/22-rdf-syntax-ns#"
   xmlns:svg="http://www.w3.org/2000/svg"
   xmlns="http://www.w3.org/2000/svg"
   xmlns:xlink="http://www.w3.org/1999/xlink"
   xmlns:sodipodi="http://sodipodi.sourceforge.net/DTD/sodipodi-0.dtd"
   xmlns:inkscape="http://www.inkscape.org/namespaces/inkscape"
   width="270px"
   height="270px"
   viewBox="0 0 270 270"
   version="1.1"
   id="svg18"
   sodipodi:docname="logo.svg"
   inkscape:version="1.0.2 (1.0.2+r75+1)">
  <metadata
     id="metadata22">
    <rdf:RDF>
      <cc:Work
         rdf:about="">
        <dc:format>image/svg+xml</dc:format>
        <dc:type
           rdf:resource="http://purl.org/dc/dcmitype/StillImage" />
        <dc:title>Logo Copy</dc:title>
      </cc:Work>
    </rdf:RDF>
  </metadata>
  <sodipodi:namedview
     pagecolor="#ffffff"
     bordercolor="#666666"
     borderopacity="1"
     objecttolerance="10"
     gridtolerance="10"
     guidetolerance="10"
     inkscape:pageopacity="0"
     inkscape:pageshadow="2"
     inkscape:window-width="1360"
     inkscape:window-height="705"
     id="namedview20"
     showgrid="false"
     inkscape:zoom="1.2518518"
     inkscape:cx="140.58891"
     inkscape:cy="162.93997"
     inkscape:window-x="0"
     inkscape:window-y="30"
     inkscape:window-maximized="1"
     inkscape:current-layer="layer1"
     inkscape:document-rotation="0" />
  <!-- Generator: Sketch 3.3.3 (12072) - http://www.bohemiancoding.com/sketch -->
  <title
     id="title2">Logo Copy</title>
  <desc
     id="desc4">Created with Sketch.</desc>
  <defs
     id="defs11">
    <linearGradient
       id="linearGradient4181"
       osb:paint="solid">
      <stop
         style="stop-color:#00ccff;stop-opacity:1;"
         offset="0"
         id="stop4179" />
    </linearGradient>
    <linearGradient
       id="linearGradient4173"
       osb:paint="solid">
      <stop
         style="stop-color:#00ccff;stop-opacity:1;"
         offset="0"
         id="stop4171" />
    </linearGradient>
    <linearGradient
       x1="0%"
       y1="0%"
       x2="101.999998%"
       y2="100.999999%"
       id="linearGradient2136">
      <stop
         stop-color="#FFCF55"
         offset="0%"
         id="stop2132"
         style="stop-color:#008080;stop-opacity:0.99215686" />
      <stop
         stop-color="#4CF2FF"
         offset="100%"
         id="stop2134"
         style="stop-opacity:0.99215686;stop-color:#55cfef" />
    </linearGradient>
    <linearGradient
       x1="0%"
       y1="0%"
       x2="101.999998%"
       y2="100.999999%"
       id="linearGradient-1">
      <stop
         stop-color="#FFCF55"
         offset="0%"
         id="stop6" />
      <stop
         stop-color="#4CF2FF"
         offset="100%"
         id="stop8" />
    </linearGradient>
    <linearGradient
       inkscape:collect="always"
       xlink:href="#linearGradient-1"
       id="linearGradient1848"
       x1="365.69312"
       y1="0"
       x2="640.52686"
       y2="272.13928"
       gradientTransform="scale(1.0008392,0.99916153)"
       gradientUnits="userSpaceOnUse" />
    <linearGradient
       inkscape:collect="always"
       xlink:href="#linearGradient-1"
       id="linearGradient1975"
       gradientUnits="userSpaceOnUse"
       gradientTransform="scale(1.0008392,0.99916153)"
       x1="365.69312"
       y1="0"
       x2="640.52686"
       y2="272.13928" />
    <filter
       inkscape:collect="always"
       style="color-interpolation-filters:sRGB"
       id="filter1999"
       x="-4.3163793e-05"
       width="1.0000863"
       y="-4.3236267e-05"
       height="1.0000865">
      <feGaussianBlur
         inkscape:collect="always"
         stdDeviation="0.004850009"
         id="feGaussianBlur2001" />
    </filter>
    <filter
       inkscape:collect="always"
       style="color-interpolation-filters:sRGB"
       id="filter989"
       x="-4.2494623e-05"
       width="1.000085"
       y="-4.392919e-05"
       height="1.0000879">
      <feGaussianBlur
         inkscape:collect="always"
         stdDeviation="0.020355019"
         id="feGaussianBlur991" />
    </filter>
    <linearGradient
       inkscape:collect="always"
       xlink:href="#linearGradient-1"
       id="linearGradient1007"
       x1="280.27829"
       y1="-63.382984"
       x2="-28.381657"
       y2="-416.98856"
       gradientUnits="userSpaceOnUse"
       gradientTransform="matrix(0.94914981,0,0,0.94914981,80.43695,410.69251)" />
  </defs>
  <g
     inkscape:groupmode="layer"
     id="layer1"
     inkscape:label="Topacio"
     style="display:inline;opacity:0.99;mix-blend-mode:normal;filter:url(#filter989)">
    <g
       id="g51"
       transform="translate(339.11832)">
      <path
         id="path1094-6-0"
         style="display:inline;fill:#006580;fill-opacity:0.331025;stroke:none;stroke-width:1.11657;stroke-miterlimit:4;stroke-dasharray:none;stroke-opacity:1;stop-color:#000000"
         d="m 145.99705,20.557406 c -0.5612,-0.0057 -0.94757,3.89e-4 -1.40888,0.0076 -2.70121,0.04119 -7.43781,0.19675 -13.14535,0.415253 L 117.834,21.501181 c -2.86804,0.110376 -5.69217,0.74103 -8.33472,1.861216 l -3.72578,3.75459 -34.51643,46.728315 -2.43219,3.574147 -10.52593,15.473733 -4.12657,6.180596 c -3.14673,4.714112 -4.49902,10.400182 -3.81143,16.026182 0.004,0.0665 0.006,0.26874 0.009,0.32812 0.0394,0.63064 0.0652,0.82903 0.0853,1.02331 0.0401,0.38852 0.0621,0.56514 0.0871,0.76562 0.05,0.40097 0.1018,0.7831 0.16684,1.26244 0.13007,0.95868 0.30915,2.24076 0.53204,3.81885 0.44578,3.15616 1.06409,7.46713 1.75185,12.24626 1.51462,10.52477 3.47383,24.00098 5.07944,34.93316 0.8028,5.46608 1.51608,10.29176 2.04475,13.81642 0.26433,1.76234 0.4808,3.19328 0.64698,4.26192 0.0831,0.53431 0.15175,0.96687 0.2206,1.38294 0.0344,0.20802 0.0664,0.39958 0.12235,0.70629 0.0559,0.30671 -0.881,-1.80009 0.88056,3.43882 v 0.002 c 1.07718,3.20295 3.20087,6.26319 5.60221,8.79446 1.04416,1.26635 1.61038,1.80071 2.09109,2.26536 0.99619,0.96291 1.64093,1.50112 2.35619,2.09852 1.43053,1.19477 2.9549,2.37754 4.67345,3.65199 1.46413,1.08579 2.7944,2.06488 3.83183,2.8178 0.51871,0.37646 0.94882,0.68698 1.38108,0.99178 0.21613,0.1524 0.40354,0.28496 0.79529,0.54688 0.10588,0.0708 0.38565,0.24261 0.5617,0.35592 0.37265,0.29649 0.7158,0.65186 1.10116,0.91393 -2.35198,-1.59958 0.005,0.0135 0.93061,0.69333 0.92591,0.67974 2.24175,1.64827 3.83553,2.82335 3.18756,2.35016 7.4934,5.53079 12.13688,8.96687 4.69437,3.47374 8.99407,6.63297 12.1925,8.96131 1.5992,1.16416 2.91274,2.11395 3.93193,2.84003 0.50958,0.36304 0.92631,0.65742 1.39776,0.98067 0.23574,0.16162 0.45534,0.31291 0.92876,0.61546 0.23672,0.15127 0.49633,0.32576 1.18644,0.71557 0.002,8.4e-4 0.005,0.003 0.007,0.004 7.70941,8.06577 20.00198,9.65871 29.51263,3.82441 l 1.83898,-1.12711 0.004,-0.004 c 1.84111,-1.12938 5.92209,-3.6686 8.76852,-5.43166 l 0.004,-0.002 c 0.22336,-0.12801 0.44461,-0.25964 0.66367,-0.39486 2.66873,-1.65193 5.42122,-3.3746 8.3273,-5.17769 10.369,-6.43253 20.42272,-12.67289 27.65512,-17.19593 l 0.005,-0.004 c -0.0748,0.0468 0.11853,-0.0729 0.37818,-0.23544 0.0632,-0.0405 0.12625,-0.0812 0.18909,-0.12235 1.56898,-0.98189 2.99786,-1.87737 4.05242,-2.54157 0.55171,-0.34748 1.00377,-0.63184 1.37924,-0.87128 0.18774,-0.11973 0.34671,-0.22244 0.55985,-0.3615 0.10657,-0.0696 0.21434,-0.13902 0.44676,-0.29661 0.23244,-0.15759 -1.65119,2.00384 3.0384,-2.43776 1.79231,-1.69773 3.15577,-3.74538 4.2174,-5.92106 0.18572,-0.24131 0.64695,-0.84156 0.64699,-0.84163 2e-4,-3.5e-4 1.10662,-2.11683 1.40889,-2.84745 0.60456,-1.46125 0.82275,-2.29049 0.99736,-2.94384 0.3492,-1.30673 0.42394,-1.86704 0.49867,-2.32653 0.14945,-0.91898 0.16981,-1.24439 0.19836,-1.53496 0.057,-0.58112 0.0675,-0.80119 0.0815,-1.027 0.0281,-0.45166 0.0413,-0.76171 0.0575,-1.13639 0.0323,-0.74937 0.0663,-1.65603 0.10383,-2.79184 0.0751,-2.27161 0.16691,-5.40506 0.27064,-9.13371 v -0.002 -0.005 c 0.0299,-1.0773 0.0611,-2.38816 0.0889,-3.41657 0.12263,-4.53041 0.25065,-9.35004 0.39116,-14.91945 0.004,-0.18349 0.005,-0.36704 0.005,-0.55059 0.30512,-12.08025 0.62442,-25.41805 0.86018,-36.05471 0.11965,-5.39845 0.21792,-10.09785 0.28177,-13.61251 0.0639,-3.51466 0.22545,-3.32701 0.0574,-7.55612 l -0.002,-0.0111 -0.1205,-2.99947 c -0.11753,-2.916528 -0.77305,-5.786216 -1.93351,-8.464499 -0.13901,-0.54801 -0.25669,-1.424882 -0.35409,-1.640614 -0.57889,-1.282368 -0.93405,-1.861084 -1.21053,-2.328389 -0.55297,-0.934598 -0.8016,-1.269278 -1.00848,-1.564616 -0.41374,-0.590665 -0.58325,-0.802203 -0.74523,-1.012173 -0.32395,-0.419951 -0.52528,-0.66582 -0.76006,-0.954711 -0.46954,-0.577795 -1.0043,-1.220978 -1.67214,-2.020655 -1.33566,-1.599336 -3.16378,-3.767954 -5.35564,-6.354852 -4.38374,-5.173797 -10.19596,-11.993286 -16.02617,-18.810593 -5.83023,-6.817306 -11.67124,-13.623545 -16.1133,-18.769807 -2.22104,-2.573135 -4.08479,-4.724668 -5.46504,-6.301092 -0.69011,-0.788212 -1.2473,-1.419264 -1.74629,-1.974307 -0.24949,-0.277523 -0.46509,-0.516452 -0.81753,-0.889829 -0.17622,-0.186689 -0.35527,-0.382754 -0.82494,-0.839779 -0.23482,-0.228508 -0.50995,-0.505214 -1.20125,-1.093743 -0.56959,-0.484892 0.10033,-1.159994 -4.23596,-3.016143 -0.81174,-0.477326 -1.83426,-1.095698 -2.48411,-1.390362 -1.83321,-0.831246 -2.89546,-1.107904 -3.7243,-1.327318 -1.65769,-0.438897 -2.36048,-0.505053 -2.93643,-0.582105 -1.15188,-0.154094 -1.55115,-0.160206 -1.91127,-0.179816 -0.72025,-0.0392 -0.99297,-0.03616 -1.27358,-0.03892 z"
         sodipodi:nodetypes="sssccccccccssssssssssscccssssssccssssssssccccccccccccssssccssssssssscccccssccccsssssssssssssscssssss" />
      <path
         id="path999"
         style="display:inline;fill:url(#linearGradient1007);fill-opacity:1;stroke:none;stroke-width:1.11657;stroke-miterlimit:4;stroke-dasharray:none;stroke-opacity:1;stop-color:#000000"
         d="m 146.1767,2.0427334 c -0.77463,-0.00759 -1.41634,1.803e-4 -1.87976,0.00759 -3.08294,0.047078 -7.8052,0.2076834 -13.56617,0.4282374 l -13.6088,0.520912 a 18.567269,18.567269 0 0 0 -0.004,0 c -5.11558,0.1968733 -10.15419,1.3203153 -14.86755,3.318323 A 18.567269,18.567269 0 0 0 96.31986,10.333146 L 92.59371,14.0871 a 18.567269,18.567269 0 0 0 -1.75556,2.048465 L 56.3221,62.864507 a 18.567269,18.567269 0 0 0 -0.41711,0.585805 l -2.4322,3.574137 a 18.567269,18.567269 0 0 0 -0.002,0.0019 L 42.94487,82.500086 a 18.567269,18.567269 0 0 0 -0.089,0.133468 l -4.12658,6.180598 a 18.567269,18.567269 0 0 0 -0.002,0.0019 c -5.39724,8.085589 -7.82495,17.786118 -6.911,27.441928 0.0122,0.19597 0.007,0.13058 0.0222,0.37447 a 18.567269,18.567269 0 0 0 0,0.002 c 0.0558,0.89341 0.16138,1.91517 0.14645,1.77038 0.0526,0.5096 0.10707,0.9617 0.13162,1.15864 0.0658,0.52796 0.12773,0.9812 0.1928,1.4608 0.13882,1.02318 0.32183,2.3275 0.54687,3.9208 0.45085,3.19203 1.0689,7.51011 1.75741,12.29445 1.51788,10.54741 3.47987,24.03093 5.0887,34.98508 0.80427,5.47603 1.51815,10.31166 2.05217,13.87204 0.26123,1.74164 0.47389,3.15398 0.64883,4.28044 0.0424,2.34588 0.32736,3.07534 0.46346,3.65942 0.16969,0.72827 0.30043,1.1772 0.4412,1.65361 0.23915,0.80927 0.54926,1.74992 0.91764,2.85486 a 18.567269,18.567269 0 0 0 0.16313,0.50609 18.567269,18.567269 0 0 0 0,0.002 c 2.23447,6.64407 5.78643,11.40302 9.47296,15.33657 1.25615,1.43485 2.61808,2.86897 2.91419,3.15518 1.38869,1.34229 2.64409,2.40198 3.35725,2.9976 1.78408,1.49009 3.60306,2.89637 5.51693,4.31566 1.49666,1.10992 2.86206,2.11538 3.98569,2.93088 0.53936,0.39146 1.04141,0.75548 1.58686,1.14009 0.0167,0.0117 0.0765,0.0527 0.0964,0.0667 0.16132,0.14202 0.30786,0.275 0.3689,0.32442 0.3881,0.31411 0.48314,0.37799 0.58024,0.45047 0.19421,0.14495 0.24689,0.18092 0.30218,0.2206 0.22115,0.15874 0.26854,0.19113 0.38188,0.27066 0.45336,0.3181 1.31655,0.93032 1.36996,0.96954 0.90829,0.66681 2.21874,1.63092 3.80587,2.80111 3.17551,2.34128 7.47519,5.51614 12.11093,8.94648 4.72519,3.49656 9.05117,6.67666 12.30928,9.04843 1.62549,1.1833 2.97477,2.15974 4.0858,2.95127 0.54238,0.38639 1.07299,0.76082 1.67213,1.17159 0.21399,0.14673 0.78438,0.53517 1.42929,0.94731 -0.007,-0.004 0.39572,0.23509 0.50238,0.30217 13.75635,12.07748 34.07982,14.12904 49.90267,4.42689 l 1.83897,-1.12712 a 18.567269,18.567269 0 0 0 0.0111,-0.007 c 0.0281,-0.0171 0.0954,-0.06 0.12421,-0.0778 a 18.567269,18.567269 0 0 0 0.16498,-0.10192 c 2.03876,-1.25284 5.77358,-3.57771 8.49415,-5.26295 0.0165,-0.0106 0.0355,-0.0214 0.0519,-0.0315 0.21465,-0.12729 0.43097,-0.25083 0.64327,-0.38187 a 18.567269,18.567269 0 0 0 0.0204,-0.013 c 2.72211,-1.68497 5.47538,-3.40828 8.34213,-5.18696 10.28762,-6.38205 20.22124,-12.54816 27.48827,-17.09211 0.096,-0.0582 0.099,-0.0613 0.11679,-0.0723 0.0573,-0.0353 0.0777,-0.0482 0.10752,-0.0667 a 18.567269,18.567269 0 0 0 0.0259,-0.0167 c 0.004,-0.003 0.0139,-0.008 0.0185,-0.0111 0.0884,-0.055 0.20362,-0.126 0.34295,-0.21318 a 18.567269,18.567269 0 0 0 0.1724,-0.10937 c 0.0545,-0.0349 0.1231,-0.0784 0.18538,-0.11864 1.22684,-0.76786 2.27115,-1.42398 3.21451,-2.01695 4.56864,-1.38798 3.88973,-2.18531 4.49919,-2.64724 0.71698,-0.54343 1.10659,-0.88456 1.53125,-1.25503 0.8493,-0.74092 1.71507,-1.54297 2.98277,-2.74363 2.92221,-2.76801 4.94419,-5.74744 6.61439,-8.6647 0.0467,-0.0607 0.0965,-0.12365 0.12977,-0.16684 0.0465,-0.0605 0.0741,-0.0982 0.0741,-0.0982 a 18.567269,18.567269 0 0 0 1.42558,-2.14855 c 1e-4,-1.8e-4 0.62941,-1.18163 1.00477,-1.92241 0.37536,-0.74077 0.62338,-1.08258 1.41259,-2.99019 0.9498,-2.29576 1.61872,-4.65278 1.77781,-5.24813 0.52036,-1.94721 0.88225,-4.10436 0.88797,-4.13956 0.21803,-1.3407 0.36974,-2.89814 0.35036,-2.70099 a 18.567269,18.567269 0 0 0 0,-0.002 c 0.08,-0.81484 0.13036,-1.6366 0.13349,-1.68696 0.0384,-0.61637 0.06,-1.11945 0.076,-1.49047 0.0358,-0.8328 0.0722,-1.79799 0.11121,-2.97721 0.0772,-2.33538 0.17021,-5.48599 0.27437,-9.23011 a 18.567269,18.567269 0 0 0 0,-0.01 v -0.0148 c 0.0314,-1.13252 0.0626,-2.44071 0.0889,-3.41472 0.1228,-4.53701 0.25214,-9.3691 0.39301,-14.95281 a 18.567269,18.567269 0 0 0 0.002,-0.0853 c 0.003,-0.1596 0.002,-0.31014 0.004,-0.46531 5.6e-4,-0.0218 9.5e-4,-0.0431 0.002,-0.0649 0.30508,-12.08098 0.62237,-25.40228 0.85833,-36.0473 0.11995,-5.41193 0.21895,-10.12659 0.28362,-13.68666 0.0533,-2.93384 0.23224,-3.95215 0.0463,-8.63133 a 18.567269,18.567269 0 0 0 -0.20392,-2.10593 l 0.15572,0.92877 -0.0741,-1.840838 a 18.567269,18.567269 0 0 0 0,-0.0021 c -0.16725,-4.14988 -0.95644,-8.244218 -2.3154,-12.157269 0.224,0.0086 0.51972,-0.141157 -1.6017,-4.840294 -0.88867,-1.968593 -2.00498,-3.891191 -2.15413,-4.143266 -0.80577,-1.361887 -1.80172,-2.79369 -1.77965,-2.762168 -0.5858,-0.836286 -1.23381,-1.674851 -1.25318,-1.699947 h 0.002 c -0.45565,-0.590664 -0.84303,-1.065288 -1.05297,-1.323617 -0.56775,-0.698641 -1.14787,-1.395156 -1.8297,-2.211595 -1.38544,-1.658924 -3.23227,-3.850075 -5.44093,-6.45681 -4.41443,-5.210007 -10.23803,-12.042338 -16.0818,-18.875476 -5.84402,-6.833462 -11.69634,-13.653093 -16.1689,-18.834692 -2.23297,-2.586964 -4.11141,-4.755933 -5.55031,-6.399348 -0.71739,-0.819354 -1.32495,-1.507924 -1.90756,-2.155975 -0.26265,-0.292157 -0.65143,-0.721638 -1.12341,-1.22166 -0.0316,-0.03351 -0.69786,-0.738438 -1.37923,-1.401476 -0.0177,-0.01718 -0.45669,-0.411096 -0.61362,-0.559856 -0.30934,-0.382384 -0.55766,-0.779652 -0.88798,-1.121554 -2.89316,-2.994767 -5.489,-4.3162018 -8.19382,-5.5187843 -0.6033,-0.3914481 -1.12022,-0.8222582 -3.50555,-1.903861 C 160.62877,4.5210665 157.635,3.6642031 156.86718,3.4609522 154.40064,2.8078989 151.63408,2.423702 151.6413,2.4246797 149.99451,2.2043725 148.10388,2.0981626 148.27849,2.1076731 a 18.567269,18.567269 0 0 0 -0.002,0 c -1.02309,-0.055715 -2.06001,-0.064542 -2.0948,-0.064922 z M 177.74706,16.54878 c 0.71472,1.035969 1.04843,1.717752 0.92505,1.484907 -0.0947,-0.178772 -0.50714,-0.83883 -0.92505,-1.484907 z m -31.75204,4.057985 c 0.28061,0.0029 0.55332,-2.65e-4 1.27358,0.03892 0.36012,0.01965 0.75939,0.02572 1.91127,0.179816 0.57594,0.07707 1.27874,0.143207 2.93643,0.582104 0.82884,0.219406 1.8911,0.496073 3.7243,1.32732 0.64984,0.294663 1.67237,0.913035 2.48409,1.390362 4.33634,1.856148 3.66639,2.531249 4.23597,3.016142 0.69131,0.58853 0.96644,0.865235 1.20126,1.093742 0.46967,0.457026 0.64873,0.653092 0.82494,0.83978 0.35244,0.373377 0.56805,0.612306 0.81754,0.889828 0.49898,0.555044 1.05617,1.186096 1.74628,1.974307 1.38025,1.576425 3.24399,3.727957 5.46504,6.301093 4.44206,5.146262 10.28308,11.952501 16.1133,18.769807 5.83021,6.817306 11.64243,13.636796 16.02617,18.810592 2.19186,2.586899 4.01999,4.755516 5.35564,6.354853 0.66784,0.799678 1.20259,1.442859 1.67215,2.020654 0.23477,0.288893 0.4361,0.534761 0.76005,0.954711 0.16198,0.209972 0.3315,0.421509 0.74524,1.012174 0.20688,0.295338 0.4555,0.630018 1.00846,1.564617 0.2765,0.467304 0.63165,1.046019 1.21054,2.328387 0.0974,0.215733 0.21508,1.092605 0.35409,1.640615 1.16046,2.678283 1.81598,5.547971 1.93351,8.464491 l 0.1205,2.99946 0.002,0.0111 c 0.16802,4.2291 0.006,4.04146 -0.0574,7.55611 -0.0639,3.51466 -0.16213,8.21406 -0.28178,13.61252 -0.23577,10.63665 -0.55506,23.97446 -0.86017,36.05471 0,0.18355 -0.002,0.36708 -0.005,0.55059 -0.1405,5.56941 -0.26854,10.38903 -0.39116,14.91945 -0.0278,1.0284 -0.059,2.33926 -0.0889,3.41657 v 0.005 0.002 c -0.10372,3.72865 -0.19556,6.8621 -0.27064,9.13371 -0.0376,1.1358 -0.0716,2.04247 -0.10383,2.79183 -0.0162,0.37469 -0.0294,0.68473 -0.0575,1.13639 -0.0141,0.22582 -0.0245,0.44588 -0.0815,1.02701 -0.0285,0.29056 -0.0488,0.61598 -0.19836,1.53496 -0.0747,0.45948 -0.14948,1.0198 -0.49868,2.32652 -0.17459,0.65336 -0.3928,1.48259 -0.99735,2.94384 -0.30227,0.73063 -1.40868,2.8471 -1.40888,2.84745 -5e-5,8e-5 -0.46127,0.60032 -0.64699,0.84164 -1.06163,2.17568 -2.4251,4.22333 -4.21741,5.92105 -4.68958,4.4416 -2.80596,2.28018 -3.0384,2.43776 -0.23242,0.15759 -0.34019,0.22705 -0.44677,0.29662 -0.21313,0.13905 -0.37211,0.24177 -0.55983,0.36148 -0.37548,0.23946 -0.82754,0.52382 -1.37924,0.8713 -1.05457,0.6642 -2.48345,1.55968 -4.05243,2.54156 -0.0628,0.0411 -0.12588,0.0818 -0.18909,0.12236 -0.25965,0.16245 -0.45297,0.28223 -0.37818,0.23544 l -0.005,0.004 c -7.23239,4.52304 -17.28611,10.7634 -27.65511,17.19593 -2.90608,1.80309 -5.65856,3.52574 -8.3273,5.17768 -0.21907,0.13522 -0.44031,0.26686 -0.66366,0.39486 l -0.004,0.002 c -2.84643,1.76305 -6.92741,4.30228 -8.76852,5.43165 l -0.004,0.004 -1.83898,1.1271 c -9.51064,5.83431 -21.80322,4.24137 -29.51262,-3.82441 -0.002,-9.4e-4 -0.005,-0.003 -0.007,-0.004 -0.69011,-0.38981 -0.94974,-0.5643 -1.18645,-0.71556 -0.47341,-0.30255 -0.69301,-0.45386 -0.92874,-0.61547 -0.47147,-0.32324 -0.88819,-0.61762 -1.39778,-0.98067 -1.01918,-0.72607 -2.33272,-1.67586 -3.93193,-2.84003 -3.19841,-2.32833 -7.49812,-5.48755 -12.19249,-8.96132 -4.64349,-3.43606 -8.94933,-6.61669 -12.13689,-8.96686 -1.59378,-1.17509 -2.90962,-2.14361 -3.83553,-2.82334 -0.92591,-0.67976 -3.28259,-2.29291 -0.93061,-0.69333 -0.38537,-0.26209 -0.72851,-0.61744 -1.10116,-0.91393 -0.17605,-0.11331 -0.45582,-0.28513 -0.5617,-0.35594 -0.39175,-0.2619 -0.57916,-0.39447 -0.79529,-0.54686 -0.43226,-0.30481 -0.86237,-0.61532 -1.38109,-0.99178 -1.03742,-0.75294 -2.36769,-1.73202 -3.83182,-2.8178 -1.71855,-1.27445 -3.24292,-2.45722 -4.67345,-3.65201 -0.71526,-0.59738 -1.36,-1.13559 -2.35619,-2.09851 -0.48071,-0.46464 -1.04693,-0.99902 -2.09109,-2.26535 -2.40134,-2.53127 -4.52503,-5.59152 -5.60221,-8.79446 v -0.002 c -1.76156,-5.23892 -0.82462,-3.13211 -0.88056,-3.43882 -0.0559,-0.30671 -0.0879,-0.49828 -0.12235,-0.7063 -0.0688,-0.41606 -0.13752,-0.84863 -0.22061,-1.38294 -0.16617,-1.06864 -0.38264,-2.49957 -0.64697,-4.26191 -0.52867,-3.52466 -1.24195,-8.35035 -2.04475,-13.81644 -1.60561,-10.93216 -3.56482,-24.40838 -5.07944,-34.93314 -0.68776,-4.77913 -1.30607,-9.0901 -1.75185,-12.24627 -0.22289,-1.57809 -0.40197,-2.86017 -0.53204,-3.81884 -0.065,-0.47935 -0.11687,-0.86147 -0.16684,-1.26244 -0.025,-0.2005 -0.0471,-0.37711 -0.0871,-0.76562 -0.02,-0.19428 -0.0459,-0.39267 -0.0853,-1.02331 -0.004,-0.0594 -0.005,-0.26159 -0.009,-0.32812 -0.68759,-5.626 0.6647,-11.31207 3.81142,-16.026181 l 4.12658,-6.180591 10.52593,-15.473733 2.43219,-3.574147 34.51606,-46.728941 3.72617,-3.753963 c 2.64254,-1.120187 5.46666,-1.75084 8.33471,-1.861217 l 13.60881,-0.520921 c 5.70756,-0.218505 10.44416,-0.37406 13.14536,-0.415253 0.4613,-0.0076 0.84769,-0.0131 1.40889,-0.0076 z m 69.13594,206.990665 c -0.45495,0.30845 -1.00117,0.81315 -2.12819,1.37923 0.22475,-0.14189 0.47412,-0.29871 0.68591,-0.43378 0.23978,-0.15292 0.47313,-0.30535 0.72114,-0.46717 a 18.567269,18.567269 0 0 0 0.005,-0.002 c 0.0449,-0.0293 0.37393,-0.2448 0.71557,-0.47644 z m -104.06168,30.30234 c 0.13334,0.0806 0.15533,0.096 0.30031,0.18169 -0.4075,-0.22874 -0.28225,-0.16715 -0.28177,-0.16684 z" />
    </g>
    <g
       id="g904"
       transform="translate(-382.10234,7.5729608)">
      <path
         style="display:inline;fill:#00ffff;fill-opacity:1;stroke:none;stroke-width:1.16783;stroke-miterlimit:4;stroke-dasharray:none;stroke-opacity:1;stop-color:#000000"
         d="m 83.675165,188.36089 c -0.256869,-0.76394 -11.033469,-74.7687 -10.906351,-74.89582 0.06981,-0.0698 1.715068,1.37195 3.65604,3.20398 9.664421,9.12201 18.795962,15.94133 25.026206,18.68932 l 1.72199,0.7595 1.63302,6.45018 c 0.89818,3.54759 2.59133,9.89336 3.76254,14.10173 1.17124,4.20834 2.12952,7.79836 2.12952,7.97783 0,0.31755 -15.225024,17.71792 -16.094772,18.3944 -0.239831,0.18652 -2.766116,1.55076 -5.613981,3.03162 -3.61515,1.87985 -5.219058,2.57018 -5.314212,2.28726 z"
         id="path1012" />
      <path
         style="display:inline;fill:#00ccff;fill-opacity:1;stroke:none;stroke-width:1.65155;stroke-miterlimit:4;stroke-dasharray:none;stroke-opacity:1;stop-color:#000000"
         d="m 134.93073,74.053059 c -0.49904,-0.632065 -4.84552,-8.250891 -7.41871,-13.004083 -3.22425,-5.955802 -6.76401,-14.405515 -7.69752,-18.374567 l -0.26391,-1.122072 14.23446,-0.544963 c 7.82896,-0.299722 14.28298,-0.483018 14.34227,-0.407333 0.0594,0.07575 -1.00103,5.151888 -2.35628,11.280463 l -2.46411,11.142823 -2.79402,4.151256 c -4.69609,6.977222 -5.1057,7.48197 -5.58218,6.878476 z"
         id="path1014" />
      <path
         style="display:inline;fill:#00aad4;fill-opacity:1;stroke:none;stroke-width:1.65155;stroke-miterlimit:4;stroke-dasharray:none;stroke-opacity:1;stop-color:#000000"
         d="m 161.92332,118.20972 c -5.37558,-14.06458 -12.71629,-29.698224 -16.99434,-36.193123 -2.46643,-3.744519 -6.15239,-7.413462 -7.44785,-7.413462 -0.72089,0 -0.20887,-0.978474 2.93085,-5.600945 l 3.80433,-5.600974 2.37782,-11.012558 c 1.3078,-6.056921 2.52797,-10.959587 2.71149,-10.894802 0.48622,0.171582 48.87698,56.757432 48.87698,57.154401 0,0.348097 -32.74247,23.870033 -33.78264,24.269183 -0.41769,0.16022 -1.14302,-1.21846 -2.47664,-4.70772 z"
         id="path1016" />
      <path
         style="display:inline;fill:#006680;fill-opacity:1;stroke:none;stroke-width:1.65155;stroke-miterlimit:4;stroke-dasharray:none;stroke-opacity:1;stop-color:#000000"
         d="m 90.349709,193.94102 c -2.949363,-2.18722 -5.327161,-4.17339 -5.283981,-4.41373 0.06753,-0.37563 9.522033,-5.66641 9.572455,-5.35675 0.08861,0.54443 1.169075,13.66977 1.128005,13.70325 -0.02976,0.0242 -2.4671,-1.74555 -5.416479,-3.93277 z"
         id="path1018" />
      <path
         style="display:inline;fill:#006680;fill-opacity:1;stroke:none;stroke-width:1.65155;stroke-miterlimit:4;stroke-dasharray:none;stroke-opacity:1;stop-color:#000000"
         d="m 116.0315,212.8675 c -9.73359,-7.20266 -18.05078,-13.33605 -18.482637,-13.62976 -0.658136,-0.44759 -0.887945,-1.75801 -1.420287,-8.09869 l -0.635131,-7.56468 7.681845,-8.71259 c 4.22502,-4.79192 7.75266,-8.71259 7.83922,-8.71259 0.0866,0 0.67627,1.72057 1.31045,3.82354 4.29158,14.23083 9.36439,28.91065 13.09945,37.90747 1.89068,4.55417 6.22871,13.35345 7.84728,15.91743 1.1806,1.87019 1.31039,2.23246 0.78497,2.19131 -0.18025,-0.0147 -8.29156,-5.91876 -18.02516,-13.12144 z"
         id="path1020" />
      <path
         style="display:inline;fill:#80e5ff;fill-opacity:1;stroke:none;stroke-width:1.65155;stroke-miterlimit:4;stroke-dasharray:none;stroke-opacity:1;stop-color:#000000"
         d="m 99.441128,133.33343 c -6.497365,-3.5414 -14.457066,-9.72091 -22.423309,-17.40835 l -4.393666,-4.23988 23.100327,-34.606133 23.10035,-34.606121 0.56285,2.199291 c 1.30249,5.089456 6.14586,15.266898 12.1644,25.561164 3.81373,6.523082 3.76759,6.031705 1.21005,12.890734 -3.64535,9.776453 -13.37819,27.182585 -26.93836,48.176375 -1.35832,2.10294 -2.616,3.82076 -2.79483,3.81737 -0.17883,-0.003 -1.79335,-0.80637 -3.587812,-1.78445 z"
         id="path1022" />
      <path
         style="display:inline;fill:#0088aa;fill-opacity:1;stroke:none;stroke-width:1.65155;stroke-miterlimit:4;stroke-dasharray:none;stroke-opacity:1;stop-color:#000000"
         d="m 178.05284,179.78796 -18.1239,-14.51272 2.06417,-20.10081 c 1.1353,-11.05544 2.22096,-20.34196 2.41257,-20.63673 0.19162,-0.29477 7.91898,-5.934 17.1719,-12.53167 l 16.8235,-11.99576 0.12459,3.13674 c 0.13668,3.44125 -1.98352,90.78818 -2.20926,91.01391 -0.0768,0.0768 -8.29546,-6.39099 -18.26362,-14.37296 z"
         id="path1024" />
      <path
         style="display:inline;fill:#008080;fill-opacity:1;stroke:none;stroke-width:1.16783;stroke-miterlimit:4;stroke-dasharray:none;stroke-opacity:1;stop-color:#000000"
         d="m 139.12552,229.20653 c -3.29143,-6.45175 -1.48371,-23.06767 4.49544,-41.32041 2.66591,-8.13829 8.27965,-15.95325 15.35175,-21.37132 0.47707,-0.3655 2.54447,1.19592 18.79098,14.19189 14.81015,11.84699 18.17827,14.67517 17.84868,14.98736 -0.30932,0.293 -42.39838,26.47748 -53.93478,33.55394 l -1.92768,1.18243 z"
         id="path1026" />
      <path
         id="path1028"
         style="display:inline;fill:#00ffff;fill-opacity:1;stroke:none;stroke-width:1.16783;stroke-miterlimit:4;stroke-dasharray:none;stroke-opacity:1;stop-color:#000000"
         d="m 137.14462,75.567006 c -0.1401,-0.0132 -0.27376,-0.0099 -0.40522,0.0099 -0.54177,0.08021 -0.76145,0.555278 -1.3301,2.877339 -2.37757,9.70873 -12.63529,28.814585 -29.00021,54.014035 l -2.37128,3.64902 1.7295,6.7028 c 2.3331,9.04003 5.70992,21.15287 6.00285,21.53349 0.13077,0.16993 0.23595,0.51676 0.23267,0.77168 -0.0145,1.29369 6.49295,21.65247 10.00475,31.29976 5.05976,13.89963 10.66254,25.6569 14.59221,30.62113 1.06349,1.34346 1.3502,1.12054 0.83179,-0.64565 -0.19003,-0.64741 -0.42458,-2.84479 -0.52156,-4.8841 -0.34772,-7.31679 1.37476,-17.61785 5.03727,-30.12673 3.13488,-10.70677 7.28585,-17.26252 15.47053,-24.43409 l 1.91177,-1.67521 2.08431,-20.45739 2.08627,-20.4574 -2.26658,-5.80702 C 153.33396,98.312529 146.1234,83.946216 141.13683,78.520198 c -1.79468,-1.952818 -3.01151,-2.86074 -3.99221,-2.952954 z m -0.38196,49.195854 h 0.81822 1.63643 7.63929 c 0,0 1.1683,0.31796 1.09161,1.85747 -0.0766,1.53952 -1.13038,1.59378 -1.13038,1.59378 h -1.90983 -1.90982 -1.90982 -1.90982 l -0.0175,1.63644 -0.0194,1.63643 -0.0194,1.63644 -0.0194,1.63644 -0.0175,1.63837 -0.0194,1.63644 -0.0194,1.63643 -0.0175,1.63644 -0.0194,1.63644 -0.0194,1.63644 -0.0194,1.63837 -0.0175,1.63644 -0.0194,1.63643 -0.0194,1.63644 -0.0194,1.63644 -0.0175,1.63837 c 0,0 -0.50562,0.81047 -1.60542,0.81047 -1.21447,0 -1.66939,-0.81047 -1.66939,-0.81047 l 0.30053,-26.1888 0.0213,-1.72562 0.01,-0.86282 c 0.003,-0.2876 0.0141,-0.45392 0.20941,-0.65729 0.19527,-0.20325 0.34565,-0.20552 0.6185,-0.20552 z m -14.50496,0.0504 h 8.04646 1.72369 0.86281 c 0.28744,0 0.44435,0.002 0.6476,0.20552 0.20333,0.20337 0.21521,0.36969 0.21521,0.65729 v 0.86282 1.72562 26.1888 c 0,0 -0.48888,0.81047 -1.76828,0.81047 -1.15857,0 -1.68103,-0.81047 -1.68103,-0.81047 v -1.63644 -1.63643 -1.63838 -1.63643 -1.63644 -1.63644 -1.63644 -1.63837 -1.63643 -1.63644 -1.63644 -1.63644 -1.63643 -1.63837 -1.63644 -1.63644 h -2.01258 -2.01064 -2.01259 -2.01065 c 0,0 -1.11089,-0.0543 -1.17304,-1.59378 -0.0621,-1.53951 1.17304,-1.85747 1.17304,-1.85747 z" />
      <path
         id="path1030"
         style="display:inline;opacity:0.357629;fill:#ffffff;fill-opacity:1;stroke:none;stroke-width:3.91045;stroke-miterlimit:4;stroke-dasharray:none;stroke-opacity:1;stop-color:#000000"
         d="m 93.449701,36.97985 a 91.115511,126.43774 0 0 0 -0.176575,0.139468 91.115511,126.43774 0 0 1 0.176575,-0.138485 z m -0.176575,0.139468 a 91.115511,126.43774 0 0 0 -0.189263,0.148779 91.115511,126.43774 0 0 0 -0.106436,0.08448 91.115511,126.43774 0 0 0 -0.316821,0.253461 91.115511,126.43774 0 0 0 -0.09892,0.07942 91.115511,126.43774 0 0 0 -0.120824,0.09798 91.115511,126.43774 0 0 0 -0.301633,0.24418 91.115511,126.43774 0 0 0 -0.298232,0.245013 91.115511,126.43774 0 0 0 -0.213771,0.176575 91.115511,126.43774 0 0 0 -0.05068,0.04219 91.115511,126.43774 0 0 0 -0.343897,0.28643 91.115511,126.43774 0 0 0 -0.116572,0.09788 91.115511,126.43774 0 0 0 -0.257703,0.216294 91.115511,126.43774 0 0 0 -0.205301,0.174887 91.115511,126.43774 0 0 0 -0.223907,0.19095 91.115511,126.43774 0 0 0 -0.142731,0.123276 91.115511,126.43774 0 0 0 -0.192615,0.165585 91.115511,126.43774 0 0 0 -0.118207,0.103005 91.115511,126.43774 0 0 0 -0.369206,0.322733 91.115511,126.43774 0 0 0 -0.174891,0.153693 91.115511,126.43774 0 0 0 -0.198565,0.174887 91.115511,126.43774 0 0 0 -0.177442,0.157942 91.115511,126.43774 0 0 0 -0.247516,0.221357 91.115511,126.43774 0 0 0 -0.275442,0.248398 91.115511,126.43774 0 0 0 -0.07602,0.06929 91.115511,126.43774 0 0 0 -0.246698,0.224722 91.115511,126.43774 0 0 0 -0.223908,0.205314 91.115511,126.43774 0 0 0 -0.109868,0.101367 91.115511,126.43774 0 0 0 -0.252618,0.232346 91.115511,126.43774 0 0 0 -0.197699,0.185033 91.115511,126.43774 0 0 0 -0.208718,0.195159 91.115511,126.43774 0 0 0 -0.332877,0.315159 91.115511,126.43774 0 0 0 -0.0066,0.0069 91.115511,126.43774 0 0 1 0.0066,-0.005 91.115511,126.43774 0 0 1 0.332877,-0.315129 91.115511,126.43774 0 0 1 0.208718,-0.195169 91.115511,126.43774 0 0 1 0.197699,-0.185033 91.115511,126.43774 0 0 1 0.252618,-0.232336 91.115511,126.43774 0 0 1 0.109868,-0.101366 91.115511,126.43774 0 0 1 0.223908,-0.205305 91.115511,126.43774 0 0 1 0.246698,-0.224742 91.115511,126.43774 0 0 1 0.07602,-0.06929 91.115511,126.43774 0 0 1 0.275442,-0.248398 91.115511,126.43774 0 0 1 0.247516,-0.221357 91.115511,126.43774 0 0 1 0.177442,-0.157941 91.115511,126.43774 0 0 1 0.198565,-0.174888 91.115511,126.43774 0 0 1 0.174891,-0.153683 91.115511,126.43774 0 0 1 0.369206,-0.322743 91.115511,126.43774 0 0 1 0.118207,-0.103004 91.115511,126.43774 0 0 1 0.192615,-0.165606 91.115511,126.43774 0 0 1 0.142731,-0.123276 91.115511,126.43774 0 0 1 0.223907,-0.190939 91.115511,126.43774 0 0 1 0.205301,-0.174898 91.115511,126.43774 0 0 1 0.257703,-0.216284 91.115511,126.43774 0 0 1 0.116572,-0.09808 91.115511,126.43774 0 0 1 0.343897,-0.28641 91.115511,126.43774 0 0 1 0.05068,-0.04219 91.115511,126.43774 0 0 1 0.213771,-0.176575 91.115511,126.43774 0 0 1 0.298232,-0.245033 91.115511,126.43774 0 0 1 0.301633,-0.244169 91.115511,126.43774 0 0 1 0.120824,-0.09808 91.115511,126.43774 0 0 1 0.09892,-0.07942 91.115511,126.43774 0 0 1 0.316821,-0.253471 91.115511,126.43774 0 0 1 0.106436,-0.08448 91.115511,126.43774 0 0 1 0.189263,-0.149593 z m 16.277594,19.247356 -7.29984,10.93454 24.27362,29.226325 c 2.59532,-4.944211 4.59246,-9.187591 5.92014,-12.595569 z m 23.69571,28.530151 c -1.43089,3.559505 -3.43497,7.785791 -5.94126,12.571078 l 34.68007,41.756837 1.5149,-14.85987 -2.23895,-5.73593 z M 162.869,120.56373 c 0.75239,1.75351 1.22538,2.47105 1.53096,2.35384 0.0334,-0.0131 0.18567,-0.11231 0.28136,-0.17064 z m 2.59719,3.12692 c -0.60466,0.45998 -1.02157,0.78786 -1.06034,0.84743 -0.15941,0.24528 -0.94511,6.83059 -1.85622,15.36595 l 34.2044,41.18318 c 0.14959,-5.37474 0.32094,-11.98217 0.50103,-19.12065 z" />
      <path
         id="path1032"
         style="fill:#006680;fill-opacity:0.992157;stroke:none;stroke-width:3.76142;stroke-miterlimit:4;stroke-dasharray:none;stroke-opacity:0.984314;paint-order:stroke fill markers;stop-color:#000000"
         d="m 122.25697,124.81402 c 0,0 -1.23506,0.31876 -1.1729,1.85827 0.0621,1.53952 1.1729,1.59298 1.1729,1.59298 h 2.01161 2.01161 2.01162 2.01162 v 1.63679 1.63681 1.63679 1.6368 1.63681 1.63679 1.63681 1.6368 1.63679 1.63681 1.6368 1.63679 1.63681 1.63679 1.63681 1.6368 c 0,0 0.52181,0.81093 1.68038,0.81093 1.2794,0 1.76893,-0.81093 1.76893,-0.81093 v -26.1888 -1.72563 -0.86281 c 0,-0.2876 -0.0109,-0.45392 -0.21425,-0.65729 -0.20325,-0.20325 -0.36063,-0.20552 -0.64808,-0.20552 h -0.86232 -1.72466 z"
         sodipodi:nodetypes="czcccccccccccccccccccccsccssssscc" />
      <path
         id="path1034"
         style="display:inline;opacity:0.357629;fill:#ffffff;fill-opacity:1;stroke:none;stroke-width:3.91045;stroke-miterlimit:4;stroke-dasharray:none;stroke-opacity:1;stop-color:#000000"
         d="M 92.119141,82.480469 72.625,111.68555 l 4.392578,4.24023 c 7.966259,7.68744 15.926496,13.8668 22.423828,17.4082 1.794474,0.97808 3.409054,1.77995 3.587894,1.78321 0.17883,0.003 1.43662,-1.71347 2.79492,-3.81641 4.22896,-6.5473 8.08602,-12.74587 11.50195,-18.47266 z M 72.767578,113.46484 c -0.03973,0.0397 1.103113,8.05721 2.539063,18.03516 l 31.445309,37.86328 c 2.23813,-2.59371 3.94532,-4.61245 3.94532,-4.7168 0,-0.17946 -0.9577,-3.76823 -2.12891,-7.97656 -1.1712,-4.20837 -2.86354,-10.55402 -3.76172,-14.10156 l -1.63476,-6.45117 -1.72071,-0.75781 c -6.230222,-2.74799 -15.360983,-9.5694 -25.025389,-18.69141 -1.941004,-1.83201 -3.588374,-3.27295 -3.658203,-3.20313 z m 45.335942,0.30078 c -3.45052,5.76916 -7.35081,12.01328 -11.69532,18.70313 l -2.37109,3.64844 1.73047,6.70312 c 2.3331,9.04002 5.709,21.15063 6.00195,21.53125 0.1308,0.16993 0.23571,0.51852 0.23242,0.77344 -0.008,0.77843 2.35159,8.47366 4.99219,16.57031 l 21.14844,25.46485 c 0.85106,-4.74245 2.12068,-10.02017 3.80469,-15.77149 3.13488,-10.70677 7.28409,-17.26204 15.46875,-24.43359 l 1.91406,-1.67578 0.16992,-1.66992 -20.44531,-24.61719 -0.008,0.67969 -0.0195,1.63671 -0.0195,1.63672 -0.0176,1.63672 -0.0195,1.63672 -0.0195,1.63672 -0.0176,1.63672 -0.0195,1.63672 -0.0195,1.63671 -0.0176,1.63672 c 0,0 -0.50568,0.81055 -1.60547,0.81055 -1.21448,0 -1.66992,-0.81055 -1.66992,-0.81055 l 0.22266,-19.30078 -2.07227,-2.49414 v 21.8457 c 0,0 -0.48817,0.8125 -1.76757,0.8125 -1.15857,10e-6 -1.68165,-0.8125 -1.68165,-0.8125 v -1.63671 -1.63672 -1.63672 -1.63672 -1.63672 -1.63672 -1.63672 -1.63671 -1.63672 -1.63672 -1.63672 -1.63672 -1.63672 -1.63672 -1.63672 -1.44726 l -0.15625,-0.18946 h -1.85546 -2.01172 -2.00977 -2.01172 c 0,0 -1.11173,-0.0542 -1.17383,-1.59374 -0.0622,-1.53952 1.17383,-1.85743 1.17383,-1.85743 h 5.02149 z m 41.92968,50.48633 -0.10351,1.02344 2.85156,2.28516 z m -49.01758,1.89844 c -0.0533,0 -1.60965,1.7189 -3.6289,3.97656 l 7.98828,9.61914 c -1.03967,-3.23367 -2.06564,-6.51318 -3.04883,-9.77343 -0.63416,-2.10297 -1.22391,-3.82227 -1.31055,-3.82227 z m 48.06836,0.32031 c -0.0453,0.005 -0.0815,0.022 -0.11132,0.0449 -7.07212,5.41805 -12.68566,13.2328 -15.35157,21.3711 -2.30087,7.02387 -3.98155,13.80219 -4.99414,19.85547 l 12.83789,15.45898 c 11.87547,-7.35091 28.72134,-17.82486 37.9375,-23.58984 l -23.60937,-28.42774 c -4.91935,-3.85989 -6.27204,-4.76563 -6.70899,-4.71289 z m 50.2461,59.77735 a 91.115511,126.43774 0 0 1 -0.47266,0.80664 91.115511,126.43774 0 0 0 0.47266,-0.80664 z m -0.47266,0.80664 a 91.115511,126.43774 0 0 1 -0.46484,0.78125 91.115511,126.43774 0 0 0 0.33203,-0.55274 91.115511,126.43774 0 0 0 0.13281,-0.22851 z m -0.93359,1.55664 a 91.115511,126.43774 0 0 1 -0.47266,0.77148 91.115511,126.43774 0 0 0 0.0391,-0.0605 91.115511,126.43774 0 0 0 0.31055,-0.50586 91.115511,126.43774 0 0 0 0.12305,-0.20508 z m -0.47266,0.77148 a 91.115511,126.43774 0 0 1 -0.47656,0.76563 91.115511,126.43774 0 0 0 0.20117,-0.32032 91.115511,126.43774 0 0 0 0.27539,-0.44531 z m -0.47656,0.76563 a 91.115511,126.43774 0 0 1 -0.43164,0.68164 91.115511,126.43774 0 0 0 0.31836,-0.5 91.115511,126.43774 0 0 0 0.11328,-0.18164 z m -1.48438,2.30273 a 91.115511,126.43774 0 0 1 -0.4707,0.70703 91.115511,126.43774 0 0 0 0.23633,-0.35156 91.115511,126.43774 0 0 0 0.23437,-0.35547 z m -0.4707,0.70703 a 91.115511,126.43774 0 0 1 -1.00195,1.47266 91.115511,126.43774 0 0 0 0.2539,-0.36719 91.115511,126.43774 0 0 0 0.33008,-0.48242 91.115511,126.43774 0 0 0 0.32813,-0.48633 91.115511,126.43774 0 0 0 0.0898,-0.13672 z m -1.50976,2.19922 a 91.115511,126.43774 0 0 1 -0.91797,1.28516 91.115511,126.43774 0 0 0 0.30859,-0.42578 91.115511,126.43774 0 0 0 0.0312,-0.043 91.115511,126.43774 0 0 0 0.0273,-0.0391 91.115511,126.43774 0 0 0 0.31055,-0.43555 91.115511,126.43774 0 0 0 0.24024,-0.3418 z m -2.85938,3.88867 a 91.115511,126.43774 0 0 1 -1.04492,1.33789 91.115511,126.43774 0 0 0 0.16992,-0.21289 91.115511,126.43774 0 0 0 0.0391,-0.0488 91.115511,126.43774 0 0 0 0.13282,-0.16993 91.115511,126.43774 0 0 0 0.2207,-0.28125 91.115511,126.43774 0 0 0 0.13281,-0.16992 91.115511,126.43774 0 0 0 0.21875,-0.2832 91.115511,126.43774 0 0 0 0.13086,-0.17188 z m -1.07422,1.375 a 91.115511,126.43774 0 0 1 -0.33984,0.42774 91.115511,126.43774 0 0 0 0.22265,-0.27735 91.115511,126.43774 0 0 0 0.11719,-0.15039 z m -0.33984,0.42774 h -0.002 a 91.115511,126.43774 0 0 1 -0.0859,0.10937 91.115511,126.43774 0 0 0 0.0879,-0.10937 z m -0.47461,0.58594 a 91.115511,126.43774 0 0 1 -0.0703,0.0879 91.115511,126.43774 0 0 0 0.0527,-0.0625 91.115511,126.43774 0 0 0 0.0176,-0.0254 z m -1.72852,2.07421 a 91.115511,126.43774 0 0 1 -0.55859,0.64844 91.115511,126.43774 0 0 0 0.084,-0.0937 91.115511,126.43774 0 0 0 0.36719,-0.42773 91.115511,126.43774 0 0 0 0.10742,-0.12696 z m -0.70703,0.81836 a 91.115511,126.43774 0 0 1 -0.50976,0.58008 91.115511,126.43774 0 0 0 0.37109,-0.41992 91.115511,126.43774 0 0 0 0.13867,-0.16016 z m -1.2832,1.44532 a 91.115511,126.43774 0 0 1 -0.57422,0.62695 91.115511,126.43774 0 0 0 0.22461,-0.24219 91.115511,126.43774 0 0 0 0.34961,-0.38476 z m -0.99805,1.08398 a 91.115511,126.43774 0 0 1 -1.16015,1.22461 91.115511,126.43774 0 0 0 0.0488,-0.0488 91.115511,126.43774 0 0 0 0.23829,-0.24804 91.115511,126.43774 0 0 0 0.0449,-0.0469 91.115511,126.43774 0 0 0 0.30664,-0.32227 91.115511,126.43774 0 0 0 0.0312,-0.0332 91.115511,126.43774 0 0 0 0.14453,-0.1543 91.115511,126.43774 0 0 0 0.23633,-0.25195 91.115511,126.43774 0 0 0 0.10937,-0.11914 z m -1.59765,1.67578 a 91.115511,126.43774 0 0 1 -0.58985,0.59766 91.115511,126.43774 0 0 0 0.15625,-0.15625 91.115511,126.43774 0 0 0 0.14844,-0.14844 91.115511,126.43774 0 0 0 0.24023,-0.24414 91.115511,126.43774 0 0 0 0.0449,-0.0488 z m -1.45508,1.46094 a 91.115511,126.43774 0 0 1 -0.47461,0.46289 91.115511,126.43774 0 0 0 0.22461,-0.2168 91.115511,126.43774 0 0 0 0.10351,-0.0996 91.115511,126.43774 0 0 0 0.14649,-0.14648 z m -0.47461,0.46289 a 91.115511,126.43774 0 0 1 -0.59961,0.57617 91.115511,126.43774 0 0 0 0.13867,-0.13086 91.115511,126.43774 0 0 0 0.39453,-0.3789 91.115511,126.43774 0 0 0 0.0664,-0.0664 z m -0.59961,0.57617 a 91.115511,126.43774 0 0 1 -0.60352,0.57031 91.115511,126.43774 0 0 0 0.0996,-0.0918 91.115511,126.43774 0 0 0 0.24805,-0.23242 91.115511,126.43774 0 0 0 0.25586,-0.2461 z m -1.81445,1.6875 a 91.115511,126.43774 0 0 1 -0.0957,0.0859 91.115511,126.43774 0 0 0 0.0566,-0.0488 91.115511,126.43774 0 0 0 0.0391,-0.0371 z m -0.44336,0.39844 a 91.115511,126.43774 0 0 1 -0.28321,0.25195 91.115511,126.43774 0 0 0 0.0332,-0.0273 91.115511,126.43774 0 0 0 0.25,-0.22461 z m -1.29297,1.13281 a 91.115511,126.43774 0 0 1 -0.6211,0.53125 91.115511,126.43774 0 0 0 0.24219,-0.20312 91.115511,126.43774 0 0 0 0.0488,-0.041 91.115511,126.43774 0 0 0 0.0234,-0.0215 91.115511,126.43774 0 0 0 0.30664,-0.26563 z m -0.9961,0.84766 a 91.115511,126.43774 0 0 1 -0.24414,0.20312 91.115511,126.43774 0 0 0 0.0899,-0.0723 91.115511,126.43774 0 0 0 0.15429,-0.13086 z m -0.98242,0.81055 a 91.115511,126.43774 0 0 1 -0.41406,0.33398 91.115511,126.43774 0 0 0 0.006,-0.002 91.115511,126.43774 0 0 0 0.4082,-0.33203 z m -1.09179,0.87109 a 91.115511,126.43774 0 0 1 -0.15821,0.125 91.115511,126.43774 0 0 0 0.15821,-0.12305 z m -2.10157,1.60742 a 91.115511,126.43774 0 0 1 -0.21093,0.1543 v 0.002 a 91.115511,126.43774 0 0 0 0.21093,-0.15625 z" />
      <path
         id="path1036"
         style="fill:#006680;fill-opacity:0.992157;stroke:none;stroke-width:3.66474;stroke-miterlimit:4;stroke-dasharray:none;stroke-opacity:0.984314;paint-order:stroke fill markers;stop-color:#000000"
         d="m 146.85639,124.76286 c 0,0 1.16872,0.31876 1.09202,1.85827 -0.0766,1.53952 -1.1317,1.59298 -1.1317,1.59298 h -1.90954 -1.90954 -1.90955 -1.90954 l -0.0189,1.6368 -0.0189,1.6368 -0.0189,1.6368 -0.0189,1.6368 -0.0189,1.6368 -0.0189,1.6368 -0.0189,1.63681 -0.0189,1.63679 -0.0189,1.6368 -0.0189,1.6368 -0.0189,1.6368 -0.0189,1.6368 -0.0189,1.6368 -0.0189,1.6368 -0.0189,1.63681 -0.0189,1.63679 c 0,0 -0.50465,0.81093 -1.60444,0.81093 -1.21448,0 -1.66985,-0.81093 -1.66985,-0.81093 l 0.30109,-26.1888 0.0198,-1.72562 0.01,-0.86282 c 0.003,-0.2876 0.0156,-0.45392 0.21093,-0.65729 0.19527,-0.20325 0.3447,-0.20552 0.61755,-0.20552 h 0.81858 1.63714 z"
         sodipodi:nodetypes="czcccccccccccccccccccccsccssssscc" />
    </g>
    <path
       style="opacity:0.958663;fill:#000000;fill-opacity:0.984314;stroke:none;stroke-width:0.756679;stroke-miterlimit:4;stroke-dasharray:none;stroke-opacity:0.992157;paint-order:stroke fill markers;stop-color:#000000"
       d=""
       id="path4397" />
    <g
       id="g79"
       transform="matrix(1.4102024,0,0,1.4102024,-63.806268,-55.799253)">
      <path
         style="display:inline;fill:#00ffff;fill-opacity:1;stroke:none;stroke-width:1.16783;stroke-miterlimit:4;stroke-dasharray:none;stroke-opacity:1;stop-color:#000000"
         d="m 83.675165,188.36089 c -0.256869,-0.76394 -11.033469,-74.7687 -10.906351,-74.89582 0.06981,-0.0698 1.715068,1.37195 3.65604,3.20398 9.664421,9.12201 18.795962,15.94133 25.026206,18.68932 l 1.72199,0.7595 1.63302,6.45018 c 0.89818,3.54759 2.59133,9.89336 3.76254,14.10173 1.17124,4.20834 2.12952,7.79836 2.12952,7.97783 0,0.31755 -15.225024,17.71792 -16.094772,18.3944 -0.239831,0.18652 -2.766116,1.55076 -5.613981,3.03162 -3.61515,1.87985 -5.219058,2.57018 -5.314212,2.28726 z"
         id="path53" />
      <path
         style="display:inline;fill:#00ccff;fill-opacity:1;stroke:none;stroke-width:1.65155;stroke-miterlimit:4;stroke-dasharray:none;stroke-opacity:1;stop-color:#000000"
         d="m 134.93073,74.053059 c -0.49904,-0.632065 -4.84552,-8.250891 -7.41871,-13.004083 -3.22425,-5.955802 -6.76401,-14.405515 -7.69752,-18.374567 l -0.26391,-1.122072 14.23446,-0.544963 c 7.82896,-0.299722 14.28298,-0.483018 14.34227,-0.407333 0.0594,0.07575 -1.00103,5.151888 -2.35628,11.280463 l -2.46411,11.142823 -2.79402,4.151256 c -4.69609,6.977222 -5.1057,7.48197 -5.58218,6.878476 z"
         id="path55" />
      <path
         style="display:inline;fill:#00aad4;fill-opacity:1;stroke:none;stroke-width:1.65155;stroke-miterlimit:4;stroke-dasharray:none;stroke-opacity:1;stop-color:#000000"
         d="m 161.92332,118.20972 c -5.37558,-14.06458 -12.71629,-29.698224 -16.99434,-36.193123 -2.46643,-3.744519 -6.15239,-7.413462 -7.44785,-7.413462 -0.72089,0 -0.20887,-0.978474 2.93085,-5.600945 l 3.80433,-5.600974 2.37782,-11.012558 c 1.3078,-6.056921 2.52797,-10.959587 2.71149,-10.894802 0.48622,0.171582 48.87698,56.757432 48.87698,57.154401 0,0.348097 -32.74247,23.870033 -33.78264,24.269183 -0.41769,0.16022 -1.14302,-1.21846 -2.47664,-4.70772 z"
         id="path57" />
      <path
         style="display:inline;fill:#006680;fill-opacity:1;stroke:none;stroke-width:1.65155;stroke-miterlimit:4;stroke-dasharray:none;stroke-opacity:1;stop-color:#000000"
         d="m 90.349709,193.94102 c -2.949363,-2.18722 -5.327161,-4.17339 -5.283981,-4.41373 0.06753,-0.37563 9.522033,-5.66641 9.572455,-5.35675 0.08861,0.54443 1.169075,13.66977 1.128005,13.70325 -0.02976,0.0242 -2.4671,-1.74555 -5.416479,-3.93277 z"
         id="path59" />
      <path
         style="display:inline;fill:#006680;fill-opacity:1;stroke:none;stroke-width:1.65155;stroke-miterlimit:4;stroke-dasharray:none;stroke-opacity:1;stop-color:#000000"
         d="m 116.0315,212.8675 c -9.73359,-7.20266 -18.05078,-13.33605 -18.482637,-13.62976 -0.658136,-0.44759 -0.887945,-1.75801 -1.420287,-8.09869 l -0.635131,-7.56468 7.681845,-8.71259 c 4.22502,-4.79192 7.75266,-8.71259 7.83922,-8.71259 0.0866,0 0.67627,1.72057 1.31045,3.82354 4.29158,14.23083 9.36439,28.91065 13.09945,37.90747 1.89068,4.55417 6.22871,13.35345 7.84728,15.91743 1.1806,1.87019 1.31039,2.23246 0.78497,2.19131 -0.18025,-0.0147 -8.29156,-5.91876 -18.02516,-13.12144 z"
         id="path61" />
      <path
         style="display:inline;fill:#80e5ff;fill-opacity:1;stroke:none;stroke-width:1.65155;stroke-miterlimit:4;stroke-dasharray:none;stroke-opacity:1;stop-color:#000000"
         d="m 99.441128,133.33343 c -6.497365,-3.5414 -14.457066,-9.72091 -22.423309,-17.40835 l -4.393666,-4.23988 23.100327,-34.606133 23.10035,-34.606121 0.56285,2.199291 c 1.30249,5.089456 6.14586,15.266898 12.1644,25.561164 3.81373,6.523082 3.76759,6.031705 1.21005,12.890734 -3.64535,9.776453 -13.37819,27.182585 -26.93836,48.176375 -1.35832,2.10294 -2.616,3.82076 -2.79483,3.81737 -0.17883,-0.003 -1.79335,-0.80637 -3.587812,-1.78445 z"
         id="path63" />
      <path
         style="display:inline;fill:#0088aa;fill-opacity:1;stroke:none;stroke-width:1.65155;stroke-miterlimit:4;stroke-dasharray:none;stroke-opacity:1;stop-color:#000000"
         d="m 178.05284,179.78796 -18.1239,-14.51272 2.06417,-20.10081 c 1.1353,-11.05544 2.22096,-20.34196 2.41257,-20.63673 0.19162,-0.29477 7.91898,-5.934 17.1719,-12.53167 l 16.8235,-11.99576 0.12459,3.13674 c 0.13668,3.44125 -1.98352,90.78818 -2.20926,91.01391 -0.0768,0.0768 -8.29546,-6.39099 -18.26362,-14.37296 z"
         id="path65" />
      <path
         style="display:inline;fill:#008080;fill-opacity:1;stroke:none;stroke-width:1.16783;stroke-miterlimit:4;stroke-dasharray:none;stroke-opacity:1;stop-color:#000000"
         d="m 139.12552,229.20653 c -3.29143,-6.45175 -1.48371,-23.06767 4.49544,-41.32041 2.66591,-8.13829 8.27965,-15.95325 15.35175,-21.37132 0.47707,-0.3655 2.54447,1.19592 18.79098,14.19189 14.81015,11.84699 18.17827,14.67517 17.84868,14.98736 -0.30932,0.293 -42.39838,26.47748 -53.93478,33.55394 l -1.92768,1.18243 z"
         id="path67" />
      <path
         id="path69"
         style="display:inline;fill:#00ffff;fill-opacity:1;stroke:none;stroke-width:1.16783;stroke-miterlimit:4;stroke-dasharray:none;stroke-opacity:1;stop-color:#000000"
         d="m 137.14462,75.567006 c -0.1401,-0.0132 -0.27376,-0.0099 -0.40522,0.0099 -0.54177,0.08021 -0.76145,0.555278 -1.3301,2.877339 -2.37757,9.70873 -12.63529,28.814585 -29.00021,54.014035 l -2.37128,3.64902 1.7295,6.7028 c 2.3331,9.04003 5.70992,21.15287 6.00285,21.53349 0.13077,0.16993 0.23595,0.51676 0.23267,0.77168 -0.0145,1.29369 6.49295,21.65247 10.00475,31.29976 5.05976,13.89963 10.66254,25.6569 14.59221,30.62113 1.06349,1.34346 1.3502,1.12054 0.83179,-0.64565 -0.19003,-0.64741 -0.42458,-2.84479 -0.52156,-4.8841 -0.34772,-7.31679 1.37476,-17.61785 5.03727,-30.12673 3.13488,-10.70677 7.28585,-17.26252 15.47053,-24.43409 l 1.91177,-1.67521 2.08431,-20.45739 2.08627,-20.4574 -2.26658,-5.80702 C 153.33396,98.312529 146.1234,83.946216 141.13683,78.520198 c -1.79468,-1.952818 -3.01151,-2.86074 -3.99221,-2.952954 z m -0.38196,49.195854 h 0.81822 1.63643 7.63929 c 0,0 1.1683,0.31796 1.09161,1.85747 -0.0766,1.53952 -1.13038,1.59378 -1.13038,1.59378 h -1.90983 -1.90982 -1.90982 -1.90982 l -0.0175,1.63644 -0.0194,1.63643 -0.0194,1.63644 -0.0194,1.63644 -0.0175,1.63837 -0.0194,1.63644 -0.0194,1.63643 -0.0175,1.63644 -0.0194,1.63644 -0.0194,1.63644 -0.0194,1.63837 -0.0175,1.63644 -0.0194,1.63643 -0.0194,1.63644 -0.0194,1.63644 -0.0175,1.63837 c 0,0 -0.50562,0.81047 -1.60542,0.81047 -1.21447,0 -1.66939,-0.81047 -1.66939,-0.81047 l 0.30053,-26.1888 0.0213,-1.72562 0.01,-0.86282 c 0.003,-0.2876 0.0141,-0.45392 0.20941,-0.65729 0.19527,-0.20325 0.34565,-0.20552 0.6185,-0.20552 z m -14.50496,0.0504 h 8.04646 1.72369 0.86281 c 0.28744,0 0.44435,0.002 0.6476,0.20552 0.20333,0.20337 0.21521,0.36969 0.21521,0.65729 v 0.86282 1.72562 26.1888 c 0,0 -0.48888,0.81047 -1.76828,0.81047 -1.15857,0 -1.68103,-0.81047 -1.68103,-0.81047 v -1.63644 -1.63643 -1.63838 -1.63643 -1.63644 -1.63644 -1.63644 -1.63837 -1.63643 -1.63644 -1.63644 -1.63644 -1.63643 -1.63837 -1.63644 -1.63644 h -2.01258 -2.01064 -2.01259 -2.01065 c 0,0 -1.11089,-0.0543 -1.17304,-1.59378 -0.0621,-1.53951 1.17304,-1.85747 1.17304,-1.85747 z" />
      <path
         id="path71"
         style="display:inline;opacity:0.357629;fill:#ffffff;fill-opacity:1;stroke:none;stroke-width:3.91045;stroke-miterlimit:4;stroke-dasharray:none;stroke-opacity:1;stop-color:#000000"
         d="m 93.449701,36.97985 a 91.115511,126.43774 0 0 0 -0.176575,0.139468 91.115511,126.43774 0 0 1 0.176575,-0.138485 z m -0.176575,0.139468 a 91.115511,126.43774 0 0 0 -0.189263,0.148779 91.115511,126.43774 0 0 0 -0.106436,0.08448 91.115511,126.43774 0 0 0 -0.316821,0.253461 91.115511,126.43774 0 0 0 -0.09892,0.07942 91.115511,126.43774 0 0 0 -0.120824,0.09798 91.115511,126.43774 0 0 0 -0.301633,0.24418 91.115511,126.43774 0 0 0 -0.298232,0.245013 91.115511,126.43774 0 0 0 -0.213771,0.176575 91.115511,126.43774 0 0 0 -0.05068,0.04219 91.115511,126.43774 0 0 0 -0.343897,0.28643 91.115511,126.43774 0 0 0 -0.116572,0.09788 91.115511,126.43774 0 0 0 -0.257703,0.216294 91.115511,126.43774 0 0 0 -0.205301,0.174887 91.115511,126.43774 0 0 0 -0.223907,0.19095 91.115511,126.43774 0 0 0 -0.142731,0.123276 91.115511,126.43774 0 0 0 -0.192615,0.165585 91.115511,126.43774 0 0 0 -0.118207,0.103005 91.115511,126.43774 0 0 0 -0.369206,0.322733 91.115511,126.43774 0 0 0 -0.174891,0.153693 91.115511,126.43774 0 0 0 -0.198565,0.174887 91.115511,126.43774 0 0 0 -0.177442,0.157942 91.115511,126.43774 0 0 0 -0.247516,0.221357 91.115511,126.43774 0 0 0 -0.275442,0.248398 91.115511,126.43774 0 0 0 -0.07602,0.06929 91.115511,126.43774 0 0 0 -0.246698,0.224722 91.115511,126.43774 0 0 0 -0.223908,0.205314 91.115511,126.43774 0 0 0 -0.109868,0.101367 91.115511,126.43774 0 0 0 -0.252618,0.232346 91.115511,126.43774 0 0 0 -0.197699,0.185033 91.115511,126.43774 0 0 0 -0.208718,0.195159 91.115511,126.43774 0 0 0 -0.332877,0.315159 91.115511,126.43774 0 0 0 -0.0066,0.0069 91.115511,126.43774 0 0 1 0.0066,-0.005 91.115511,126.43774 0 0 1 0.332877,-0.315129 91.115511,126.43774 0 0 1 0.208718,-0.195169 91.115511,126.43774 0 0 1 0.197699,-0.185033 91.115511,126.43774 0 0 1 0.252618,-0.232336 91.115511,126.43774 0 0 1 0.109868,-0.101366 91.115511,126.43774 0 0 1 0.223908,-0.205305 91.115511,126.43774 0 0 1 0.246698,-0.224742 91.115511,126.43774 0 0 1 0.07602,-0.06929 91.115511,126.43774 0 0 1 0.275442,-0.248398 91.115511,126.43774 0 0 1 0.247516,-0.221357 91.115511,126.43774 0 0 1 0.177442,-0.157941 91.115511,126.43774 0 0 1 0.198565,-0.174888 91.115511,126.43774 0 0 1 0.174891,-0.153683 91.115511,126.43774 0 0 1 0.369206,-0.322743 91.115511,126.43774 0 0 1 0.118207,-0.103004 91.115511,126.43774 0 0 1 0.192615,-0.165606 91.115511,126.43774 0 0 1 0.142731,-0.123276 91.115511,126.43774 0 0 1 0.223907,-0.190939 91.115511,126.43774 0 0 1 0.205301,-0.174898 91.115511,126.43774 0 0 1 0.257703,-0.216284 91.115511,126.43774 0 0 1 0.116572,-0.09808 91.115511,126.43774 0 0 1 0.343897,-0.28641 91.115511,126.43774 0 0 1 0.05068,-0.04219 91.115511,126.43774 0 0 1 0.213771,-0.176575 91.115511,126.43774 0 0 1 0.298232,-0.245033 91.115511,126.43774 0 0 1 0.301633,-0.244169 91.115511,126.43774 0 0 1 0.120824,-0.09808 91.115511,126.43774 0 0 1 0.09892,-0.07942 91.115511,126.43774 0 0 1 0.316821,-0.253471 91.115511,126.43774 0 0 1 0.106436,-0.08448 91.115511,126.43774 0 0 1 0.189263,-0.149593 z m 16.277594,19.247356 -7.29984,10.93454 24.27362,29.226325 c 2.59532,-4.944211 4.59246,-9.187591 5.92014,-12.595569 z m 23.69571,28.530151 c -1.43089,3.559505 -3.43497,7.785791 -5.94126,12.571078 l 34.68007,41.756837 1.5149,-14.85987 -2.23895,-5.73593 z M 162.869,120.56373 c 0.75239,1.75351 1.22538,2.47105 1.53096,2.35384 0.0334,-0.0131 0.18567,-0.11231 0.28136,-0.17064 z m 2.59719,3.12692 c -0.60466,0.45998 -1.02157,0.78786 -1.06034,0.84743 -0.15941,0.24528 -0.94511,6.83059 -1.85622,15.36595 l 34.2044,41.18318 c 0.14959,-5.37474 0.32094,-11.98217 0.50103,-19.12065 z" />
      <path
         id="path73"
         style="fill:#006680;fill-opacity:0.992157;stroke:none;stroke-width:3.76142;stroke-miterlimit:4;stroke-dasharray:none;stroke-opacity:0.984314;paint-order:stroke fill markers;stop-color:#000000"
         d="m 122.25697,124.81402 c 0,0 -1.23506,0.31876 -1.1729,1.85827 0.0621,1.53952 1.1729,1.59298 1.1729,1.59298 h 2.01161 2.01161 2.01162 2.01162 v 1.63679 1.63681 1.63679 1.6368 1.63681 1.63679 1.63681 1.6368 1.63679 1.63681 1.6368 1.63679 1.63681 1.63679 1.63681 1.6368 c 0,0 0.52181,0.81093 1.68038,0.81093 1.2794,0 1.76893,-0.81093 1.76893,-0.81093 v -26.1888 -1.72563 -0.86281 c 0,-0.2876 -0.0109,-0.45392 -0.21425,-0.65729 -0.20325,-0.20325 -0.36063,-0.20552 -0.64808,-0.20552 h -0.86232 -1.72466 z"
         sodipodi:nodetypes="czcccccccccccccccccccccsccssssscc" />
      <path
         id="path75"
         style="display:inline;opacity:0.357629;fill:#ffffff;fill-opacity:1;stroke:none;stroke-width:3.91045;stroke-miterlimit:4;stroke-dasharray:none;stroke-opacity:1;stop-color:#000000"
         d="M 92.119141,82.480469 72.625,111.68555 l 4.392578,4.24023 c 7.966259,7.68744 15.926496,13.8668 22.423828,17.4082 1.794474,0.97808 3.409054,1.77995 3.587894,1.78321 0.17883,0.003 1.43662,-1.71347 2.79492,-3.81641 4.22896,-6.5473 8.08602,-12.74587 11.50195,-18.47266 z M 72.767578,113.46484 c -0.03973,0.0397 1.103113,8.05721 2.539063,18.03516 l 31.445309,37.86328 c 2.23813,-2.59371 3.94532,-4.61245 3.94532,-4.7168 0,-0.17946 -0.9577,-3.76823 -2.12891,-7.97656 -1.1712,-4.20837 -2.86354,-10.55402 -3.76172,-14.10156 l -1.63476,-6.45117 -1.72071,-0.75781 c -6.230222,-2.74799 -15.360983,-9.5694 -25.025389,-18.69141 -1.941004,-1.83201 -3.588374,-3.27295 -3.658203,-3.20313 z m 45.335942,0.30078 c -3.45052,5.76916 -7.35081,12.01328 -11.69532,18.70313 l -2.37109,3.64844 1.73047,6.70312 c 2.3331,9.04002 5.709,21.15063 6.00195,21.53125 0.1308,0.16993 0.23571,0.51852 0.23242,0.77344 -0.008,0.77843 2.35159,8.47366 4.99219,16.57031 l 21.14844,25.46485 c 0.85106,-4.74245 2.12068,-10.02017 3.80469,-15.77149 3.13488,-10.70677 7.28409,-17.26204 15.46875,-24.43359 l 1.91406,-1.67578 0.16992,-1.66992 -20.44531,-24.61719 -0.008,0.67969 -0.0195,1.63671 -0.0195,1.63672 -0.0176,1.63672 -0.0195,1.63672 -0.0195,1.63672 -0.0176,1.63672 -0.0195,1.63672 -0.0195,1.63671 -0.0176,1.63672 c 0,0 -0.50568,0.81055 -1.60547,0.81055 -1.21448,0 -1.66992,-0.81055 -1.66992,-0.81055 l 0.22266,-19.30078 -2.07227,-2.49414 v 21.8457 c 0,0 -0.48817,0.8125 -1.76757,0.8125 -1.15857,10e-6 -1.68165,-0.8125 -1.68165,-0.8125 v -1.63671 -1.63672 -1.63672 -1.63672 -1.63672 -1.63672 -1.63672 -1.63671 -1.63672 -1.63672 -1.63672 -1.63672 -1.63672 -1.63672 -1.63672 -1.44726 l -0.15625,-0.18946 h -1.85546 -2.01172 -2.00977 -2.01172 c 0,0 -1.11173,-0.0542 -1.17383,-1.59374 -0.0622,-1.53952 1.17383,-1.85743 1.17383,-1.85743 h 5.02149 z m 41.92968,50.48633 -0.10351,1.02344 2.85156,2.28516 z m -49.01758,1.89844 c -0.0533,0 -1.60965,1.7189 -3.6289,3.97656 l 7.98828,9.61914 c -1.03967,-3.23367 -2.06564,-6.51318 -3.04883,-9.77343 -0.63416,-2.10297 -1.22391,-3.82227 -1.31055,-3.82227 z m 48.06836,0.32031 c -0.0453,0.005 -0.0815,0.022 -0.11132,0.0449 -7.07212,5.41805 -12.68566,13.2328 -15.35157,21.3711 -2.30087,7.02387 -3.98155,13.80219 -4.99414,19.85547 l 12.83789,15.45898 c 11.87547,-7.35091 28.72134,-17.82486 37.9375,-23.58984 l -23.60937,-28.42774 c -4.91935,-3.85989 -6.27204,-4.76563 -6.70899,-4.71289 z m 50.2461,59.77735 a 91.115511,126.43774 0 0 1 -0.47266,0.80664 91.115511,126.43774 0 0 0 0.47266,-0.80664 z m -0.47266,0.80664 a 91.115511,126.43774 0 0 1 -0.46484,0.78125 91.115511,126.43774 0 0 0 0.33203,-0.55274 91.115511,126.43774 0 0 0 0.13281,-0.22851 z m -0.93359,1.55664 a 91.115511,126.43774 0 0 1 -0.47266,0.77148 91.115511,126.43774 0 0 0 0.0391,-0.0605 91.115511,126.43774 0 0 0 0.31055,-0.50586 91.115511,126.43774 0 0 0 0.12305,-0.20508 z m -0.47266,0.77148 a 91.115511,126.43774 0 0 1 -0.47656,0.76563 91.115511,126.43774 0 0 0 0.20117,-0.32032 91.115511,126.43774 0 0 0 0.27539,-0.44531 z m -0.47656,0.76563 a 91.115511,126.43774 0 0 1 -0.43164,0.68164 91.115511,126.43774 0 0 0 0.31836,-0.5 91.115511,126.43774 0 0 0 0.11328,-0.18164 z m -1.48438,2.30273 a 91.115511,126.43774 0 0 1 -0.4707,0.70703 91.115511,126.43774 0 0 0 0.23633,-0.35156 91.115511,126.43774 0 0 0 0.23437,-0.35547 z m -0.4707,0.70703 a 91.115511,126.43774 0 0 1 -1.00195,1.47266 91.115511,126.43774 0 0 0 0.2539,-0.36719 91.115511,126.43774 0 0 0 0.33008,-0.48242 91.115511,126.43774 0 0 0 0.32813,-0.48633 91.115511,126.43774 0 0 0 0.0898,-0.13672 z m -1.50976,2.19922 a 91.115511,126.43774 0 0 1 -0.91797,1.28516 91.115511,126.43774 0 0 0 0.30859,-0.42578 91.115511,126.43774 0 0 0 0.0312,-0.043 91.115511,126.43774 0 0 0 0.0273,-0.0391 91.115511,126.43774 0 0 0 0.31055,-0.43555 91.115511,126.43774 0 0 0 0.24024,-0.3418 z m -2.85938,3.88867 a 91.115511,126.43774 0 0 1 -1.04492,1.33789 91.115511,126.43774 0 0 0 0.16992,-0.21289 91.115511,126.43774 0 0 0 0.0391,-0.0488 91.115511,126.43774 0 0 0 0.13282,-0.16993 91.115511,126.43774 0 0 0 0.2207,-0.28125 91.115511,126.43774 0 0 0 0.13281,-0.16992 91.115511,126.43774 0 0 0 0.21875,-0.2832 91.115511,126.43774 0 0 0 0.13086,-0.17188 z m -1.07422,1.375 a 91.115511,126.43774 0 0 1 -0.33984,0.42774 91.115511,126.43774 0 0 0 0.22265,-0.27735 91.115511,126.43774 0 0 0 0.11719,-0.15039 z m -0.33984,0.42774 h -0.002 a 91.115511,126.43774 0 0 1 -0.0859,0.10937 91.115511,126.43774 0 0 0 0.0879,-0.10937 z m -0.47461,0.58594 a 91.115511,126.43774 0 0 1 -0.0703,0.0879 91.115511,126.43774 0 0 0 0.0527,-0.0625 91.115511,126.43774 0 0 0 0.0176,-0.0254 z m -1.72852,2.07421 a 91.115511,126.43774 0 0 1 -0.55859,0.64844 91.115511,126.43774 0 0 0 0.084,-0.0937 91.115511,126.43774 0 0 0 0.36719,-0.42773 91.115511,126.43774 0 0 0 0.10742,-0.12696 z m -0.70703,0.81836 a 91.115511,126.43774 0 0 1 -0.50976,0.58008 91.115511,126.43774 0 0 0 0.37109,-0.41992 91.115511,126.43774 0 0 0 0.13867,-0.16016 z m -1.2832,1.44532 a 91.115511,126.43774 0 0 1 -0.57422,0.62695 91.115511,126.43774 0 0 0 0.22461,-0.24219 91.115511,126.43774 0 0 0 0.34961,-0.38476 z m -0.99805,1.08398 a 91.115511,126.43774 0 0 1 -1.16015,1.22461 91.115511,126.43774 0 0 0 0.0488,-0.0488 91.115511,126.43774 0 0 0 0.23829,-0.24804 91.115511,126.43774 0 0 0 0.0449,-0.0469 91.115511,126.43774 0 0 0 0.30664,-0.32227 91.115511,126.43774 0 0 0 0.0312,-0.0332 91.115511,126.43774 0 0 0 0.14453,-0.1543 91.115511,126.43774 0 0 0 0.23633,-0.25195 91.115511,126.43774 0 0 0 0.10937,-0.11914 z m -1.59765,1.67578 a 91.115511,126.43774 0 0 1 -0.58985,0.59766 91.115511,126.43774 0 0 0 0.15625,-0.15625 91.115511,126.43774 0 0 0 0.14844,-0.14844 91.115511,126.43774 0 0 0 0.24023,-0.24414 91.115511,126.43774 0 0 0 0.0449,-0.0488 z m -1.45508,1.46094 a 91.115511,126.43774 0 0 1 -0.47461,0.46289 91.115511,126.43774 0 0 0 0.22461,-0.2168 91.115511,126.43774 0 0 0 0.10351,-0.0996 91.115511,126.43774 0 0 0 0.14649,-0.14648 z m -0.47461,0.46289 a 91.115511,126.43774 0 0 1 -0.59961,0.57617 91.115511,126.43774 0 0 0 0.13867,-0.13086 91.115511,126.43774 0 0 0 0.39453,-0.3789 91.115511,126.43774 0 0 0 0.0664,-0.0664 z m -0.59961,0.57617 a 91.115511,126.43774 0 0 1 -0.60352,0.57031 91.115511,126.43774 0 0 0 0.0996,-0.0918 91.115511,126.43774 0 0 0 0.24805,-0.23242 91.115511,126.43774 0 0 0 0.25586,-0.2461 z m -1.81445,1.6875 a 91.115511,126.43774 0 0 1 -0.0957,0.0859 91.115511,126.43774 0 0 0 0.0566,-0.0488 91.115511,126.43774 0 0 0 0.0391,-0.0371 z m -0.44336,0.39844 a 91.115511,126.43774 0 0 1 -0.28321,0.25195 91.115511,126.43774 0 0 0 0.0332,-0.0273 91.115511,126.43774 0 0 0 0.25,-0.22461 z m -1.29297,1.13281 a 91.115511,126.43774 0 0 1 -0.6211,0.53125 91.115511,126.43774 0 0 0 0.24219,-0.20312 91.115511,126.43774 0 0 0 0.0488,-0.041 91.115511,126.43774 0 0 0 0.0234,-0.0215 91.115511,126.43774 0 0 0 0.30664,-0.26563 z m -0.9961,0.84766 a 91.115511,126.43774 0 0 1 -0.24414,0.20312 91.115511,126.43774 0 0 0 0.0899,-0.0723 91.115511,126.43774 0 0 0 0.15429,-0.13086 z m -0.98242,0.81055 a 91.115511,126.43774 0 0 1 -0.41406,0.33398 91.115511,126.43774 0 0 0 0.006,-0.002 91.115511,126.43774 0 0 0 0.4082,-0.33203 z m -1.09179,0.87109 a 91.115511,126.43774 0 0 1 -0.15821,0.125 91.115511,126.43774 0 0 0 0.15821,-0.12305 z m -2.10157,1.60742 a 91.115511,126.43774 0 0 1 -0.21093,0.1543 v 0.002 a 91.115511,126.43774 0 0 0 0.21093,-0.15625 z" />
      <path
         id="path77"
         style="fill:#006680;fill-opacity:0.992157;stroke:none;stroke-width:3.66474;stroke-miterlimit:4;stroke-dasharray:none;stroke-opacity:0.984314;paint-order:stroke fill markers;stop-color:#000000"
         d="m 146.85639,124.76286 c 0,0 1.16872,0.31876 1.09202,1.85827 -0.0766,1.53952 -1.1317,1.59298 -1.1317,1.59298 h -1.90954 -1.90954 -1.90955 -1.90954 l -0.0189,1.6368 -0.0189,1.6368 -0.0189,1.6368 -0.0189,1.6368 -0.0189,1.6368 -0.0189,1.6368 -0.0189,1.63681 -0.0189,1.63679 -0.0189,1.6368 -0.0189,1.6368 -0.0189,1.6368 -0.0189,1.6368 -0.0189,1.6368 -0.0189,1.6368 -0.0189,1.63681 -0.0189,1.63679 c 0,0 -0.50465,0.81093 -1.60444,0.81093 -1.21448,0 -1.66985,-0.81093 -1.66985,-0.81093 l 0.30109,-26.1888 0.0198,-1.72562 0.01,-0.86282 c 0.003,-0.2876 0.0156,-0.45392 0.21093,-0.65729 0.19527,-0.20325 0.3447,-0.20552 0.61755,-0.20552 h 0.81858 1.63714 z"
         sodipodi:nodetypes="czcccccccccccccccccccccsccssssscc" />
    </g>
  </g>
  <g
     inkscape:groupmode="layer"
     id="layer2"
     inkscape:label="BASE"
     sodipodi:insensitive="true"
     style="display:none">
    <g
       id="Lockup"
       transform="translate(-365.83548,0.390535)"
       sketch:type="MSShapeGroup"
       style="fill:url(#linearGradient1848);fill-rule:evenodd;stroke:none;stroke-width:1;filter:url(#filter1999)">
      <path
         d="m 500.83548,269.21893 c 74.46758,0 134.83548,-60.26671 134.83548,-134.60947 C 635.67096,60.266709 575.30306,0 500.83548,0 426.3679,0 366,60.266709 366,134.60946 c 0,74.34276 60.3679,134.60947 134.83548,134.60947 z m 0,-11.74013 c 67.9728,0 123.07564,-55.01048 123.07564,-122.86934 0,-67.858858 -55.10284,-122.869333 -123.07564,-122.869333 -67.9728,0 -123.07564,55.010475 -123.07564,122.869333 0,67.85886 55.10284,122.86934 123.07564,122.86934 z m 48.52209,-63.30697 c 1.37298,1.37298 3.6016,1.37041 4.96785,0.004 l 39.71596,-39.71596 c 1.37069,-1.37068 1.36438,-3.59931 -0.004,-4.96785 l -39.78266,-39.78265 c -1.37298,-1.37298 -3.6016,-1.37041 -4.96784,-0.004 l -39.71597,39.71597 c -1.37068,1.37068 -1.36437,3.59931 0.004,4.96785 z m -101.94118,0 c 1.37299,1.37298 3.6016,1.37041 4.96785,0.004 l 39.71596,-39.71596 c 1.37069,-1.37068 1.36438,-3.59931 -0.004,-4.96785 l -39.78265,-39.78265 c -1.37299,-1.37298 -3.6016,-1.37041 -4.96785,-0.004 l -39.71597,39.71597 c -1.37068,1.37068 -1.36437,3.59931 0.004,4.96785 l 39.78265,39.78265 z m 50.97059,-50.88515 c 1.37299,1.37298 3.6016,1.37041 4.96785,0.004 l 39.71596,-39.71596 c 1.37069,-1.37068 1.36438,-3.599309 -0.004,-4.967848 L 503.28397,58.824381 c -1.37298,-1.372984 -3.6016,-1.370413 -4.96784,-0.0042 L 458.60016,98.53618 c -1.37068,1.370682 -1.36437,3.59931 0.004,4.96785 l 39.78265,39.78265 z"
         id="Logo-Copy"
         style="fill:url(#linearGradient1975)" />
    </g>
  </g>
</svg>
