<?xml version="1.0" encoding="UTF-8" standalone="no"?>
<svg
   xmlns:dc="http://purl.org/dc/elements/1.1/"
   xmlns:cc="http://creativecommons.org/ns#"
   xmlns:rdf="http://www.w3.org/1999/02/22-rdf-syntax-ns#"
   xmlns:svg="http://www.w3.org/2000/svg"
   xmlns="http://www.w3.org/2000/svg"
   xmlns:xlink="http://www.w3.org/1999/xlink"
   xmlns:sodipodi="http://sodipodi.sourceforge.net/DTD/sodipodi-0.dtd"
   xmlns:inkscape="http://www.inkscape.org/namespaces/inkscape"
   width="270px"
   height="270px"
   viewBox="0 0 270 270"
   version="1.1"
   id="svg18"
   sodipodi:docname="logo.svg"
   inkscape:version="1.0.2 (1.0.2+r75+1)">
  <metadata
     id="metadata22">
    <rdf:RDF>
      <cc:Work
         rdf:about="">
        <dc:format>image/svg+xml</dc:format>
        <dc:type
           rdf:resource="http://purl.org/dc/dcmitype/StillImage" />
      </cc:Work>
    </rdf:RDF>
  </metadata>
  <sodipodi:namedview
     pagecolor="#ffffff"
     bordercolor="#666666"
     borderopacity="1"
     objecttolerance="10"
     gridtolerance="10"
     guidetolerance="10"
     inkscape:pageopacity="0"
     inkscape:pageshadow="2"
     inkscape:window-width="1360"
     inkscape:window-height="705"
     id="namedview20"
     showgrid="false"
     inkscape:zoom="2"
     inkscape:cx="154.78599"
     inkscape:cy="171.57296"
     inkscape:window-x="0"
     inkscape:window-y="30"
     inkscape:window-maximized="1"
     inkscape:current-layer="svg18"
     inkscape:document-rotation="0" />
  <!-- Generator: Sketch 3.3.3 (12072) - http://www.bohemiancoding.com/sketch -->
  <title
     id="title2">Logo Copy</title>
  <desc
     id="desc4">Created with Sketch.</desc>
  <g
     id="g1065"
     transform="translate(-270.14336)">
    <path
       id="path1053"
       style="display:inline;opacity:0.998;mix-blend-mode:normal;fill:#000000;fill-opacity:0.362778;stroke:none;stroke-width:2.05004;stroke-miterlimit:4;stroke-dasharray:none;stroke-opacity:0.992157;paint-order:stroke fill markers;filter:url(#filter1058);stop-color:#000000"
       d="m 426.52762,2.6464668 -2.66732,0.031011 34.84935,40.1430832 35.17837,40.524901 -0.18605,10.384639 c -1.04157,58.022159 -2.67594,124.503469 -3.06878,124.881199 -0.26811,0.25782 -18.28483,11.14719 -40.0371,24.19788 -10.87612,6.52532 -20.8304,12.49772 -28.10861,16.86583 -7.27821,4.3681 -9.7494,5.7962 -11.9794,5.72919 -2.22999,-0.067 -4.82349,-1.30204 -12.31625,-6.24281 -7.49276,-4.94076 -17.89425,-11.91032 -29.70469,-19.91842 -28.91934,-19.60884 -38.6855,-26.39615 -41.07308,-28.66727 0.14224,0.99048 0.36522,2.61163 0.39364,2.71342 0.33292,1.19279 8.29291,6.78804 42.58103,29.93288 12.04544,8.1308 22.65429,15.2082 30.29612,20.22465 7.64184,5.01647 10.28668,6.27173 12.56104,6.33972 2.27438,0.068 4.79531,-1.38334 12.21833,-5.81836 7.42301,-4.43503 17.57621,-10.50024 28.66871,-17.12553 22.18507,-13.25064 40.5607,-24.30628 40.83415,-24.56807 0.40066,-0.3835 2.06525,-67.88303 3.12754,-126.794154 l 0.18995,-10.543568 -35.8775,-41.14511 z" />
    <path
       style="display:inline;mix-blend-mode:normal;fill:#000000;fill-opacity:0.2;stroke:none;stroke-width:2.01961;stroke-miterlimit:4;stroke-dasharray:none;stroke-opacity:0.992157;paint-order:stroke fill markers;stop-color:#000000"
       d="m 368.37665,240.44736 c -33.52902,-22.97165 -41.31253,-28.52522 -41.63808,-29.70907 -0.40835,-1.4849 -13.73004,-105.17659 -13.72656,-106.84282 0.001,-0.50322 14.60005,-23.409747 32.44221,-50.903399 L 377.89452,3.003614 396.22434,2.3895513 C 406.30575,2.0518208 416.5158,1.7519969 418.91331,1.7232769 l 4.35911,-0.052207 35.08435,40.8369601 35.08434,40.836959 -0.1859,10.466197 c -1.03878,58.470294 -2.66728,125.464114 -3.05907,125.844764 -0.26739,0.25982 -18.2357,11.23266 -39.92962,24.38414 -10.84694,6.57572 -20.7758,12.59576 -28.03448,16.9976 -7.25868,4.40184 -9.72282,5.84113 -11.94684,5.7736 -2.22401,-0.0675 -4.81027,-1.31299 -12.28293,-6.29192 -7.47266,-4.97892 -17.84686,-12.00206 -29.62562,-20.07201 z"
       id="path4403"
       sodipodi:nodetypes="sscscsscccsssszss" />
    <path
       id="path4401"
       style="display:inline;opacity:0.958663;mix-blend-mode:normal;fill:url(#linearGradient1049);fill-opacity:1;stroke:none;stroke-width:2.01961;stroke-miterlimit:4;stroke-dasharray:none;stroke-opacity:0.992157;paint-order:stroke fill markers;stop-color:#000000"
       d="m 423.71862,1.6708631 -4.35948,0.052939 c -2.3975,0.028719 -12.60673,0.3286197 -22.68815,0.6663502 l -18.32983,0.61341 -32.44059,49.9889757 c -17.84216,27.493659 -32.44055,50.399552 -32.44173,50.902772 -0.004,1.66624 13.31804,105.35795 13.72637,106.84285 0.32553,1.18385 8.1093,6.73795 41.6383,29.70959 11.77877,8.06996 22.15296,15.09306 29.62561,20.07194 7.47265,4.97887 8.85115,6.33115 12.37238,6.28577 3.52124,-0.0454 4.59868,-1.36561 11.85735,-5.76734 7.25866,-4.40172 11.76405,-7.13379 28.03448,-16.99737 16.27043,-9.86358 39.59968,-24.0643 39.92925,-24.38453 0.32957,-0.32023 2.5396,-96.60965 3.059,-125.844794 0.5194,-29.235142 0.18644,-10.465964 0.18644,-10.465964 l -35.08527,-40.8373 z m -1.93575,15.8969019 60.86926,70.856463 -2.45825,117.967122 -70.59177,42.80414 -71.9728,-49.32954 -12.09214,-94.23744 56.32795,-86.79019 z"
       sodipodi:nodetypes="ccccccssszszzzccccccccccc" />
  </g>
  <defs
     id="defs11">
    <linearGradient
       x1="0%"
       y1="0%"
       x2="101.999998%"
       y2="100.999999%"
       id="linearGradient-1">
      <stop
         stop-color="#FFCF55"
         offset="0%"
         id="stop6" />
      <stop
         stop-color="#4CF2FF"
         offset="100%"
         id="stop8" />
    </linearGradient>
    <linearGradient
       inkscape:collect="always"
       xlink:href="#linearGradient-1"
       id="linearGradient4412"
       x1="944.93933"
       y1="427.33109"
       x2="446.85788"
       y2="-53.582161"
       gradientUnits="userSpaceOnUse"
       gradientTransform="matrix(0.58924297,0,0,0.58924297,-237.60238,57.217373)" />
    <linearGradient
       inkscape:collect="always"
       xlink:href="#linearGradient-1"
       id="linearGradient1049"
       gradientUnits="userSpaceOnUse"
       gradientTransform="matrix(0.58924297,0,0,0.58924297,31.07105,57.217373)"
       x1="944.93933"
       y1="427.33109"
       x2="446.85788"
       y2="-53.582161" />
    <filter
       inkscape:collect="always"
       style="color-interpolation-filters:sRGB"
       id="filter1058"
       x="-0.0073470313"
       width="1.0146941"
       y="-0.0046993366"
       height="1.0093987">
      <feGaussianBlur
         inkscape:collect="always"
         stdDeviation="0.52307958"
         id="feGaussianBlur1060" />
    </filter>
  </defs>
  <path
     style="display:inline;opacity:0.958663;mix-blend-mode:normal;fill:none;fill-opacity:0.984314;stroke:none;stroke-width:0.78323;stroke-miterlimit:4;stroke-dasharray:none;stroke-opacity:0.992157;paint-order:stroke fill markers;stop-color:#000000"
     d="M 116.02707,177.86145 93.613113,162.50051 89.842787,133.17348 c -2.073678,-16.12985 -3.737688,-29.42159 -3.6978,-29.53718 0.03989,-0.11561 3.952823,-6.185146 8.695423,-13.487885 l 8.62289,-13.277708 h 1.33449 c 1.02347,0 1.29596,0.06075 1.16918,0.260701 -0.0909,0.143389 -4.01646,6.024195 -8.723428,13.068453 -4.706969,7.044261 -8.59759,12.958689 -8.645831,13.143159 -0.131634,0.50338 6.767961,6.92705 11.312687,10.53233 2.649902,2.10214 6.698092,4.78466 9.195342,6.09328 l 1.85711,0.97318 0.58216,-0.69265 c 0.6709,-0.79826 5.21018,-7.90935 8.42522,-13.19866 8.37937,-13.785588 13.88656,-24.951615 14.19679,-28.784491 0.11131,-1.375973 0.12117,-1.395302 0.71256,-1.395302 0.50403,0 0.57001,0.05768 0.41385,0.361742 -0.10222,0.198964 -0.47698,1.359176 -0.83291,2.578254 -2.13949,7.327935 -9.26537,20.522437 -20.41781,37.806257 -1.29239,2.00291 -2.3498,3.80528 -2.3498,4.00525 0,0.4791 3.01716,11.89778 4.47173,16.9236 0.62964,2.17558 1.37318,4.79276 1.65231,5.81599 1.42568,5.22621 5.82028,18.48442 8.085,24.39187 3.50641,9.14637 7.77645,17.78228 9.91091,20.04432 0.72412,0.76738 0.80995,0.50103 0.49422,-1.53382 -0.45904,-2.95863 -0.11649,-10.17334 0.61888,-13.03267 0.21677,-0.84287 0.17801,-0.38171 -0.32993,3.92625 -0.58752,4.98276 -0.2794,9.39302 0.83178,11.90556 0.50073,1.13227 0.52987,1.15789 0.98182,0.863 0.25618,-0.16716 2.93079,-1.82165 5.9436,-3.67665 6.72838,-4.14272 25.7875,-15.9944 31.05831,-19.31324 2.1317,-1.34226 3.87582,-2.51079 3.87582,-2.59675 0,-0.0859 -0.34882,-0.50005 -0.77517,-0.92019 -1.13578,-1.1193 -16.98082,-13.91809 -22.86209,-18.46682 -2.46294,-1.90489 -2.94439,-2.17337 -3.60328,-2.0093 l -0.56207,0.13994 0.55091,-0.58424 0.55094,-0.58424 1.53428,-15.08822 1.53428,-15.08822 -2.01308,-5.06608 c -4.40115,-11.07587 -7.67697,-18.161376 -10.91686,-23.613059 -1.7299,-2.910859 -2.86581,-4.414331 -4.53308,-5.999947 -0.86413,-0.821802 -1.13469,-1.188587 -0.87677,-1.188587 0.45347,0 2.70138,2.346061 3.98247,4.156345 2.77699,3.924123 7.64237,14.001096 12.05798,24.974008 1.10835,2.75432 2.17727,5.20799 2.37536,5.45262 0.46638,0.57597 0.17317,0.74526 6.6059,-3.81398 11.66467,-8.267414 18.81068,-13.51655 18.81068,-13.817459 0,-0.188825 -3.92448,-4.890688 -10.47952,-12.55534 -1.96724,-2.300265 -3.57681,-4.230429 -3.57681,-4.289247 0,-0.05884 0.67439,-0.105474 1.49864,-0.10368 l 1.49866,0.0037 6.40803,7.456862 c 3.52442,4.101283 6.62199,7.724936 6.8835,8.052566 l 0.47545,0.595689 -0.75975,36.748759 c -0.41786,20.21182 -0.81787,36.81187 -0.88888,36.88901 -0.071,0.0771 -9.87915,6.05201 -21.79586,13.27748 -11.9167,7.22549 -21.73502,13.17944 -21.81847,13.23101 -0.0834,0.0515 -10.23801,-6.81865 -22.56568,-15.26717 z m 18.07316,9.83994 c 0.0588,-0.0952 -0.27066,-0.81609 -0.73218,-1.60202 -1.31345,-2.23666 -4.19352,-8.0717 -5.52657,-11.19684 -2.47602,-5.80472 -5.40761,-14.10252 -8.80672,-24.92721 -1.06543,-3.39294 -1.99081,-6.22266 -2.05643,-6.28827 -0.19784,-0.19785 -0.98081,0.62921 -6.44974,6.81293 l -5.24584,5.93149 0.42251,4.80609 c 0.48992,5.57319 0.62058,6.2828 1.27026,6.89828 0.2639,0.25002 5.22384,3.93959 11.02208,8.19905 14.98705,11.00969 15.69398,11.52393 15.85286,11.53215 0.0786,0.004 0.19096,-0.0705 0.24977,-0.16565 z m -28.40331,-20.96314 c -0.005,-0.89252 -0.83603,-9.74322 -0.9233,-9.83049 -0.0588,-0.0588 -0.36332,0.009 -0.67645,0.15025 -0.55343,0.25019 -5.635858,3.10841 -6.250245,3.51496 -0.257167,0.17017 -0.207311,0.30798 0.310068,0.85712 0.709071,0.75261 7.066947,5.56654 7.351847,5.56654 0.10425,0 0.18884,-0.11624 0.18808,-0.25838 z m 74.28606,-6.40804 c 0.0753,-2.18855 0.27422,-9.37434 0.44202,-15.96841 0.87628,-34.43565 1.13362,-49.165283 0.86371,-49.435197 -0.12066,-0.120662 -5.17083,3.423308 -16.36775,11.486077 -7.72625,5.56359 -8.54141,6.17688 -8.7648,6.59428 -0.27185,0.50795 -3.49258,29.93494 -3.29466,30.10244 0.42624,0.3607 24.03011,19.14568 25.15506,20.01948 0.83587,0.64928 1.58947,1.18051 1.67464,1.18051 0.0852,0 0.21647,-1.79064 0.29178,-3.97918 z m -81.803662,-0.68925 c 0.66787,-0.29382 2.456952,-1.20076 3.975762,-2.01543 l 2.76147,-1.48122 2.9929,-3.36014 c 5.10171,-5.72768 8.74453,-10.04331 8.74453,-10.35954 0,-0.16653 -0.87875,-3.56608 -1.95279,-7.55459 -1.07402,-3.9885 -2.31263,-8.63884 -2.75244,-10.33407 l -0.79966,-3.08225 -2.2603,-1.16075 c -2.72529,-1.39955 -4.00248,-2.21034 -7.118,-4.51869 -2.813617,-2.08467 -6.300149,-5.02038 -10.077166,-8.48512 -2.491453,-2.28546 -3.152322,-2.78229 -3.152322,-2.3698 0,0.55558 7.691224,53.26963 7.979131,54.68736 0.06343,0.31264 0.189495,0.56846 0.280009,0.56846 0.09046,0 0.711006,-0.2404 1.378876,-0.53422 z"
     id="path4385" />
  <path
     style="display:inline;opacity:0.958663;mix-blend-mode:normal;fill:none;fill-opacity:0.984314;stroke:none;stroke-width:0.78323;stroke-miterlimit:4;stroke-dasharray:none;stroke-opacity:0.992157;paint-order:stroke fill markers;stop-color:#000000"
     d="M 116.02707,177.86145 93.613113,162.50051 89.842787,133.17348 c -2.073678,-16.12985 -3.737688,-29.42159 -3.6978,-29.53718 0.03989,-0.11561 3.952823,-6.185146 8.695423,-13.487885 l 8.62289,-13.277708 h 1.33449 c 1.02347,0 1.29596,0.06075 1.16918,0.260701 -0.0909,0.143389 -4.01646,6.024195 -8.723428,13.068453 -4.706969,7.044261 -8.59759,12.958689 -8.645831,13.143159 -0.131634,0.50338 6.767961,6.92705 11.312687,10.53233 2.649902,2.10214 6.698092,4.78466 9.195342,6.09328 l 1.85711,0.97318 0.58216,-0.69265 c 0.6709,-0.79826 5.21018,-7.90935 8.42522,-13.19866 8.37937,-13.785588 13.88656,-24.951615 14.19679,-28.784491 0.11131,-1.375973 0.12117,-1.395302 0.71256,-1.395302 0.50403,0 0.57001,0.05768 0.41385,0.361742 -0.10222,0.198964 -0.47698,1.359176 -0.83291,2.578254 -2.13949,7.327935 -9.26537,20.522437 -20.41781,37.806257 -1.29239,2.00291 -2.3498,3.80528 -2.3498,4.00525 0,0.4791 3.01716,11.89778 4.47173,16.9236 0.62964,2.17558 1.37318,4.79276 1.65231,5.81599 1.42568,5.22621 5.82028,18.48442 8.085,24.39187 3.50641,9.14637 7.77645,17.78228 9.91091,20.04432 0.72412,0.76738 0.80995,0.50103 0.49422,-1.53382 -0.45904,-2.95863 -0.11649,-10.17334 0.61888,-13.03267 0.21677,-0.84287 0.17801,-0.38171 -0.32993,3.92625 -0.58752,4.98276 -0.2794,9.39302 0.83178,11.90556 0.50073,1.13227 0.52987,1.15789 0.98182,0.863 0.25618,-0.16716 2.93079,-1.82165 5.9436,-3.67665 6.72838,-4.14272 25.7875,-15.9944 31.05831,-19.31324 2.1317,-1.34226 3.87582,-2.51079 3.87582,-2.59675 0,-0.0859 -0.34882,-0.50005 -0.77517,-0.92019 -1.13578,-1.1193 -16.98082,-13.91809 -22.86209,-18.46682 -2.46294,-1.90489 -2.94439,-2.17337 -3.60328,-2.0093 l -0.56207,0.13994 0.55091,-0.58424 0.55094,-0.58424 1.53428,-15.08822 1.53428,-15.08822 -2.01308,-5.06608 c -4.40115,-11.07587 -7.67697,-18.161376 -10.91686,-23.613059 -1.7299,-2.910859 -2.86581,-4.414331 -4.53308,-5.999947 -0.86413,-0.821802 -1.13469,-1.188587 -0.87677,-1.188587 0.45347,0 2.70138,2.346061 3.98247,4.156345 2.77699,3.924123 7.64237,14.001096 12.05798,24.974008 1.10835,2.75432 2.17727,5.20799 2.37536,5.45262 0.46638,0.57597 0.17317,0.74526 6.6059,-3.81398 11.66467,-8.267414 18.81068,-13.51655 18.81068,-13.817459 0,-0.188825 -3.92448,-4.890688 -10.47952,-12.55534 -1.96724,-2.300265 -3.57681,-4.230429 -3.57681,-4.289247 0,-0.05884 0.67439,-0.105474 1.49864,-0.10368 l 1.49866,0.0037 6.40803,7.456862 c 3.52442,4.101283 6.62199,7.724936 6.8835,8.052566 l 0.47545,0.595689 -0.75975,36.748759 c -0.41786,20.21182 -0.81787,36.81187 -0.88888,36.88901 -0.071,0.0771 -9.87915,6.05201 -21.79586,13.27748 -11.9167,7.22549 -21.73502,13.17944 -21.81847,13.23101 -0.0834,0.0515 -10.23801,-6.81865 -22.56568,-15.26717 z m 18.07316,9.83994 c 0.0588,-0.0952 -0.27066,-0.81609 -0.73218,-1.60202 -1.31345,-2.23666 -4.19352,-8.0717 -5.52657,-11.19684 -2.47602,-5.80472 -5.40761,-14.10252 -8.80672,-24.92721 -1.06543,-3.39294 -1.99081,-6.22266 -2.05643,-6.28827 -0.19784,-0.19785 -0.98081,0.62921 -6.44974,6.81293 l -5.24584,5.93149 0.42251,4.80609 c 0.48992,5.57319 0.62058,6.2828 1.27026,6.89828 0.2639,0.25002 5.22384,3.93959 11.02208,8.19905 14.98705,11.00969 15.69398,11.52393 15.85286,11.53215 0.0786,0.004 0.19096,-0.0705 0.24977,-0.16565 z m -28.40331,-20.96314 c -0.005,-0.89252 -0.83603,-9.74322 -0.9233,-9.83049 -0.0588,-0.0588 -0.36332,0.009 -0.67645,0.15025 -0.55343,0.25019 -5.635858,3.10841 -6.250245,3.51496 -0.257167,0.17017 -0.207311,0.30798 0.310068,0.85712 0.709071,0.75261 7.066947,5.56654 7.351847,5.56654 0.10425,0 0.18884,-0.11624 0.18808,-0.25838 z m 74.28606,-6.40804 c 0.0753,-2.18855 0.27422,-9.37434 0.44202,-15.96841 0.87628,-34.43565 1.13362,-49.165283 0.86371,-49.435197 -0.12066,-0.120662 -5.17083,3.423308 -16.36775,11.486077 -7.72625,5.56359 -8.54141,6.17688 -8.7648,6.59428 -0.27185,0.50795 -3.49258,29.93494 -3.29466,30.10244 0.42624,0.3607 24.03011,19.14568 25.15506,20.01948 0.83587,0.64928 1.58947,1.18051 1.67464,1.18051 0.0852,0 0.21647,-1.79064 0.29178,-3.97918 z m -81.803662,-0.68925 c 0.66787,-0.29382 2.456952,-1.20076 3.975762,-2.01543 l 2.76147,-1.48122 2.9929,-3.36014 c 5.10171,-5.72768 8.74453,-10.04331 8.74453,-10.35954 0,-0.16653 -0.87875,-3.56608 -1.95279,-7.55459 -1.07402,-3.9885 -2.31263,-8.63884 -2.75244,-10.33407 l -0.79966,-3.08225 -2.2603,-1.16075 c -2.72529,-1.39955 -4.00248,-2.21034 -7.118,-4.51869 -2.813617,-2.08467 -6.300149,-5.02038 -10.077166,-8.48512 -2.491453,-2.28546 -3.152322,-2.78229 -3.152322,-2.3698 0,0.55558 7.691224,53.26963 7.979131,54.68736 0.06343,0.31264 0.189495,0.56846 0.280009,0.56846 0.09046,0 0.711006,-0.2404 1.378876,-0.53422 z"
     id="path4387" />
  <path
     style="display:inline;opacity:0.99;mix-blend-mode:normal;fill:#00ffff;fill-opacity:1;stroke:none;stroke-width:1.18395;stroke-miterlimit:4;stroke-dasharray:none;stroke-opacity:1;stop-color:#000000"
     d="m 83.889977,186.59622 c -0.260415,-0.77449 -11.185825,-75.80115 -11.056952,-75.93003 0.07077,-0.0708 1.738751,1.3909 3.706525,3.24823 9.797873,9.24797 19.055508,16.16145 25.37178,18.94739 l 1.74577,0.76999 1.65557,6.53925 c 0.91059,3.59657 2.62711,10.02997 3.8145,14.29645 1.18741,4.26645 2.15892,7.90604 2.15892,8.08799 0,0.32194 -15.435259,17.96259 -16.317016,18.64841 -0.243143,0.18908 -2.804313,1.57217 -5.691503,3.07348 -3.66507,1.90581 -5.291126,2.60567 -5.387594,2.31884 z"
     id="path4725-1" />
  <path
     style="display:inline;opacity:0.99;mix-blend-mode:normal;fill:#00ccff;fill-opacity:1;stroke:none;stroke-width:1.67435;stroke-miterlimit:4;stroke-dasharray:none;stroke-opacity:1;stop-color:#000000"
     d="m 135.85331,70.709959 c -0.50593,-0.640792 -4.91243,-8.364824 -7.52116,-13.18365 -3.26876,-6.038044 -6.8574,-14.604435 -7.80381,-18.628295 l -0.26755,-1.137565 14.43102,-0.552488 c 7.93706,-0.303861 14.4802,-0.489688 14.54032,-0.412958 0.0602,0.07679 -1.01485,5.223028 -2.38882,11.43623 l -2.49813,11.296689 -2.83261,4.20858 c -4.76093,7.073567 -5.17621,7.585285 -5.65926,6.973457 z"
     id="path4727-8" />
  <path
     style="display:inline;opacity:0.99;mix-blend-mode:normal;fill:#00aad4;fill-opacity:1;stroke:none;stroke-width:1.67435;stroke-miterlimit:4;stroke-dasharray:none;stroke-opacity:1;stop-color:#000000"
     d="m 163.21863,115.47636 c -5.44981,-14.25879 -12.89188,-30.108313 -17.22901,-36.692897 -2.50049,-3.796226 -6.23735,-7.515832 -7.5507,-7.515832 -0.73083,0 -0.21175,-0.991986 2.97133,-5.678286 l 3.85686,-5.678316 2.41065,-11.164625 c 1.32587,-6.140559 2.56288,-11.110923 2.74894,-11.045244 0.49293,0.173951 49.5519,57.541171 49.5519,57.943622 0,0.352904 -33.1946,24.199648 -34.24913,24.604298 -0.42346,0.16244 -1.15881,-1.23528 -2.51084,-4.77272 z"
     id="path4729-7" />
  <path
     style="display:inline;opacity:0.99;mix-blend-mode:normal;fill:#006680;fill-opacity:1;stroke:none;stroke-width:1.67435;stroke-miterlimit:4;stroke-dasharray:none;stroke-opacity:1;stop-color:#000000"
     d="m 90.656687,192.25341 c -2.990089,-2.21743 -5.400721,-4.23103 -5.356945,-4.47468 0.06846,-0.38082 9.653519,-5.74466 9.704637,-5.43073 0.08983,0.55196 1.185219,13.85853 1.143582,13.89248 -0.03017,0.0246 -2.501168,-1.76965 -5.491274,-3.98707 z"
     id="path4731-9" />
  <path
     style="display:inline;opacity:0.99;mix-blend-mode:normal;fill:#006680;fill-opacity:1;stroke:none;stroke-width:1.67435;stroke-miterlimit:4;stroke-dasharray:none;stroke-opacity:1;stop-color:#000000"
     d="m 116.69311,211.44123 c -9.868,-7.30212 -18.300038,-13.52021 -18.737859,-13.81797 -0.667223,-0.45377 -0.900206,-1.78228 -1.439899,-8.21052 l -0.643901,-7.66914 7.787919,-8.83289 c 4.28336,-4.8581 7.85972,-8.8329 7.94747,-8.8329 0.0878,0 0.6856,1.74433 1.32854,3.87633 4.35085,14.42735 9.4937,29.30987 13.28034,38.43092 1.91679,4.61706 6.31472,13.53784 7.95564,16.13723 1.1969,1.89602 1.32848,2.26329 0.79581,2.22156 -0.18274,-0.0149 -8.40606,-6.00048 -18.27406,-13.30262 z"
     id="path4733-2" />
  <path
     style="display:inline;opacity:0.99;mix-blend-mode:normal;fill:#80e5ff;fill-opacity:1;stroke:none;stroke-width:1.67435;stroke-miterlimit:4;stroke-dasharray:none;stroke-opacity:1;stop-color:#000000"
     d="m 99.873646,130.80891 c -6.587084,-3.5903 -14.656698,-9.85515 -22.732943,-17.64873 l -4.454336,-4.29843 23.41931,-35.083997 23.419333,-35.083983 0.57062,2.22966 c 1.32047,5.159734 6.23072,15.477713 12.33237,25.914127 3.8664,6.613157 3.81962,6.114995 1.22677,13.068737 -3.6957,9.911452 -13.56293,27.557936 -27.31035,48.841616 -1.37708,2.13199 -2.65212,3.87352 -2.83342,3.87009 -0.1813,-0.003 -1.81811,-0.81751 -3.637354,-1.80909 z"
     id="path4735-0" />
  <path
     style="display:inline;opacity:0.99;mix-blend-mode:normal;fill:#0088aa;fill-opacity:1;stroke:none;stroke-width:1.67435;stroke-miterlimit:4;stroke-dasharray:none;stroke-opacity:1;stop-color:#000000"
     d="m 179.57087,177.90491 -18.37416,-14.71312 2.09268,-20.37837 c 1.15097,-11.20811 2.25162,-20.62286 2.44588,-20.9217 0.19426,-0.29883 8.02832,-6.01594 17.40902,-12.70472 l 17.05581,-12.161399 0.1263,3.180059 c 0.13857,3.48876 -2.0109,92.04183 -2.23976,92.27068 -0.0779,0.0779 -8.41001,-6.47924 -18.51582,-14.57143 z"
     id="path4737-2" />
  <path
     style="display:inline;opacity:0.99;mix-blend-mode:normal;fill:#008080;fill-opacity:1;stroke:none;stroke-width:1.18395;stroke-miterlimit:4;stroke-dasharray:none;stroke-opacity:1;stop-color:#000000"
     d="m 140.10602,228.00588 c -3.33688,-6.54084 -1.5042,-23.3862 4.55752,-41.89099 2.70272,-8.25066 8.39398,-16.17353 15.56373,-21.66643 0.48366,-0.37054 2.57961,1.21244 19.05046,14.38787 15.01466,12.01057 18.42928,14.87781 18.09515,15.19431 -0.31359,0.29704 -42.98385,26.8431 -54.67954,34.01728 l -1.95431,1.19875 z"
     id="path4739-3" />
  <path
     id="path4741-7"
     style="display:inline;opacity:0.99;mix-blend-mode:normal;fill:#00ffff;fill-opacity:1;stroke:none;stroke-width:1.18395;stroke-miterlimit:4;stroke-dasharray:none;stroke-opacity:1;stop-color:#000000"
     d="M 138.09766 72.244141 C 137.95563 72.230761 137.82078 72.233786 137.6875 72.253906 C 137.13825 72.335226 136.91439 72.81775 136.33789 75.171875 C 133.92748 85.014668 123.52841 104.38422 106.9375 129.93164 L 104.5332 133.63086 L 106.28711 140.42578 C 108.65242 149.59065 112.07607 161.87194 112.37305 162.25781 C 112.50562 162.43009 112.6127 162.78062 112.60938 163.03906 C 112.59467 164.35061 119.19165 184.99097 122.75195 194.77148 C 127.88157 208.86305 133.56098 220.78363 137.54492 225.81641 C 138.62309 227.17842 138.91424 226.9527 138.38867 225.16211 C 138.19602 224.50577 137.95769 222.27645 137.85938 220.20898 C 137.50684 212.79116 139.25372 202.34762 142.9668 189.66602 C 146.14497 178.8114 150.3527 172.16512 158.65039 164.89453 L 160.58984 163.19727 L 162.70312 142.45703 L 164.81641 121.7168 L 162.51953 115.83008 C 154.51082 95.304436 147.19996 80.739224 142.14453 75.238281 C 140.32507 73.258496 139.0919 72.337628 138.09766 72.244141 z M 137.71094 122.11914 L 138.53906 122.11914 L 138.54102 122.11914 L 140.19922 122.11914 L 147.94336 122.11914 C 147.94336 122.11914 148.2389 122.20067 148.52539 122.47656 C 148.59699 122.54548 148.66877 122.62561 148.73438 122.7207 C 148.93171 123.00619 149.07999 123.41772 149.05078 124.00391 C 148.97308 125.56469 147.9043 125.61914 147.9043 125.61914 L 145.96875 125.61914 L 145.9668 125.61914 L 144.03125 125.61914 L 142.0957 125.61914 L 140.16016 125.61914 L 140.14258 127.27734 L 140.12305 128.9375 L 140.10352 130.5957 L 140.08398 132.25586 L 140.06641 133.91602 L 140.04688 135.57422 L 140.02734 137.23438 L 140.00781 138.875 L 140.00781 138.89258 L 140.00781 138.89453 L 139.98828 140.55273 L 139.96875 142.21094 L 139.96875 142.21289 L 139.94922 143.87305 L 139.93164 145.53125 L 139.91211 147.17188 L 139.91211 147.18945 L 139.91211 147.19141 L 139.89258 148.84961 L 139.87305 150.50781 L 139.87305 150.50977 L 139.87305 150.52734 L 139.85547 152.16992 C 139.85547 152.16992 139.82179 152.2194 139.75586 152.29688 C 139.61803 152.45934 139.32705 152.73266 138.87891 152.88281 C 138.68924 152.94636 138.47719 152.99219 138.22852 152.99219 C 137.92071 152.99219 137.65978 152.94036 137.44336 152.86328 C 137.33575 152.82496 137.23914 152.77834 137.15234 152.73047 C 137.15183 152.73018 137.15091 152.73075 137.15039 152.73047 C 136.71454 152.48961 136.53516 152.16992 136.53516 152.16992 L 136.83984 125.61914 L 136.85938 123.86914 L 136.86914 122.99414 C 136.87064 122.84836 136.87597 122.73328 136.9043 122.62891 C 136.93263 122.52453 136.98496 122.43122 137.08398 122.32812 C 137.28194 122.12207 137.43432 122.11914 137.71094 122.11914 z M 123.00586 122.17188 L 131.16211 122.17188 L 132.91016 122.17188 L 133.78516 122.17188 C 134.07657 122.17188 134.23536 122.17255 134.44141 122.37891 C 134.64755 122.58509 134.66016 122.75334 134.66016 123.04492 L 134.66016 123.91992 L 134.66016 125.66992 L 134.66016 152.2207 C 134.66016 152.2207 134.16425 153.04297 132.86719 153.04297 C 131.69262 153.04297 131.16211 152.2207 131.16211 152.2207 L 131.16211 150.56055 L 131.16211 148.90234 L 131.16211 147.24219 L 131.16211 145.58203 L 131.16211 143.92383 L 131.16211 142.26367 L 131.16211 140.60547 L 131.16211 138.94336 L 131.16211 137.28516 L 131.16211 135.62695 L 131.16211 133.9668 L 131.16211 132.30859 L 131.16211 130.64844 L 131.16211 128.98828 L 131.16211 127.32812 L 131.16211 125.66992 L 129.12305 125.66992 L 127.08398 125.66992 L 125.04297 125.66992 L 123.00586 125.66992 C 123.00586 125.66992 121.87941 125.61538 121.81641 124.05469 C 121.75341 122.49392 123.00586 122.17187 123.00586 122.17188 z " />
  <path
     id="path4743-5"
     style="display:inline;opacity:0.354053;mix-blend-mode:normal;fill:#ffffff;fill-opacity:1;stroke:none;stroke-width:3.96445;stroke-miterlimit:4;stroke-dasharray:none;stroke-opacity:1;stop-color:#000000"
     d="m 93.799486,33.124823 a 92.373686,128.18367 0 0 0 -0.179014,0.141393 92.373686,128.18367 0 0 1 0.179014,-0.140397 z m -0.179014,0.141393 a 92.373686,128.18367 0 0 0 -0.191876,0.150833 92.373686,128.18367 0 0 0 -0.107905,0.08565 92.373686,128.18367 0 0 0 -0.321197,0.256961 92.373686,128.18367 0 0 0 -0.10028,0.08051 92.373686,128.18367 0 0 0 -0.122492,0.09934 92.373686,128.18367 0 0 0 -0.305799,0.247551 92.373686,128.18367 0 0 0 -0.30235,0.248396 92.373686,128.18367 0 0 0 -0.216723,0.179014 92.373686,128.18367 0 0 0 -0.05138,0.04277 92.373686,128.18367 0 0 0 -0.348646,0.290384 92.373686,128.18367 0 0 0 -0.118181,0.09923 92.373686,128.18367 0 0 0 -0.261261,0.219281 92.373686,128.18367 0 0 0 -0.208136,0.177302 92.373686,128.18367 0 0 0 -0.226999,0.193586 92.373686,128.18367 0 0 0 -0.144702,0.124979 92.373686,128.18367 0 0 0 -0.195274,0.167872 92.373686,128.18367 0 0 0 -0.11984,0.104427 92.373686,128.18367 0 0 0 -0.374304,0.327189 92.373686,128.18367 0 0 0 -0.177307,0.155816 92.373686,128.18367 0 0 0 -0.201306,0.177302 92.373686,128.18367 0 0 0 -0.179892,0.160123 92.373686,128.18367 0 0 0 -0.250934,0.224413 92.373686,128.18367 0 0 0 -0.279246,0.251828 92.373686,128.18367 0 0 0 -0.07707,0.07025 92.373686,128.18367 0 0 0 -0.250104,0.227825 92.373686,128.18367 0 0 0 -0.227,0.208149 92.373686,128.18367 0 0 0 -0.111385,0.102767 92.373686,128.18367 0 0 0 -0.256106,0.235554 92.373686,128.18367 0 0 0 -0.200429,0.187588 92.373686,128.18367 0 0 0 -0.211601,0.197854 92.373686,128.18367 0 0 0 -0.337473,0.31951 92.373686,128.18367 0 0 0 -0.0066,0.007 92.373686,128.18367 0 0 1 0.0066,-0.005 92.373686,128.18367 0 0 1 0.337473,-0.31948 92.373686,128.18367 0 0 1 0.211601,-0.197864 92.373686,128.18367 0 0 1 0.200429,-0.187588 92.373686,128.18367 0 0 1 0.256106,-0.235544 92.373686,128.18367 0 0 1 0.111385,-0.102767 92.373686,128.18367 0 0 1 0.227,-0.208139 92.373686,128.18367 0 0 1 0.250104,-0.227845 92.373686,128.18367 0 0 1 0.07707,-0.07025 92.373686,128.18367 0 0 1 0.279246,-0.251828 92.373686,128.18367 0 0 1 0.250934,-0.224413 92.373686,128.18367 0 0 1 0.179892,-0.160123 92.373686,128.18367 0 0 1 0.201306,-0.177302 92.373686,128.18367 0 0 1 0.177307,-0.155806 92.373686,128.18367 0 0 1 0.374304,-0.327199 92.373686,128.18367 0 0 1 0.11984,-0.104427 92.373686,128.18367 0 0 1 0.195274,-0.167893 92.373686,128.18367 0 0 1 0.144702,-0.124978 92.373686,128.18367 0 0 1 0.226999,-0.193576 92.373686,128.18367 0 0 1 0.208136,-0.177313 92.373686,128.18367 0 0 1 0.261261,-0.21927 92.373686,128.18367 0 0 1 0.118181,-0.09943 92.373686,128.18367 0 0 1 0.348646,-0.290365 92.373686,128.18367 0 0 1 0.05138,-0.04277 92.373686,128.18367 0 0 1 0.216723,-0.179013 92.373686,128.18367 0 0 1 0.30235,-0.248417 92.373686,128.18367 0 0 1 0.305799,-0.247541 92.373686,128.18367 0 0 1 0.122492,-0.09943 92.373686,128.18367 0 0 1 0.10028,-0.08051 92.373686,128.18367 0 0 1 0.321197,-0.256971 92.373686,128.18367 0 0 1 0.107905,-0.08565 92.373686,128.18367 0 0 1 0.191876,-0.151659 z M 110.12283,52.779351 102.7222,63.864882 127.331,93.49478 c 2.63115,-5.012483 4.65588,-9.314459 6.00189,-12.769495 z m 24.02292,28.924111 c -1.45065,3.608658 -3.4824,7.893303 -6.0233,12.744667 l 35.15896,42.333441 1.53582,-15.06506 -2.26987,-5.81514 z m 30.03162,36.159408 c 0.76278,1.77773 1.2423,2.50518 1.5521,2.38635 0.0338,-0.0133 0.18823,-0.11386 0.28524,-0.173 z m 2.63306,3.17011 c -0.61302,0.46633 -1.03569,0.79873 -1.07499,0.85913 -0.16161,0.24866 -0.95816,6.9249 -1.88185,15.57813 l 34.67671,41.75186 c 0.15166,-5.44896 0.32537,-12.14762 0.50795,-19.38468 z" />
  <path
     id="path4745-9"
     style="opacity:0.99;mix-blend-mode:normal;fill:#006680;fill-opacity:0.992157;stroke:none;stroke-width:3.81335;stroke-miterlimit:4;stroke-dasharray:none;stroke-opacity:0.984314;paint-order:stroke fill markers;stop-color:#000000"
     d="m 123.00454,122.17185 c 0,0 -1.25211,0.32317 -1.1891,1.88394 0.063,1.56077 1.1891,1.61497 1.1891,1.61497 h 2.03939 2.03939 2.03939 2.0394 v 1.6594 1.65941 1.65939 1.6594 1.65941 1.6594 1.65941 1.6594 1.65939 1.65941 1.6594 1.6594 1.65941 1.65939 1.65941 1.6594 c 0,0 0.52902,0.82213 1.70359,0.82213 1.29706,0 1.79335,-0.82213 1.79335,-0.82213 v -26.55043 -1.74945 -0.87473 c 0,-0.29157 -0.0111,-0.46019 -0.2172,-0.66637 -0.20606,-0.20605 -0.36562,-0.20836 -0.65703,-0.20836 h -0.87423 -1.74848 z"
     sodipodi:nodetypes="czcccccccccccccccccccccsccssssscc" />
  <path
     id="path4747-2"
     style="display:inline;opacity:0.354053;mix-blend-mode:normal;fill:#ffffff;fill-opacity:1;stroke:none;stroke-width:3.96445;stroke-miterlimit:4;stroke-dasharray:none;stroke-opacity:1;stop-color:#000000"
     d="m 92.451172,79.251953 -19.765625,29.609377 4.455078,4.29883 c 8.076261,7.79358 16.145371,14.05812 22.732422,17.64843 1.819263,0.99158 3.457373,1.80529 3.638673,1.8086 0.1813,0.003 1.45497,-1.73715 2.83203,-3.86914 4.28735,-6.6377 8.19706,-12.9207 11.66016,-18.72657 z M 72.832031,110.66602 c -0.04028,0.0403 1.118441,8.16942 2.574219,18.28515 l 31.87891,38.38477 c 2.26903,-2.62953 4,-4.67546 4,-4.78125 0,-0.18194 -0.97082,-3.82144 -2.15821,-8.08789 -1.18738,-4.26648 -2.90387,-10.69839 -3.81445,-14.29492 l -1.65625,-6.53907 -1.74609,-0.77148 c -6.316262,-2.78593 -15.573239,-9.69929 -25.371098,-18.94727 -1.967804,-1.85731 -3.636237,-3.31882 -3.707031,-3.24804 z m 45.960939,0.30468 c -3.49817,5.84883 -7.45293,12.17871 -11.85742,18.96094 l -2.40235,3.70117 1.75391,6.79297 c 2.36531,9.16485 5.78894,21.44421 6.08594,21.83008 0.1326,0.17228 0.23966,0.52672 0.23633,0.78516 -0.008,0.78918 2.38347,8.58841 5.06054,16.79687 l 21.43946,25.81836 c 0.8628,-4.80794 2.15016,-10.15949 3.85742,-15.99023 3.17817,-10.85461 7.3859,-17.50091 15.68359,-24.77149 l 1.93945,-1.69726 0.17188,-1.69532 -26.10352,-31.42968 v 22.14843 c 0,0 -0.49591,0.82227 -1.79297,0.82227 -1.17457,0 -1.70312,-0.82227 -1.70312,-0.82227 v -1.6582 -1.66016 -1.66015 -1.65821 -1.66015 -1.65821 -1.66015 -1.66016 -1.6582 -1.66016 -1.66015 -1.65821 -1.66015 -1.65821 -1.66015 -1.4668 l -0.16016,-0.19336 h -1.8789 -2.03907 -2.04101 -2.03906 c 0,0 -1.1245,-0.0525 -1.1875,-1.61328 -0.063,-1.56077 1.1875,-1.88476 1.1875,-1.88476 h 5.09179 z m 42.50976,51.1836 -0.10546,1.03711 2.89062,2.3164 z m -49.69531,1.92382 c -0.054,0 -1.63255,1.74241 -3.67969,4.03126 l 8.09961,9.75195 c -1.05402,-3.27832 -2.09504,-6.60294 -3.09179,-9.90821 -0.64293,-2.132 -1.24029,-3.87499 -1.32813,-3.875 z m 48.73242,0.32618 c -0.0459,0.005 -0.083,0.0216 -0.11328,0.0449 -7.16977,5.49287 -12.85978,13.41534 -15.5625,21.66601 -2.33264,7.12086 -4.03787,13.99203 -5.06445,20.12891 l 13.01758,15.67383 c 12.03946,-7.45242 29.11555,-18.07143 38.45898,-23.91602 l -23.93555,-28.82031 c -4.98729,-3.91319 -6.3578,-4.8308 -6.80078,-4.77734 z m 51.54493,59.54492 a 92.373686,128.18367 0 0 1 -0.60547,1.05664 92.373686,128.18367 0 0 0 0.60547,-1.05664 z m -0.61133,1.0664 a 92.373686,128.18367 0 0 1 -0.46289,0.79297 92.373686,128.18367 0 0 0 0.46289,-0.79297 z m -0.46289,0.79297 a 92.373686,128.18367 0 0 1 -0.46875,0.78711 92.373686,128.18367 0 0 0 0.32422,-0.54101 92.373686,128.18367 0 0 0 0.14453,-0.2461 z m -0.46875,0.78711 a 92.373686,128.18367 0 0 1 -0.47071,0.78125 92.373686,128.18367 0 0 0 0.47071,-0.78125 z m -0.47071,0.78125 a 92.373686,128.18367 0 0 1 -0.45703,0.7461 92.373686,128.18367 0 0 0 0.31641,-0.51172 92.373686,128.18367 0 0 0 0.14062,-0.23438 z m -0.47656,0.77539 a 92.373686,128.18367 0 0 1 -0.93945,1.5 92.373686,128.18367 0 0 0 0.32226,-0.50781 92.373686,128.18367 0 0 0 0.31836,-0.50781 92.373686,128.18367 0 0 0 0.29883,-0.48438 z m -1.23047,1.95313 a 92.373686,128.18367 0 0 1 -0.71875,1.10156 92.373686,128.18367 0 0 0 0.36133,-0.54883 92.373686,128.18367 0 0 0 0.12305,-0.18945 92.373686,128.18367 0 0 0 0.20312,-0.3125 92.373686,128.18367 0 0 0 0.0312,-0.0508 z m -0.71875,1.10156 a 92.373686,128.18367 0 0 1 -0.49804,0.75 92.373686,128.18367 0 0 0 0.20312,-0.30273 92.373686,128.18367 0 0 0 0.29492,-0.44727 z m -1,1.49414 a 92.373686,128.18367 0 0 1 -0.93359,1.35156 92.373686,128.18367 0 0 0 0.30273,-0.43164 92.373686,128.18367 0 0 0 0.33594,-0.48828 92.373686,128.18367 0 0 0 0.29492,-0.43164 z m -0.93359,1.35156 a 92.373686,128.18367 0 0 1 -0.084,0.11915 92.373686,128.18367 0 0 0 0.0488,-0.0664 92.373686,128.18367 0 0 0 0.0352,-0.0527 z m -0.71875,1.01563 a 92.373686,128.18367 0 0 1 -0.34375,0.47656 92.373686,128.18367 0 0 0 0.3125,-0.43164 92.373686,128.18367 0 0 0 0.0312,-0.0449 z m -0.40039,0.55273 a 92.373686,128.18367 0 0 1 -0.52344,0.7168 92.373686,128.18367 0 0 0 0.52344,-0.7168 z m -0.52344,0.7168 a 92.373686,128.18367 0 0 1 -0.33203,0.44922 92.373686,128.18367 0 0 0 0.21875,-0.29297 92.373686,128.18367 0 0 0 0.11328,-0.15625 z m -0.33203,0.44922 a 92.373686,128.18367 0 0 1 -0.53125,0.70508 92.373686,128.18367 0 0 0 0.40039,-0.52735 92.373686,128.18367 0 0 0 0.13086,-0.17773 z m -1.05664,1.39844 a 92.373686,128.18367 0 0 1 -0.53906,0.69336 92.373686,128.18367 0 0 0 0.0488,-0.0605 92.373686,128.18367 0 0 0 0.13672,-0.17383 92.373686,128.18367 0 0 0 0.22071,-0.28515 92.373686,128.18367 0 0 0 0.13281,-0.17383 z m -0.53906,0.69336 a 92.373686,128.18367 0 0 1 -0.34766,0.44531 92.373686,128.18367 0 0 0 0.0391,-0.0488 92.373686,128.18367 0 0 0 0.13477,-0.17187 92.373686,128.18367 0 0 0 0.17383,-0.22461 z m -0.89649,1.13281 a 92.373686,128.18367 0 0 1 -0.10742,0.13672 92.373686,128.18367 0 0 0 0.10938,-0.13672 z m -1.23047,1.50976 a 92.373686,128.18367 0 0 1 -0.73828,0.87891 92.373686,128.18367 0 0 0 0.3711,-0.4375 92.373686,128.18367 0 0 0 0.36718,-0.44141 z m -1.10937,1.31446 a 92.373686,128.18367 0 0 1 -0.43946,0.50781 92.373686,128.18367 0 0 0 0.0664,-0.0742 92.373686,128.18367 0 0 0 0.37305,-0.43359 z m -0.74805,0.86328 a 92.373686,128.18367 0 0 1 -0.92969,1.04687 92.373686,128.18367 0 0 0 0.17383,-0.19336 92.373686,128.18367 0 0 0 0.14453,-0.16015 92.373686,128.18367 0 0 0 0.23438,-0.26563 92.373686,128.18367 0 0 0 0.37695,-0.42773 z m -1.57617,1.75781 a 92.373686,128.18367 0 0 1 -0.58008,0.62695 92.373686,128.18367 0 0 0 0.25586,-0.27343 92.373686,128.18367 0 0 0 0.32422,-0.35352 z m -1.0957,1.17774 a 92.373686,128.18367 0 0 1 -0.62891,0.66015 92.373686,128.18367 0 0 0 0.24219,-0.25195 92.373686,128.18367 0 0 0 0.0449,-0.0469 92.373686,128.18367 0 0 0 0.31055,-0.32812 92.373686,128.18367 0 0 0 0.0312,-0.0332 z m -1.83789,1.89453 a 92.373686,128.18367 0 0 1 -0.48438,0.48437 92.373686,128.18367 0 0 0 0.36914,-0.36719 92.373686,128.18367 0 0 0 0.11524,-0.11718 z m -0.59766,0.59375 a 92.373686,128.18367 0 0 1 -0.59961,0.58789 92.373686,128.18367 0 0 0 0.18555,-0.17969 92.373686,128.18367 0 0 0 0.10351,-0.10156 92.373686,128.18367 0 0 0 0.15039,-0.14649 92.373686,128.18367 0 0 0 0.16016,-0.16015 z m -0.59961,0.58789 a 92.373686,128.18367 0 0 1 -0.60352,0.58203 92.373686,128.18367 0 0 0 0.0957,-0.0898 92.373686,128.18367 0 0 0 0.39843,-0.38476 92.373686,128.18367 0 0 0 0.10938,-0.10742 z m -0.91016,0.87304 a 92.373686,128.18367 0 0 1 -0.65429,0.61329 92.373686,128.18367 0 0 0 0.25195,-0.23243 92.373686,128.18367 0 0 0 0.15234,-0.14257 92.373686,128.18367 0 0 0 0.25,-0.23829 z m -0.91211,0.85157 a 92.373686,128.18367 0 0 1 -0.55468,0.50781 92.373686,128.18367 0 0 0 0.2539,-0.23047 92.373686,128.18367 0 0 0 0.30078,-0.27734 z m -0.55468,0.50781 a 92.373686,128.18367 0 0 1 -0.1543,0.14062 92.373686,128.18367 0 0 0 0.043,-0.0371 92.373686,128.18367 0 0 0 0.11133,-0.10352 z m -1.85938,1.64453 a 92.373686,128.18367 0 0 1 -1.85937,1.5625 92.373686,128.18367 0 0 0 0.25976,-0.21289 92.373686,128.18367 0 0 0 0.0332,-0.0273 92.373686,128.18367 0 0 0 0.29687,-0.2461 92.373686,128.18367 0 0 0 0.0879,-0.0723 92.373686,128.18367 0 0 0 0.1582,-0.13282 92.373686,128.18367 0 0 0 0.25977,-0.21679 92.373686,128.18367 0 0 0 0.0215,-0.0195 92.373686,128.18367 0 0 0 0.34375,-0.29102 92.373686,128.18367 0 0 0 0.0488,-0.043 92.373686,128.18367 0 0 0 0.0254,-0.0195 92.373686,128.18367 0 0 0 0.32422,-0.28125 z m -3.19726,2.63086 a 92.373686,128.18367 0 0 1 -0.10743,0.0859 92.373686,128.18367 0 0 0 0.0195,-0.0137 92.373686,128.18367 0 0 0 0.0879,-0.0723 z m -0.59961,0.46875 a 92.373686,128.18367 0 0 1 -1.25977,0.95508 92.373686,128.18367 0 0 0 0.21094,-0.15625 92.373686,128.18367 0 0 0 0.0176,-0.0117 92.373686,128.18367 0 0 0 0.26562,-0.20117 92.373686,128.18367 0 0 0 0.16211,-0.1211 92.373686,128.18367 0 0 0 0.26563,-0.20312 92.373686,128.18367 0 0 0 0.16015,-0.12305 92.373686,128.18367 0 0 0 0.17774,-0.13867 z m -1.35157,1.02344 a 92.373686,128.18367 0 0 1 -0.32226,0.23828 v 0.002 a 92.373686,128.18367 0 0 0 0.21484,-0.1582 92.373686,128.18367 0 0 0 0.10742,-0.082 z" />
  <path
     id="path4749-2"
     style="opacity:0.99;mix-blend-mode:normal;fill:#006680;fill-opacity:0.992157;stroke:none;stroke-width:3.71535;stroke-miterlimit:4;stroke-dasharray:none;stroke-opacity:0.984314;paint-order:stroke fill markers;stop-color:#000000"
     d="m 147.94365,122.11999 c 0,0 1.18486,0.32317 1.1071,1.88393 -0.0777,1.56078 -1.14733,1.61498 -1.14733,1.61498 h -1.93591 -1.93591 -1.93591 -1.93592 l -0.0191,1.6594 -0.0191,1.65941 -0.0191,1.65939 -0.0191,1.6594 -0.0191,1.65941 -0.0191,1.6594 -0.0191,1.65941 -0.0191,1.65939 -0.0191,1.6594 -0.0191,1.65941 -0.0191,1.6594 -0.0191,1.6594 -0.0191,1.65941 -0.0191,1.65939 -0.0191,1.65941 -0.0191,1.6594 c 0,0 -0.51162,0.82213 -1.6266,0.82213 -1.23124,0 -1.6929,-0.82213 -1.6929,-0.82213 l 0.30524,-26.55043 0.0201,-1.74945 0.0101,-0.87473 c 0.003,-0.29157 0.0158,-0.46019 0.21385,-0.66637 0.19796,-0.20605 0.34946,-0.20836 0.62608,-0.20836 h 0.82988 1.65975 z"
     sodipodi:nodetypes="czcccccccccccccccccccccsccssssscc" />
</svg>
