<?xml version="1.0" encoding="UTF-8" standalone="no"?>
<svg
   width="48px"
   height="48px"
   viewBox="0 0 48 48"
   version="1"
   enable-background="new 0 0 48 48"
   id="svg230"
   sodipodi:docname="bobeda.svg"
   inkscape:version="1.2.2 (732a01da63, 2022-12-09, custom)"
   xmlns:inkscape="http://www.inkscape.org/namespaces/inkscape"
   xmlns:sodipodi="http://sodipodi.sourceforge.net/DTD/sodipodi-0.dtd"
   xmlns="http://www.w3.org/2000/svg"
   xmlns:svg="http://www.w3.org/2000/svg">
  <defs
     id="defs234" />
  <sodipodi:namedview
     id="namedview232"
     pagecolor="#000000"
     bordercolor="#000000"
     borderopacity="0.25"
     inkscape:showpageshadow="2"
     inkscape:pageopacity="0"
     inkscape:pagecheckerboard="0"
     inkscape:deskcolor="#d1d1d1"
     showgrid="false"
     inkscape:zoom="2.609375"
     inkscape:cx="-29.700599"
     inkscape:cy="10.538922"
     inkscape:window-width="1360"
     inkscape:window-height="704"
     inkscape:window-x="0"
     inkscape:window-y="27"
     inkscape:window-maximized="1"
     inkscape:current-layer="svg230" />
  <rect
     x="8"
     y="39"
     fill="#455A64"
     width="6"
     height="3"
     id="rect198"
     style="fill:#ffffff;fill-opacity:1" />
  <rect
     x="34"
     y="39"
     fill="#455A64"
     width="6"
     height="3"
     id="rect200"
     style="fill:#ffffff;fill-opacity:1" />
  <path
     id="path202"
     d="M 8 7 C 5.8000022 7 4 8.8000022 4 11 L 4 37 C 4 39.199998 5.8000022 41 8 41 L 40 41 C 42.199998 41 44 39.199998 44 37 L 44 11 C 44 8.8000022 42.199998 7 40 7 L 8 7 z M 8 10 L 40 10 C 40.599999 10 41 10.400001 41 11 L 41 37 C 41 37.599999 40.599999 38 40 38 L 8 38 C 7.4000006 38 7 37.599999 7 37 L 7 11 C 7 10.400001 7.4000006 10 8 10 z "
     style="fill:#ffffff;fill-opacity:1" />
  <path
     fill="#CFD8DC"
     d="M12,18c-1.1,0-2,0.9-2,2v8c0,1.1,0.9,2,2,2s2-0.9,2-2v-8C14,18.9,13.1,18,12,18z"
     id="path228"
     style="fill:#ffffff;fill-opacity:1" />
  <path
     id="path996"
     style="fill:#ffffff;fill-opacity:1"
     d="m 28,14 c -5.499946,0 -10,4.500046 -10,10 0,5.499954 4.500054,10 10,10 5.499955,0 10,-4.500046 10,-10 0,-5.499954 -4.500045,-10 -10,-10 z m -0.02734,0.5 c 0.6,0 1,0.400004 1,1 v 0.599609 c -0.299996,-0.1 -0.7,-0.09961 -1,-0.09961 -0.299996,0 -0.7,-3.91e-4 -1,0.09961 V 15.5 c 0,-0.599996 0.400004,-1 1,-1 z m -6,2.5 c 0.25,0 0.499219,0.100781 0.699219,0.300781 l 0.400391,0.398438 c -0.5,0.399997 -1.000391,0.900393 -1.400391,1.40039 l -0.398437,-0.40039 c -0.4,-0.4 -0.4,-0.998438 0,-1.398438 C 21.473435,17.100781 21.722659,17 21.972656,17 Z m 6.027344,0 c 3.899964,0 7,3.100036 7,7 0,3.899964 -3.100036,7 -7,7 -3.899964,0 -7,-3.100036 -7,-7 0,-3.899964 3.100036,-7 7,-7 z m 5.972656,0 c 0.25,0 0.499219,0.100781 0.699219,0.300781 0.399998,0.4 0.399998,0.998438 0,1.398438 l -0.398437,0.40039 c -0.4,-0.499995 -0.900392,-1.000395 -1.400391,-1.40039 l 0.400391,-0.398438 C 33.473433,17.100781 33.722661,17 33.972656,17 Z m -14.5,6 h 0.59961 c -0.1,0.3 -0.09961,0.7 -0.09961,1 0,0.3 -3.9e-4,0.7 0.09961,1 h -0.59961 c -0.599998,0 -1,-0.400002 -1,-1 0,-0.599998 0.400002,-1 1,-1 z m 16.400391,0 h 0.599609 c 0.599997,0 1,0.400006 1,1 0,0.599994 -0.400003,1 -1,1 h -0.599609 c 0.1,-0.3 0.09961,-0.7 0.09961,-1 0,-0.3 -0.09961,-0.7 -0.09961,-1 z m -14.201172,5.900391 c 0.4,0.499999 0.900391,1.000391 1.400391,1.40039 l -0.400391,0.398438 C 22.471879,30.899219 22.17266,31 21.97266,31 c -0.199999,0 -0.499219,-0.100781 -0.699218,-0.300781 -0.4,-0.4 -0.4,-0.998438 0,-1.398438 z m 12.601563,0 0.398437,0.40039 c 0.399997,0.4 0.399997,0.998438 0,1.398438 C 34.471876,30.899219 34.172656,31 33.972656,31 33.772663,31 33.473431,30.899219 33.273438,30.699219 l -0.400391,-0.398438 c 0.499999,-0.399993 1.000391,-0.900397 1.400391,-1.40039 z m -7.273438,3 c 0.3,0.1 0.7,0.09961 1,0.09961 0.3,0 0.7,3.91e-4 1,-0.09961 V 32.5 c 0,0.599992 -0.4,1 -1,1 -0.599992,0 -1,-0.400008 -1,-1 z" />
</svg>
