<?xml version="1.0" encoding="UTF-8" standalone="no"?>
<svg
   width="36px"
   height="36px"
   viewBox="0 0 36 36"
   version="1.1"
   preserveAspectRatio="xMidYMid meet"
   id="svg14424"
   sodipodi:docname="claim_.svg"
   xml:space="preserve"
   inkscape:version="1.2 (1:1.2.1+202207142221+cd75a1ee6d)"
   xmlns:inkscape="http://www.inkscape.org/namespaces/inkscape"
   xmlns:sodipodi="http://sodipodi.sourceforge.net/DTD/sodipodi-0.dtd"
   xmlns:xlink="http://www.w3.org/1999/xlink"
   xmlns="http://www.w3.org/2000/svg"
   xmlns:svg="http://www.w3.org/2000/svg"
   xmlns:rdf="http://www.w3.org/1999/02/22-rdf-syntax-ns#"
   xmlns:cc="http://creativecommons.org/ns#"
   xmlns:dc="http://purl.org/dc/elements/1.1/"><defs
     id="defs14428"><linearGradient
       inkscape:collect="always"
       id="linearGradient5865"><stop
         style="stop-color:#59bcef;stop-opacity:1;"
         offset="0"
         id="stop5861" /><stop
         style="stop-color:#07b276;stop-opacity:0.70440513;"
         offset="0.6855303"
         id="stop6595" /><stop
         style="stop-color:#05abff;stop-opacity:0;"
         offset="1"
         id="stop5863" /></linearGradient><linearGradient
       inkscape:collect="always"
       xlink:href="#linearGradient5865"
       id="linearGradient5867"
       x1="16.141567"
       y1="6.384872"
       x2="33.377899"
       y2="40.551426"
       gradientUnits="userSpaceOnUse" /><linearGradient
       inkscape:collect="always"
       xlink:href="#linearGradient5865"
       id="linearGradient5867-3"
       x1="16.141567"
       y1="6.384872"
       x2="33.377899"
       y2="40.551426"
       gradientUnits="userSpaceOnUse"
       gradientTransform="matrix(3.7795276,0,0,3.7795276,-98.934301,49.181558)" /><linearGradient
       inkscape:collect="always"
       xlink:href="#linearGradient5865"
       id="linearGradient15020"
       x1="21.447958"
       y1="30.262232"
       x2="31.355742"
       y2="30.207506"
       gradientUnits="userSpaceOnUse"
       gradientTransform="matrix(0.86460452,0,0,0.86460452,2.555366,2.4371186)" /><linearGradient
       inkscape:collect="always"
       xlink:href="#linearGradient5865"
       id="linearGradient15022"
       x1="23.486366"
       y1="26.130375"
       x2="32.197639"
       y2="26.839918"
       gradientUnits="userSpaceOnUse"
       gradientTransform="matrix(0.86460452,0,0,0.86460452,2.555366,2.4371186)" /><linearGradient
       inkscape:collect="always"
       xlink:href="#linearGradient5865"
       id="linearGradient15024"
       x1="27.884951"
       y1="21.281336"
       x2="14.635797"
       y2="23.607035"
       gradientUnits="userSpaceOnUse"
       gradientTransform="matrix(0.86460452,0,0,0.86460452,2.555366,2.4371186)" /><linearGradient
       inkscape:collect="always"
       xlink:href="#linearGradient5865"
       id="linearGradient15026"
       x1="19.734102"
       y1="18.380053"
       x2="14.433743"
       y2="27.681816"
       gradientUnits="userSpaceOnUse"
       gradientTransform="matrix(0.86460452,0,0,0.86460452,2.555366,2.4371186)" /><linearGradient
       inkscape:collect="always"
       xlink:href="#linearGradient5865"
       id="linearGradient15028"
       x1="12.571534"
       y1="30.910116"
       x2="22.347445"
       y2="30.207506"
       gradientUnits="userSpaceOnUse"
       gradientTransform="matrix(0.86460452,0,0,0.86460452,2.555366,2.4371186)" /><linearGradient
       inkscape:collect="always"
       xlink:href="#linearGradient5865"
       id="linearGradient15036"
       x1="28.255884"
       y1="4.9505963"
       x2="10.289565"
       y2="34.471542"
       gradientUnits="userSpaceOnUse"
       gradientTransform="matrix(0.86460452,0,0,0.86460452,2.555366,2.4371186)" /></defs><sodipodi:namedview
     id="namedview14426"
     pagecolor="#ffffff"
     bordercolor="#000000"
     borderopacity="0.25"
     inkscape:showpageshadow="2"
     inkscape:pageopacity="0.0"
     inkscape:pagecheckerboard="0"
     inkscape:deskcolor="#d1d1d1"
     showgrid="false"
     inkscape:zoom="7.4722222"
     inkscape:cx="27.836431"
     inkscape:cy="15.992565"
     inkscape:window-width="1360"
     inkscape:window-height="704"
     inkscape:window-x="0"
     inkscape:window-y="27"
     inkscape:window-maximized="1"
     inkscape:current-layer="svg14424" /><title
     id="title14408">coin-bag-solid</title><ellipse
     style="fill:#01090e;fill-opacity:1;stroke:#000000;stroke-width:0.129076;stroke-opacity:1"
     id="path4384-5"
     cx="18"
     cy="18"
     rx="16.26432"
     ry="16.585598" /><path
     d="m 23.252926,23.823264 h 5.721356 C 28.493863,17.483185 25.764208,13.545203 22.262971,11.215898 L 23.857089,7.7364978 A 0.72790796,0.72790796 0 0 0 23.194693,6.7174267 h -9.979618 a 0.72790796,0.72790796 0 0 0 -0.662396,1.0190711 l 0.873489,1.8925607 h 7.366429 L 20.137479,11.084874 H 18.79085 a 18.124908,18.124908 0 0 1 0.902606,3.413888 17.826466,17.826466 0 0 1 0.23293,2.183724 l -1.150094,0.807978 A 16.407046,16.407046 0 0 0 18.543361,14.68074 15.824719,15.824719 0 0 0 17.509732,11.084874 h -0.727908 a 20.541563,20.541563 0 0 0 -1.805211,2.69326 17.404279,17.404279 0 0 0 -1.084584,2.518561 l -0.997234,-0.662396 a 16.581743,16.581743 0 0 1 1.070025,-2.431212 22.426844,22.426844 0 0 1 1.397583,-2.118213 h -1.273839 l 0.05823,0.123745 c -3.85791,2.569515 -6.791379,7.082544 -6.791379,14.616392 a 1.2010482,1.2010482 0 0 0 1.1355364,1.273839 h 5.8232636 a 1.9435142,1.9435142 0 0 1 1.164653,-3.275586 1.9435142,1.9435142 0 0 1 -0.269326,-0.975397 1.9653515,1.9653515 0 0 1 1.965352,-1.965352 h 4.367447 a 1.9653515,1.9653515 0 0 1 1.965352,1.965352 1.9143979,1.9143979 0 0 1 -0.254767,0.975397 z"
     class="clr-i-solid clr-i-solid-path-1"
     id="path14410"
     style="fill:url(#linearGradient15036);fill-opacity:1;stroke-width:0.727908" /><path
     d="M 20.858108,25.643034 A 0.72790796,0.72790796 0 0 0 20.1302,24.915126 h -4.367447 a 0.727908,0.727908 0 0 0 0,1.455816 H 20.1302 a 0.72790796,0.72790796 0 0 0 0.727908,-0.727908 z"
     class="clr-i-solid clr-i-solid-path-2"
     id="path14412"
     style="fill:url(#linearGradient15026);fill-opacity:1;stroke-width:0.727908" /><path
     d="m 21.542342,22.003494 h -4.367447 a 0.727908,0.727908 0 0 0 0,1.455816 h 4.367447 a 0.727908,0.727908 0 0 0 0,-1.455816 z"
     class="clr-i-solid clr-i-solid-path-3"
     id="path14414"
     style="fill:url(#linearGradient15024);fill-opacity:1;stroke-width:0.727908" /><path
     d="m 21.149272,27.826758 h -4.367448 a 0.727908,0.727908 0 0 0 0,1.455816 h 4.367448 a 0.727908,0.727908 0 0 0 0,-1.455816 z"
     class="clr-i-solid clr-i-solid-path-4"
     id="path14416"
     style="fill:url(#linearGradient15028);fill-opacity:1;stroke-width:0.727908" /><path
     d="m 28.937887,27.826758 h -5.095356 a 0.727908,0.727908 0 0 0 0,1.455816 h 5.095356 a 0.727908,0.727908 0 0 0 0,-1.455816 z"
     class="clr-i-solid clr-i-solid-path-5"
     id="path14418"
     style="fill:url(#linearGradient15020);fill-opacity:1;stroke-width:0.727908" /><path
     d="m 29.665795,24.915126 h -5.095356 a 0.727908,0.727908 0 0 0 0,1.455816 h 5.095356 a 0.727908,0.727908 0 0 0 0,-1.455816 z"
     class="clr-i-solid clr-i-solid-path-6"
     id="path14420"
     style="fill:url(#linearGradient15022);fill-opacity:1;stroke-width:0.727908" /><rect
     x="0"
     y="0"
     width="36"
     height="36"
     fill-opacity="0"
     id="rect14422" /><g
     inkscape:label="Capa 1"
     id="layer1"
     transform="matrix(3.7795276,0,0,3.7795276,-268.52679,-74.681499)"><ellipse
       style="fill:#01090e;fill-opacity:1;stroke:#000000;stroke-width:0.17891;stroke-opacity:1"
       id="path4384"
       cx="25"
       cy="25"
       rx="22.543819"
       ry="22.989143" /><path
       d="m 13.963263,41.388846 -2.404927,-2.178393 0.719542,-1.720313 0.719541,-1.720291 7.37632,3.69358 7.376302,3.693589 -2.46e-4,0.113204 -2.63e-4,0.113206 -5.69067,0.092 -5.690672,0.092 z M 24.282308,35.282255 18.013183,26.949292 V 26.555051 26.16081 l 1.425817,-2.632457 1.425801,-2.632466 1.703908,0.05031 1.703891,0.05024 2.746386,0.297417 2.746368,0.297419 1.987712,10.432355 1.987712,10.432347 0.01839,0.579576 0.01839,0.579575 h -1.613085 -1.613099 l -6.269126,-8.332974 z m -3.718992,3.096237 -7.418553,-3.804649 -2.479213,-4.552971 -2.4792151,-4.552964 0.241448,-0.241429 0.2414299,-0.241429 4.1135882,1.053727 4.113585,1.053719 4.15177,5.512118 4.15177,5.512126 1.551308,2.053739 1.551326,2.05376 -0.160346,-0.02053 -0.160346,-0.02053 -7.418571,-3.804657 z m 14.864722,-1.718176 0.253278,-4.868431 0.224905,-1.390987 0.224904,-1.390972 2.238114,-2.398477 2.238098,-2.398476 0.827788,2.73397 0.827772,2.733964 -2.2286,3.837458 -2.228616,3.837436 -1.315469,2.08648 -1.31545,2.086457 z m -1.599604,1.565439 -0.05083,-0.984682 -1.567955,-8.056678 -1.567939,-8.056679 0.756534,-4.081919 0.756554,-4.081918 1.785414,1.830994 1.785413,1.830989 -0.569396,9.437655 -0.569412,9.437656 -0.353813,1.854628 -0.353794,1.854652 z m 2.281083,-12.063437 -0.01402,-1.456622 1.213864,-0.304662 1.213863,-0.304654 0.210131,0.210127 0.210133,0.210134 -1.410396,1.551157 -1.410415,1.551141 -0.01402,-1.456621 z M 12.083588,24.859539 8.2404493,23.796507 7.9887673,23.544841 7.7371027,23.293159 l 3.2457923,-8.037614 3.245772,-8.0376058 0.385373,0.2009131 0.385357,0.200913 2.608768,6.2697757 2.608768,6.269753 -1.550134,2.802516 -1.550134,2.802501 -0.594963,0.07903 -0.59498,0.07921 z m 11.523918,-4.850632 -2.519745,-0.27217 -2.684579,-6.46443 -2.684595,-6.4644532 0.2115,-0.2114759 0.211481,-0.2115061 6.996729,2.7280758 6.996746,2.7280764 0.486347,0.300593 0.486367,0.300584 -0.594367,3.995023 -0.59435,3.994991 -1.895903,-0.07555 -1.895903,-0.07555 z"
       style="fill:url(#linearGradient5867);fill-opacity:1;stroke-width:0.463659"
       id="path5281-7-6" /></g><path
     d="m -46.159763,205.61184 -9.089488,-8.23329 2.719529,-6.50197 2.719525,-6.50189 27.879005,13.95999 27.878937,13.96002 -9.298e-4,0.42786 -9.94e-4,0.42786 -21.5080442,0.34772 -21.508052,0.34772 z M -7.1586479,182.53182 -30.852979,151.03715 v -1.49004 -1.49005 l 5.388915,-9.94944 5.388854,-9.94948 6.439968,0.19015 6.4399031,0.18988 10.380041,1.1241 10.3799739,1.1241 7.512612,39.42937 7.512613,39.42935 0.0695,2.19052 0.06951,2.19052 H 22.632212 16.53546 l -23.6943339,-31.4947 z m -14.0560331,11.70231 -28.038625,-14.37978 -9.370254,-17.20808 -9.370262,-17.20805 0.912559,-0.91249 0.912491,-0.91249 15.54742,3.98259 15.547408,3.98256 15.69173,20.83321 15.6917291,20.83323 5.863211,7.76216 5.8632797,7.76225 -0.6060322,-0.0776 -0.6060321,-0.0776 -28.0386935,-14.37981 z m 56.181627,-6.4939 0.957272,-18.40036 0.850034,-5.25728 0.850031,-5.25722 8.459014,-9.06511 8.458953,-9.0651 3.128648,10.33311 3.128587,10.3331 -8.423056,14.50377 -8.423115,14.5037 -4.971852,7.88591 -4.971779,7.88582 z m -6.045747,5.91662 -0.192113,-3.72163 -5.92613,-30.45044 -5.926068,-30.45044 2.859341,-15.42772 2.859417,-15.427724 6.748021,6.920294 6.748018,6.92027 -2.152048,35.66988 -2.152109,35.66988 -1.337246,7.00962 -1.337174,7.00971 z m 8.621416,-45.59409 -0.05299,-5.50534 4.587833,-1.15148 4.587828,-1.15145 0.794196,0.79418 0.794204,0.79421 -5.330631,5.86264 -5.330702,5.86258 -0.05299,-5.50534 z m -90.806662,-4.92389 -14.525248,-4.01776 -0.951239,-0.95118 -0.951174,-0.95123 12.267562,-30.37839 12.267485,-30.378352 1.456528,0.759357 1.456467,0.759356 9.859911,23.696789 9.85991,23.69671 -5.858774,10.59218 -5.858774,10.59213 -2.248679,0.2987 -2.248744,0.29938 z m 43.5549661,-18.3331 -9.5234451,-1.02867 -10.146441,-24.432491 -10.146501,-24.43258 0.79937,-0.799279 0.799299,-0.799393 26.44433,10.310838 26.444395,10.31084 1.838162,1.1361 1.838237,1.136065 -2.246426,15.0993 -2.246363,15.09918 -7.1656172,-0.28554 -7.16561772,-0.28555 z"
     style="fill:url(#linearGradient5867-3);fill-opacity:1;stroke-width:1.75241"
     id="path5281-7-6-6" /><metadata
     id="metadata15054"><rdf:RDF><cc:Work
         rdf:about=""><dc:title>coin-bag-solid</dc:title></cc:Work></rdf:RDF></metadata></svg>
