<svg version="1.1" id="Uploaded to svgrepo.com" xmlns="http://www.w3.org/2000/svg" xmlns:xlink="http://www.w3.org/1999/xlink" x="0px" y="0px"
	 width="32px" height="32px" viewBox="0 0 32 32" style="enable-background:new 0 0 32 32;" xml:space="preserve">
<style type="text/css">
	.isometric_zeven{fill:#FF7344;}
	.isometric_acht{fill:#F05A28;}
	.isometric_tien{fill:#7BD6C4;}
	.isometric_twaalf{fill:#569080;}
	.isometric_dertien{fill:#225B49;}
	.st0{fill:#72C0AB;}
	.st1{fill:#F29227;}
	.st2{fill:#225B49;}
	.st3{fill:#BE1E2D;}
	.st4{fill:#F28103;}
	.st5{fill:#F8F7C5;}
	.st6{fill:#AD9A74;}
	.st7{fill:#F2D76C;}
	.st8{fill:#F5DF89;}
	.st9{fill:#7BD6C4;}
	.st10{fill:#80CCBE;}
</style>
<g>
	<path class="isometric_acht" d="M17.999,21.767c0-0.004-0.002-0.008-0.002-0.011c-0.005,0.437-0.293,0.873-0.869,1.206
		c-1.168,0.674-3.067,0.671-4.243-0.008c-0.578-0.334-0.869-0.768-0.881-1.204c0,0.006-0.003,0.012-0.003,0.018
		c0,0.003,0,0.01,0,0.013c0,0,0,0.002,0,0.002c0,0.018,0.004,1.399,0.004,1.399c0.041,0.411,0.325,0.816,0.867,1.13
		c1.16,0.67,3.086,0.675,4.256,0c0.543-0.313,0.826-0.719,0.867-1.13c0-0.019,0.004-1.399,0.004-1.399c0-0.001,0-0.001,0-0.002
		C17.999,21.777,17.999,21.77,17.999,21.767z"/>
	<path class="isometric_zeven" d="M17.115,20.511c-1.175-0.678-3.075-0.682-4.243-0.008c-1.168,0.674-1.162,1.771,0.013,2.449
		c1.175,0.678,3.075,0.682,4.243,0.008C18.296,22.286,18.29,21.19,17.115,20.511z"/>
	<path class="isometric_dertien" d="M12.023,15.375c-2.894-1.671-2.305-1.331-2.966-1.712l1.025-0.592l2.489,1.437
		C12.268,14.751,12.078,14.988,12.023,15.375z M17.789,17.52c-0.144,0.213-0.363,0.412-0.661,0.584
		c-0.064,0.037-0.13,0.071-0.198,0.104l4.856,2.804c0.629-0.363,0.388-0.224,1.025-0.592L17.789,17.52z M12.814,20.541l-7.79-4.497
		L4,16.635l8.094,4.673C12.23,20.992,12.505,20.73,12.814,20.541z M17.222,11.254c-0.031,0.019-0.062,0.038-0.094,0.057
		c-0.332,0.192-0.725,0.328-1.144,0.411l10.992,6.346L28,17.476L17.222,11.254z"/>
	<path class="isometric_twaalf" d="M17.999,15.573c0,0.001,0,0.001,0,0.002c0,0-0.004,1.381-0.004,1.399
		c-0.041,0.411-0.324,0.816-0.867,1.13c-1.17,0.675-3.096,0.67-4.256,0c-0.543-0.313-0.826-0.719-0.867-1.13
		c0,0-0.004-1.381-0.004-1.399c0-0.001,0-0.002,0-0.002c0-0.003,0-0.01,0-0.013c0-0.006,0.003-0.012,0.003-0.018
		c0.012,0.436,0.304,0.87,0.881,1.204c1.175,0.678,3.075,0.682,4.243,0.008c0.576-0.333,0.864-0.768,0.869-1.206
		c0,0.004,0.002,0.008,0.002,0.011C17.999,15.563,17.999,15.569,17.999,15.573z M17.999,8.767c0-0.004-0.002-0.008-0.002-0.011
		c-0.005,0.437-0.293,0.873-0.869,1.206c-1.168,0.674-3.067,0.671-4.243-0.008c-0.578-0.334-0.869-0.768-0.881-1.204
		c0,0.006-0.003,0.012-0.003,0.018c0,0.003,0,0.01,0,0.013c0,0,0,0.002,0,0.002c0,0.018,0.004,1.399,0.004,1.399
		c0.041,0.411,0.325,0.816,0.867,1.13c1.16,0.67,3.086,0.675,4.256,0c0.543-0.313,0.826-0.719,0.867-1.13
		c0-0.019,0.004-1.399,0.004-1.399c0-0.001,0-0.001,0-0.002C17.999,8.777,17.999,8.77,17.999,8.767z"/>
	<path class="isometric_tien" d="M17.115,14.304c-1.175-0.678-3.075-0.682-4.243-0.008c-1.168,0.674-1.162,1.771,0.013,2.449
		c1.175,0.678,3.075,0.682,4.243,0.008C18.296,16.079,18.29,14.983,17.115,14.304z M17.115,7.511
		c-1.175-0.678-3.075-0.682-4.243-0.008c-1.168,0.674-1.162,1.771,0.013,2.449c1.175,0.678,3.075,0.682,4.243,0.008
		C18.296,9.286,18.29,8.19,17.115,7.511z"/>
</g>
</svg>