<?xml version="1.0" encoding="UTF-8" standalone="no"?>
<!-- Generator: Adobe Illustrator 24.0.0, SVG Export Plug-In . SVG Version: 6.00 Build 0)  -->

<svg
   version="1.1"
   id="Layer_1"
   x="0px"
   y="0px"
   viewBox="0 0 38.4 33.5"
   style="enable-background:new 0 0 38.4 33.5;"
   xml:space="preserve"
   sodipodi:docname="polygon-matic-logo-perspectiva.svg"
   inkscape:version="1.2 (1:1.2.1+202207142221+cd75a1ee6d)"
   xmlns:inkscape="http://www.inkscape.org/namespaces/inkscape"
   xmlns:sodipodi="http://sodipodi.sourceforge.net/DTD/sodipodi-0.dtd"
   xmlns="http://www.w3.org/2000/svg"
   xmlns:svg="http://www.w3.org/2000/svg"><defs
   id="defs11"><inkscape:path-effect
   effect="perspective-envelope"
   up_left_point="9.6725683,2.5352348"
   up_right_point="33.69624,6.3205929"
   down_left_point="6.3345546,25.443892"
   down_right_point="33.5038,31.0538"
   id="path-effect4134"
   is_visible="true"
   lpeversion="1"
   deform_type="perspective"
   horizontal_mirror="false"
   vertical_mirror="false"
   overflow_perspective="false" /><inkscape:path-effect
   effect="perspective-envelope"
   up_left_point="6.6558721,6.3205929"
   up_right_point="33.628549,6.3205929"
   down_left_point="6.6558721,31.0538"
   down_right_point="33.652742,32.249877"
   id="path-effect4130"
   is_visible="true"
   lpeversion="1"
   deform_type="perspective"
   horizontal_mirror="false"
   vertical_mirror="false"
   overflow_perspective="false" /><inkscape:path-effect
   effect="perspective-envelope"
   up_left_point="9.6725683,2.5352348"
   up_right_point="33.69624,6.3205929"
   down_left_point="6.3345546,25.443892"
   down_right_point="33.5038,31.0538"
   id="path-effect4118"
   is_visible="true"
   lpeversion="1"
   deform_type="perspective"
   horizontal_mirror="false"
   vertical_mirror="false"
   overflow_perspective="false" /><inkscape:path-effect
   effect="perspective-envelope"
   up_left_point="6.6558721,6.3205929"
   up_right_point="33.628549,6.3205929"
   down_left_point="6.6558721,31.0538"
   down_right_point="33.652742,32.249877"
   id="path-effect4107"
   is_visible="true"
   lpeversion="1"
   deform_type="perspective"
   horizontal_mirror="false"
   vertical_mirror="false"
   overflow_perspective="false" /><inkscape:path-effect
   effect="perspective-envelope"
   up_left_point="8.4166767,4.8842901"
   up_right_point="33.747181,7.7768731"
   down_left_point="4.8962011,31.0538"
   down_right_point="33.495247,31.0538"
   id="path-effect4105"
   is_visible="true"
   lpeversion="1"
   deform_type="perspective"
   horizontal_mirror="false"
   vertical_mirror="false"
   overflow_perspective="false" /><inkscape:path-effect
   effect="perspective-envelope"
   up_left_point="8.4166767,4.8842901"
   up_right_point="33.747181,7.7768731"
   down_left_point="4.8962011,31.0538"
   down_right_point="33.495247,31.0538"
   id="path-effect4073"
   is_visible="true"
   lpeversion="1"
   deform_type="perspective"
   horizontal_mirror="false"
   vertical_mirror="false"
   overflow_perspective="false" /><inkscape:path-effect
   effect="perspective-envelope"
   up_left_point="8.4166767,4.8842901"
   up_right_point="33.747181,7.7768731"
   down_left_point="4.8962011,31.0538"
   down_right_point="33.495247,31.0538"
   id="path-effect3925"
   is_visible="true"
   lpeversion="1"
   deform_type="perspective"
   horizontal_mirror="false"
   vertical_mirror="false"
   overflow_perspective="false" />
	
</defs><sodipodi:namedview
   id="namedview9"
   pagecolor="#ffffff"
   bordercolor="#000000"
   borderopacity="0.25"
   inkscape:showpageshadow="2"
   inkscape:pageopacity="0.0"
   inkscape:pagecheckerboard="0"
   inkscape:deskcolor="#d1d1d1"
   showgrid="false"
   inkscape:zoom="3.5522388"
   inkscape:cx="4.5042017"
   inkscape:cy="5.7710084"
   inkscape:window-width="1360"
   inkscape:window-height="704"
   inkscape:window-x="0"
   inkscape:window-y="0"
   inkscape:window-maximized="1"
   inkscape:current-layer="g4081" />
<style
   type="text/css"
   id="style2">
	.st0{fill:#8247E5;}
</style>

<g
   id="g4081"><g
     id="g4069"
     transform="translate(-67.968082,-14.019764)"
     inkscape:path-effect="#path-effect4073"
     style="fill:#6c43ad;fill-opacity:1;stroke:none;stroke-opacity:1"><circle
       style="opacity:1;fill:#6c43ad;fill-opacity:1;stroke:none;stroke-width:0.669937;stroke-opacity:1"
       id="circle4065"
       cx="19.200001"
       cy="16.75"
       r="14.3038"
       d="M 33.627891,18.798386 C 33.556425,25.401381 27.721131,31.0538 20.132019,31.0538 11.973437,31.0538 5.7601919,24.631311 6.7620396,17.184061 7.6996283,10.214481 14.619213,5.5925804 21.822838,6.4151887 28.575557,7.1863064 33.695292,12.571017 33.627891,18.798386 Z" /><path
       class="st0"
       d="m 26.245837,15.28428 c -0.339445,-0.210481 -0.788283,-0.244365 -1.19827,-0.08941 l -2.949541,1.346725 -2.067238,0.878625 -3.107752,1.44577 c -0.40414,0.178427 -0.903412,0.151304 -1.330411,-0.07348 L 13.304899,17.350518 C 12.92913,17.126071 12.687938,16.708709 12.736091,16.26075 l 0.263932,-2.455341 c 0.04167,-0.387694 0.305888,-0.756108 0.774991,-0.960529 l 2.464153,-0.989345 c 0.3934,-0.154801 0.874831,-0.112633 1.284749,0.111432 l 2.172521,1.406771 c 0.352567,0.216881 0.586357,0.612709 0.555292,1.035991 l -0.114963,1.566456 2.055267,-0.900073 0.101654,-1.584678 c 0.0237,-0.369479 -0.156867,-0.755043 -0.550978,-1.019942 L 17.753913,9.935857 C 17.401054,9.7169922 16.925108,9.6708708 16.483205,9.8137869 L 11.76826,11.661147 c -0.47198,0.153579 -0.743043,0.520165 -0.788582,0.907346 l -0.547796,4.657471 c -0.04773,0.405816 0.137446,0.826499 0.573057,1.107735 l 4.384914,2.634412 c 0.375246,0.222117 0.880169,0.244569 1.34478,0.06104 l 3.138133,-1.455766 2.092724,-0.965671 2.926679,-1.357778 c 0.36391,-0.165483 0.817664,-0.13563 1.210831,0.07858 l 2.093561,1.308386 c 0.339034,0.208529 0.57289,0.599549 0.558878,1.024818 l -0.07884,2.39296 c -0.01277,0.387719 -0.226262,0.768894 -0.637474,0.997595 l -2.197489,1.161224 c -0.372645,0.188763 -0.841949,0.174046 -1.250619,-0.0404 l -2.200957,-1.336533 c -0.360602,-0.215338 -0.602054,-0.627352 -0.573294,-1.077385 l 0.101322,-1.585468 -2.108056,0.995031 -0.121907,1.666656 c -0.02983,0.407825 0.159235,0.824582 0.577967,1.095251 l 4.208691,2.528227 c 0.360122,0.213069 0.834677,0.222843 1.263976,0.02725 l 4.220033,-2.237778 c 0.352885,-0.184151 0.609919,-0.565442 0.620512,-1.00217 l 0.109343,-4.50807 c 0.009,-0.371335 -0.174528,-0.753562 -0.554403,-1.009199 z"
       id="path4067"
       style="fill:#6c43ad;fill-opacity:1;stroke:none;stroke-width:0.56477;stroke-opacity:1"
       inkscape:original-d="m 24.762987,13.050756 c -0.395339,-0.225908 -0.903632,-0.225908 -1.355449,0 l -3.162712,1.863741 -2.146127,1.186017 -3.106235,1.863742 c -0.39534,0.225908 -0.903633,0.225908 -1.355449,0 l -2.428511,-1.468403 c -0.395339,-0.225908 -0.677725,-0.677724 -0.677725,-1.186017 v -2.82385 c 0,-0.451817 0.225909,-0.903633 0.677725,-1.186018 l 2.428511,-1.411925 c 0.395339,-0.225908 0.903632,-0.225908 1.355449,0 l 2.428511,1.468402 c 0.395339,0.225908 0.677724,0.677724 0.677724,1.186018 v 1.863741 l 2.146127,-1.242494 v -1.920219 c 0,-0.451816 -0.225908,-0.903632 -0.677724,-1.186017 l -4.518161,-2.65442 c -0.39534,-0.225908 -0.903633,-0.225908 -1.355449,0 l -4.6311152,2.710897 c -0.451816,0.225908 -0.677724,0.677724 -0.677724,1.12954 v 5.308839 c 0,0.451817 0.225908,0.903633 0.677724,1.186018 l 4.5746382,2.654419 c 0.395339,0.225908 0.903632,0.225908 1.355449,0 l 3.106235,-1.807264 2.146127,-1.242494 3.106235,-1.807265 c 0.39534,-0.225908 0.903633,-0.225908 1.355449,0 l 2.428511,1.411926 c 0.395339,0.225908 0.677725,0.677724 0.677725,1.186017 v 2.82385 c 0,0.451817 -0.225909,0.903633 -0.677725,1.186018 l -2.372034,1.411925 c -0.395339,0.225908 -0.903632,0.225908 -1.355449,0 l -2.428511,-1.411925 c -0.395339,-0.225908 -0.677724,-0.677724 -0.677724,-1.186018 v -1.807264 l -2.146127,1.242494 v 1.863742 c 0,0.451816 0.225908,0.903632 0.677724,1.186017 l 4.574638,2.65442 c 0.39534,0.225908 0.903633,0.225908 1.355449,0 l 4.574638,-2.65442 c 0.395339,-0.225908 0.677724,-0.677724 0.677724,-1.186017 v -5.365316 c 0,-0.451817 -0.225908,-0.903633 -0.677724,-1.186018 z" /></g><g
     id="g3923"
     transform="translate(-67.887749,-15.21584)"
     inkscape:path-effect="#path-effect3925"><circle
       style="opacity:1;fill:#8247e5;fill-opacity:1;stroke-width:0.669937"
       id="circle3919"
       cx="19.200001"
       cy="16.75"
       r="14.3038"
       d="M 33.627891,18.798386 C 33.556425,25.401381 27.721131,31.0538 20.132019,31.0538 11.973437,31.0538 5.7601919,24.631311 6.7620396,17.184061 7.6996283,10.214481 14.619213,5.5925804 21.822838,6.4151887 28.575557,7.1863064 33.695292,12.571017 33.627891,18.798386 Z" /><path
       class="st0"
       d="m 26.245837,15.28428 c -0.339445,-0.210481 -0.788283,-0.244365 -1.19827,-0.08941 l -2.949541,1.346725 -2.067238,0.878625 -3.107752,1.44577 c -0.40414,0.178427 -0.903412,0.151304 -1.330411,-0.07348 L 13.304899,17.350518 C 12.92913,17.126071 12.687938,16.708709 12.736091,16.26075 l 0.263932,-2.455341 c 0.04167,-0.387694 0.305888,-0.756108 0.774991,-0.960529 l 2.464153,-0.989345 c 0.3934,-0.154801 0.874831,-0.112633 1.284749,0.111432 l 2.172521,1.406771 c 0.352567,0.216881 0.586357,0.612709 0.555292,1.035991 l -0.114963,1.566456 2.055267,-0.900073 0.101654,-1.584678 c 0.0237,-0.369479 -0.156867,-0.755043 -0.550978,-1.019942 L 17.753913,9.935857 C 17.401054,9.7169922 16.925108,9.6708708 16.483205,9.8137869 L 11.76826,11.661147 c -0.47198,0.153579 -0.743043,0.520165 -0.788582,0.907346 l -0.547796,4.657471 c -0.04773,0.405816 0.137446,0.826499 0.573057,1.107735 l 4.384914,2.634412 c 0.375246,0.222117 0.880169,0.244569 1.34478,0.06104 l 3.138133,-1.455766 2.092724,-0.965671 2.926679,-1.357778 c 0.36391,-0.165483 0.817664,-0.13563 1.210831,0.07858 l 2.093561,1.308386 c 0.339034,0.208529 0.57289,0.599549 0.558878,1.024818 l -0.07884,2.39296 c -0.01277,0.387719 -0.226262,0.768894 -0.637474,0.997595 l -2.197489,1.161224 c -0.372645,0.188763 -0.841949,0.174046 -1.250619,-0.0404 l -2.200957,-1.336533 c -0.360602,-0.215338 -0.602054,-0.627352 -0.573294,-1.077385 l 0.101322,-1.585468 -2.108056,0.995031 -0.121907,1.666656 c -0.02983,0.407825 0.159235,0.824582 0.577967,1.095251 l 4.208691,2.528227 c 0.360122,0.213069 0.834677,0.222843 1.263976,0.02725 l 4.220033,-2.237778 c 0.352885,-0.184151 0.609919,-0.565442 0.620512,-1.00217 l 0.109343,-4.50807 c 0.009,-0.371335 -0.174528,-0.753562 -0.554403,-1.009199 z"
       id="path3921"
       style="fill:#ffffff;stroke-width:0.56477"
       inkscape:original-d="m 24.762987,13.050756 c -0.395339,-0.225908 -0.903632,-0.225908 -1.355449,0 l -3.162712,1.863741 -2.146127,1.186017 -3.106235,1.863742 c -0.39534,0.225908 -0.903633,0.225908 -1.355449,0 l -2.428511,-1.468403 c -0.395339,-0.225908 -0.677725,-0.677724 -0.677725,-1.186017 v -2.82385 c 0,-0.451817 0.225909,-0.903633 0.677725,-1.186018 l 2.428511,-1.411925 c 0.395339,-0.225908 0.903632,-0.225908 1.355449,0 l 2.428511,1.468402 c 0.395339,0.225908 0.677724,0.677724 0.677724,1.186018 v 1.863741 l 2.146127,-1.242494 v -1.920219 c 0,-0.451816 -0.225908,-0.903632 -0.677724,-1.186017 l -4.518161,-2.65442 c -0.39534,-0.225908 -0.903633,-0.225908 -1.355449,0 l -4.6311152,2.710897 c -0.451816,0.225908 -0.677724,0.677724 -0.677724,1.12954 v 5.308839 c 0,0.451817 0.225908,0.903633 0.677724,1.186018 l 4.5746382,2.654419 c 0.395339,0.225908 0.903632,0.225908 1.355449,0 l 3.106235,-1.807264 2.146127,-1.242494 3.106235,-1.807265 c 0.39534,-0.225908 0.903633,-0.225908 1.355449,0 l 2.428511,1.411926 c 0.395339,0.225908 0.677725,0.677724 0.677725,1.186017 v 2.82385 c 0,0.451817 -0.225909,0.903633 -0.677725,1.186018 l -2.372034,1.411925 c -0.395339,0.225908 -0.903632,0.225908 -1.355449,0 l -2.428511,-1.411925 c -0.395339,-0.225908 -0.677724,-0.677724 -0.677724,-1.186018 v -1.807264 l -2.146127,1.242494 v 1.863742 c 0,0.451816 0.225908,0.903632 0.677724,1.186017 l 4.574638,2.65442 c 0.39534,0.225908 0.903633,0.225908 1.355449,0 l 4.574638,-2.65442 c 0.395339,-0.225908 0.677724,-0.677724 0.677724,-1.186017 v -5.365316 c 0,-0.451817 -0.225908,-0.903633 -0.677724,-1.186018 z" /></g><g
     id="g4101"
     transform="matrix(1.1032077,0,0,1.1032077,-3.1215226,-3.7525964)"
     inkscape:path-effect="#path-effect4105"><g
       id="g4870"
       transform="translate(-1.317391,-9.5961709)"><g
         id="g4126"
         inkscape:path-effect="#path-effect4134"
         style="fill:#6f2ae1;fill-opacity:1"
         transform="translate(-2,2)"><g
           id="g4124"
           style="fill:#6f2ae1;fill-opacity:1"
           transform="translate(1.2506867,-0.81221472)"><path
             style="opacity:1;fill:#6f2ae1;fill-opacity:1;stroke-width:0.669937"
             id="path4120"
             d="M 35.371071,29.673113 C 35.247518,36.542694 28.549902,41.078537 20.434608,38.930849 12.327411,36.785302 7.4563977,29.19863 9.3116185,22.797716 c 1.6375605,-5.649939 8.0667775,-8.38758 14.5307505,-6.68634 6.469118,1.702594 11.637738,7.499335 11.528702,13.561737 z"
             inkscape:path-effect="#path-effect4130"
             sodipodi:type="arc"
             sodipodi:cx="19.200001"
             sodipodi:cy="16.75"
             sodipodi:rx="14.3038"
             sodipodi:ry="14.3038" /><path
             class="st0"
             d="M 26.546125,24.864279 C 26.28268,24.646392 25.922641,24.557211 25.584464,24.626365 L 23.148915,25.308927 21.456666,25.731681 18.92,26.463849 c -0.327773,0.08707 -0.712226,-0.0053 -1.023612,-0.246337 l -1.626552,-1.462757 c -0.264675,-0.227279 -0.410052,-0.587308 -0.334599,-0.931832 l 0.409707,-1.870773 c 0.06411,-0.292696 0.292546,-0.542537 0.660346,-0.641454 l 1.932551,-0.456706 c 0.309483,-0.07078 0.671545,0.02039 0.966919,0.243195 l 1.569686,1.367196 c 0.258805,0.215766 0.414023,0.55803 0.361337,0.888603 l -0.196298,1.231637 1.676291,-0.442559 0.178551,-1.248625 c 0.04136,-0.289184 -0.07662,-0.616564 -0.368595,-0.875216 L 20.226454,19.569588 C 19.975124,19.361787 19.61923,19.271065 19.275883,19.32754 l -3.661076,0.840753 c -0.36113,0.05991 -0.592993,0.304454 -0.660978,0.591963 l -0.83101,3.514366 c -0.07358,0.311184 0.02526,0.666079 0.325241,0.946251 l 3.111704,2.730269 c 0.272947,0.236521 0.664375,0.32922 1.041981,0.24711 l 2.57895,-0.735032 1.730082,-0.488972 2.434394,-0.6939 c 0.303693,-0.08387 0.670049,0.0057 0.97841,0.238775 l 1.654323,1.397395 c 0.271491,0.226374 0.448049,0.591711 0.416918,0.949563 l -0.176984,2.034518 c -0.02897,0.333024 -0.226849,0.628525 -0.58398,0.759678 l -1.90073,0.646382 c -0.321046,0.102259 -0.710136,0.01196 -1.035937,-0.240768 l -1.720355,-1.49795 c -0.278363,-0.23909 -0.44619,-0.624591 -0.392847,-0.998752 l 0.186592,-1.308781 -1.753765,0.510587 -0.218304,1.373432 c -0.05381,0.338506 0.06723,0.720043 0.384316,1.015713 l 3.279186,2.877595 c 0.287549,0.249285 0.684128,0.339741 1.055663,0.241169 l 3.687488,-1.25286 c 0.309604,-0.102611 0.545543,-0.395085 0.572729,-0.776965 l 0.2755,-3.870054 c 0.02229,-0.313055 -0.116452,-0.663361 -0.423824,-0.935226 z"
             id="path4122"
             style="fill:#6f2ae1;fill-opacity:1;stroke-width:0.433256"
             inkscape:original-d="m 23.948224,16.298343 c -0.300431,-0.174946 -0.6867,-0.174946 -1.030051,0 l -2.40345,1.443301 -1.630913,0.918464 -2.360531,1.443302 c -0.300432,0.174946 -0.686701,0.174946 -1.030051,0 l -1.845506,-1.137147 c -0.300431,-0.174945 -0.515026,-0.524837 -0.515026,-0.918464 v -2.18682 c 0,-0.349892 0.171676,-0.699784 0.515026,-0.918466 l 1.845506,-1.09341 c 0.300431,-0.174945 0.6867,-0.174945 1.030051,0 l 1.845506,1.137147 c 0.300431,0.174945 0.515025,0.524837 0.515025,0.918465 v 1.443301 l 1.630913,-0.9622 v -1.487039 c 0,-0.349891 -0.171675,-0.699782 -0.515025,-0.918464 l -3.4335,-2.055612 c -0.300432,-0.174945 -0.686701,-0.174945 -1.030051,0 l -3.519338,2.099348 c -0.34335,0.174946 -0.515025,0.524837 -0.515025,0.874728 V 19.01 c 0,0.349892 0.171675,0.699783 0.515025,0.918465 l 3.476419,2.055611 c 0.300431,0.174945 0.6867,0.174945 1.030051,0 l 2.360531,-1.399565 1.630913,-0.962201 2.360532,-1.399566 c 0.300432,-0.174945 0.6867,-0.174945 1.03005,0 l 1.845507,1.093411 c 0.300431,0.174946 0.515025,0.524837 0.515025,0.918465 v 2.18682 c 0,0.349892 -0.171675,0.699783 -0.515025,0.918465 l -1.802588,1.09341 c -0.300431,0.174946 -0.6867,0.174946 -1.030051,0 l -1.845506,-1.09341 C 20.772236,23.164959 20.557642,22.815068 20.557642,22.42144 v -1.399565 l -1.630913,0.962201 v 1.443302 c 0,0.349891 0.171675,0.699782 0.515025,0.918464 l 3.476419,2.055612 c 0.300432,0.174945 0.686701,0.174945 1.030051,0 l 3.47642,-2.055612 c 0.300431,-0.174945 0.515025,-0.524837 0.515025,-0.918464 v -4.154959 c 0,-0.349892 -0.171675,-0.699783 -0.515025,-0.918465 z" /></g></g><g
         id="g4116"
         inkscape:path-effect="#path-effect4118"
         transform="translate(-1.6951255,0.83006306)"><g
           id="g4111"><path
             style="opacity:1;fill:#8247e5;fill-opacity:1;stroke-width:0.669937"
             id="circle4097"
             d="M 36.626217,28.858932 C 36.513124,35.644003 29.881679,40.080563 21.839264,37.909661 13.808351,35.741864 8.9709651,28.224756 10.793482,21.915824 c 1.609476,-5.571456 7.972678,-8.241454 14.381851,-6.524778 6.416495,1.718637 11.550729,7.47767 11.450884,13.467886 z"
             inkscape:path-effect="#path-effect4107"
             sodipodi:type="arc"
             sodipodi:cx="19.200001"
             sodipodi:cy="16.75"
             sodipodi:rx="14.3038"
             sodipodi:ry="14.3038" /><path
             class="st0"
             d="m 27.869963,24.056031 c -0.261471,-0.216793 -0.618469,-0.306982 -0.953529,-0.24061 l -2.4125,0.660238 -1.676028,0.407791 -2.511719,0.708411 c -0.324523,0.08409 -0.70552,-0.0094 -1.014413,-0.249255 L 17.687875,23.8885 c -0.262591,-0.226 -0.407282,-0.582427 -0.333223,-0.922275 l 0.402179,-1.845545 c 0.06294,-0.288773 0.288739,-0.534288 0.652892,-0.629926 l 1.913694,-0.440284 c 0.306497,-0.06819 0.665395,0.02393 0.958464,0.245731 l 1.557806,1.359671 c 0.256833,0.214645 0.411246,0.553674 0.359627,0.879959 L 23.007,23.751425 24.667261,23.32388 24.842046,22.091295 c 0.04049,-0.285486 -0.077,-0.609624 -0.366799,-0.866844 L 21.59784,18.788665 C 21.348421,18.58193 20.99561,18.490299 20.655512,18.544184 l -3.625399,0.810158 c -0.357595,0.05716 -0.586778,0.297435 -0.653548,0.581073 l -0.816034,3.466518 c -0.07224,0.306904 0.02635,0.657961 0.323987,0.936384 l 3.087121,2.714396 c 0.270791,0.235173 0.658668,0.329019 1.032534,0.250158 l 2.553411,-0.710757 1.713277,-0.47283 2.411172,-0.671232 c 0.300835,-0.08109 0.66407,0.0095 0.970068,0.241586 l 1.641918,1.390154 c 0.269455,0.225225 0.445033,0.587166 0.414743,0.940482 l -0.172201,2.008563 c -0.02818,0.32875 -0.223828,0.619418 -0.577554,0.746806 l -1.882499,0.626908 c -0.317948,0.09905 -0.703628,0.0075 -1.026867,-0.244007 l -1.707075,-1.489578 c -0.276204,-0.237772 -0.443153,-0.619475 -0.390958,-0.988668 l 0.182583,-1.291484 -1.736615,0.49392 -0.213786,1.355015 c -0.05269,0.333946 0.06789,0.71142 0.382536,1.005277 l 3.253637,2.861179 c 0.285311,0.247891 0.678382,0.339627 1.046336,0.244563 l 3.652134,-1.214789 c 0.306695,-0.09946 0.540094,-0.386893 0.566453,-0.763897 l 0.267159,-3.821158 c 0.02161,-0.309142 -0.116454,-0.656039 -0.421573,-0.926431 z"
             id="path4099"
             style="fill:#ffffff;stroke-width:0.433256"
             inkscape:original-d="m 23.948224,16.298343 c -0.300431,-0.174946 -0.6867,-0.174946 -1.030051,0 l -2.40345,1.443301 -1.630913,0.918464 -2.360531,1.443302 c -0.300432,0.174946 -0.686701,0.174946 -1.030051,0 l -1.845506,-1.137147 c -0.300431,-0.174945 -0.515026,-0.524837 -0.515026,-0.918464 v -2.18682 c 0,-0.349892 0.171676,-0.699784 0.515026,-0.918466 l 1.845506,-1.09341 c 0.300431,-0.174945 0.6867,-0.174945 1.030051,0 l 1.845506,1.137147 c 0.300431,0.174945 0.515025,0.524837 0.515025,0.918465 v 1.443301 l 1.630913,-0.9622 v -1.487039 c 0,-0.349891 -0.171675,-0.699782 -0.515025,-0.918464 l -3.4335,-2.055612 c -0.300432,-0.174945 -0.686701,-0.174945 -1.030051,0 l -3.519338,2.099348 c -0.34335,0.174946 -0.515025,0.524837 -0.515025,0.874728 V 19.01 c 0,0.349892 0.171675,0.699783 0.515025,0.918465 l 3.476419,2.055611 c 0.300431,0.174945 0.6867,0.174945 1.030051,0 l 2.360531,-1.399565 1.630913,-0.962201 2.360532,-1.399566 c 0.300432,-0.174945 0.6867,-0.174945 1.03005,0 l 1.845507,1.093411 c 0.300431,0.174946 0.515025,0.524837 0.515025,0.918465 v 2.18682 c 0,0.349892 -0.171675,0.699783 -0.515025,0.918465 l -1.802588,1.09341 c -0.300431,0.174946 -0.6867,0.174946 -1.030051,0 l -1.845506,-1.09341 C 20.772236,23.164959 20.557642,22.815068 20.557642,22.42144 v -1.399565 l -1.630913,0.962201 v 1.443302 c 0,0.349891 0.171675,0.699782 0.515025,0.918464 l 3.476419,2.055612 c 0.300432,0.174945 0.686701,0.174945 1.030051,0 l 3.47642,-2.055612 c 0.300431,-0.174945 0.515025,-0.524837 0.515025,-0.918464 v -4.154959 c 0,-0.349892 -0.171675,-0.699783 -0.515025,-0.918465 z" /></g></g></g></g></g></svg>
