<?xml version="1.0" encoding="UTF-8" standalone="no"?>
<!-- Created with Inkscape (http://www.inkscape.org/) -->

<svg
   width="50mm"
   height="50mm"
   viewBox="0 0 50 50"
   version="1.1"
   id="svg397"
   inkscape:version="1.2 (1:1.2.1+202207142221+cd75a1ee6d)"
   sodipodi:docname="Tmine.svg"
   xmlns:inkscape="http://www.inkscape.org/namespaces/inkscape"
   xmlns:sodipodi="http://sodipodi.sourceforge.net/DTD/sodipodi-0.dtd"
   xmlns="http://www.w3.org/2000/svg"
   xmlns:svg="http://www.w3.org/2000/svg">
  <sodipodi:namedview
     id="namedview399"
     pagecolor="#ffffff"
     bordercolor="#000000"
     borderopacity="0.25"
     inkscape:showpageshadow="2"
     inkscape:pageopacity="0.0"
     inkscape:pagecheckerboard="0"
     inkscape:deskcolor="#d1d1d1"
     inkscape:document-units="px"
     showgrid="false"
     inkscape:zoom="1.9171156"
     inkscape:cx="121.01513"
     inkscape:cy="86.849223"
     inkscape:window-width="1360"
     inkscape:window-height="704"
     inkscape:window-x="0"
     inkscape:window-y="27"
     inkscape:window-maximized="1"
     inkscape:current-layer="layer1" />
  <defs
     id="defs394" />
  <g
     inkscape:label="Capa 1"
     inkscape:groupmode="layer"
     id="layer1">
    <path
       d="m 18.587916,46.777339 c -2.0691,-1.120017 -3.894473,-2.178936 -4.05638,-2.353168 -0.320947,-0.345349 -7.95397,-22.288969 -7.95397,-22.866272 0,-0.526997 5.083229,-14.4796902 5.383261,-14.7762438 0.141868,-0.1402272 2.796488,-1.1964169 5.899148,-2.3470993 3.102666,-1.1506825 6.329602,-2.3520025 7.170972,-2.6696017 l 1.529762,-0.5774544 6.298856,4.3095241 c 10.121113,6.9246071 10.558326,7.2401121 10.562861,7.6223801 0.0079,0.692757 -5.835701,27.074731 -6.062616,27.369203 -0.248508,0.322496 -8.589579,7.206431 -9.118534,7.525585 -0.392673,0.236915 -3.957854,0.796572 -5.085474,0.798307 -0.578189,6.05e-4 -1.868793,-0.574122 -4.567886,-2.03516 z m 8.320065,-0.0021 c 0.31078,-0.114962 1.135692,-1.755648 2.726106,-5.421989 1.254262,-2.891427 2.245839,-5.291784 2.203503,-5.334127 -0.117648,-0.117641 -9.600495,0.526053 -9.735286,0.660838 -0.06494,0.06494 0.197338,2.372299 0.58284,5.127472 0.385502,2.755174 0.700913,5.111259 0.700913,5.235746 0,0.239314 2.707517,0.03334 3.521924,-0.26794 z M 21.099362,41.345088 20.402639,36.34558 19.548626,35.391184 C 17.529531,33.135117 9.3406021,24.835411 9.3406021,25.045384 c 0,0.126728 1.1302559,3.483275 2.5116759,7.458977 1.381429,3.975711 2.799297,8.063064 3.150829,9.083024 l 0.639144,1.854468 3.008448,1.629785 c 1.654662,0.896378 3.039254,1.549561 3.07691,1.451519 0.03765,-0.09805 -0.245059,-2.428048 -0.628247,-5.177778 z m 12.211543,0.643198 2.869653,-2.349404 0.499644,-2.370787 c 0.274809,-1.303941 1.128262,-5.220174 1.89656,-8.702756 0.76829,-3.482589 1.368892,-6.474449 1.334656,-6.648596 -0.0342,-0.174146 -0.496195,0.706573 -1.02659,1.957148 -0.530388,1.250583 -2.480284,5.744851 -4.333111,9.987271 -4.693876,10.747556 -4.73966,10.858256 -4.407437,10.656706 0.163346,-0.09909 1.58832,-1.237413 3.166625,-2.529582 z m -4.686588,-7.349365 c 2.153252,-0.102167 3.276785,-0.242834 3.268519,-0.409212 -0.02152,-0.432368 -4.527361,-10.384662 -4.701637,-10.384662 -0.173267,0 -4.726158,10.593627 -4.726158,10.996784 0,0.148666 0.525196,0.182765 1.439078,0.09344 0.791503,-0.07736 2.91559,-0.210722 4.720198,-0.296346 z m -4.962478,-6.693149 2.693434,-6.366053 -2.552659,-6.350566 C 22.398663,11.7363 21.207556,8.8304153 21.155723,8.771584 21.052303,8.6542096 12.175595,17.512412 9.8365957,20.06711 l -1.461168,1.595908 6.1547473,6.329254 c 3.385124,3.481107 6.21854,6.32708 6.296488,6.324401 0.07797,-0.0021 1.353783,-2.869602 2.835176,-6.370934 z m 13.207399,-3.179707 c 1.870402,-4.305744 3.740739,-8.605722 4.156316,-9.555524 0.415584,-0.949788 0.683546,-1.789855 0.595498,-1.866808 C 41.292998,13.057017 27.422738,3.5716502 26.933051,3.2991086 26.459385,3.0354734 26.276778,3.1717478 24.340691,5.2337559 l -2.082794,2.2182481 0.348256,0.8284032 c 0.191541,0.455616 1.525428,3.7295788 2.96419,7.2754858 1.438769,3.545899 3.517422,8.467567 4.619239,10.937037 1.101816,2.469463 2.201307,4.947386 2.443299,5.506474 0.25475,0.588556 0.523281,0.927857 0.637819,0.805889 0.108799,-0.115856 1.728144,-3.733525 3.598538,-8.039261 z M 23.063267,4.2193191 c -0.08853,-0.088524 -9.785863,3.5238457 -9.9795,3.7174754 -0.138348,0.1383408 -3.7469233,10.0338915 -3.7310689,10.2314445 0.0072,0.08284 3.1137849,-3.002177 6.9047569,-6.855696 3.79096,-3.8535118 6.853576,-7.0454663 6.805812,-7.0932239 z"
       style="fill:#ffffff;fill-opacity:1;stroke-width:0.230253"
       id="path21696" />
  </g>
</svg>
