<?xml version="1.0" encoding="iso-8859-1"?>
<!-- Generator: Adobe Illustrator 19.0.0, SVG Export Plug-In . SVG Version: 6.00 Build 0)  -->
<svg version="1.1" id="Layer_1" xmlns="http://www.w3.org/2000/svg" xmlns:xlink="http://www.w3.org/1999/xlink" x="0px" y="0px"
	 viewBox="0 0 512 512" style="enable-background:new 0 0 512 512;" xml:space="preserve">
<path style="fill:#2586FD;" d="M482.197,374.265l-78.717-45.448c-15.89-9.174-35.829,2.308-35.829,20.686v27.587H151.058
	C87.462,377.09,35.721,325.35,35.721,261.753c0-9.864-7.997-17.86-17.86-17.86S0,251.889,0,261.753
	c0,83.294,67.765,151.058,151.058,151.058h216.591v27.587c0,18.347,19.913,29.876,35.829,20.686l78.717-45.447
	C498.086,406.464,498.113,383.455,482.197,374.265z"/>
<path style="fill:#FF90C2;" d="M360.942,99.188H144.349V71.601c0-18.347-19.913-29.876-35.829-20.686L29.803,96.361
	c-15.889,9.173-15.917,32.182,0,41.372l78.717,45.448c15.89,9.174,35.829-2.309,35.829-20.686v-27.587h216.593
	c63.598,0,115.337,51.739,115.337,115.337c0,9.864,7.997,17.86,17.86,17.86s17.86-7.997,17.86-17.86
	C512,166.952,444.235,99.188,360.942,99.188z"/>
<path style="fill:#3A4DE2;" d="M482.197,374.265l-78.717-45.448c-15.89-9.174-35.829,2.308-35.829,20.686v27.587H256v35.721h111.651
	v27.587c0,18.347,19.913,29.876,35.829,20.686l78.717-45.447C498.086,406.464,498.113,383.455,482.197,374.265z"/>
<path style="fill:#FF52A0;" d="M360.942,99.188H256v35.721h104.942c63.598,0,115.337,51.739,115.337,115.337
	c0,9.864,7.997,17.86,17.86,17.86S512,260.11,512,250.246C512,166.952,444.235,99.188,360.942,99.188z"/>
<g>
</g>
<g>
</g>
<g>
</g>
<g>
</g>
<g>
</g>
<g>
</g>
<g>
</g>
<g>
</g>
<g>
</g>
<g>
</g>
<g>
</g>
<g>
</g>
<g>
</g>
<g>
</g>
<g>
</g>
</svg>
